<ttFont>
    <TTGlyph name="A" xMin="35" yMin="-14" xMax="678" yMax="744">
      <contour>
        <pt x="390" y="732" on="1"/>
        <pt x="390" y="724" on="0"/>
        <pt x="384" y="714" on="0"/>
        <pt x="382" y="706" on="1"/>
        <pt x="366" y="706" on="1"/>
        <pt x="360" y="710" on="0"/>
        <pt x="350" y="712" on="0"/>
        <pt x="350" y="721" on="1"/>
        <pt x="350" y="725" on="0"/>
        <pt x="352" y="732" on="0"/>
        <pt x="352" y="735" on="1"/>
        <pt x="358" y="744" on="0"/>
        <pt x="369" y="744" on="1"/>
        <pt x="373" y="744" on="0"/>
        <pt x="381" y="742" on="1"/>
        <pt x="383" y="738" on="0"/>
        <pt x="385" y="734" on="0"/>
      </contour>
      <contour>
        <pt x="446" y="635" on="1"/>
        <pt x="444" y="631" on="0"/>
        <pt x="434" y="620" on="0"/>
        <pt x="433" y="617" on="1"/>
        <pt x="428" y="615" on="1"/>
        <pt x="420" y="615" on="0"/>
        <pt x="410" y="621" on="0"/>
        <pt x="403" y="626" on="1"/>
        <pt x="405" y="634" on="0"/>
        <pt x="410" y="653" on="0"/>
        <pt x="421" y="653" on="1"/>
        <pt x="431" y="653" on="0"/>
        <pt x="444" y="646" on="0"/>
      </contour>
      <contour>
        <pt x="492" y="506" on="1"/>
        <pt x="480" y="492" on="1"/>
        <pt x="474" y="490" on="0"/>
        <pt x="472" y="490" on="1"/>
        <pt x="467" y="490" on="0"/>
        <pt x="458" y="494" on="0"/>
        <pt x="453" y="496" on="1"/>
        <pt x="452" y="499" on="0"/>
        <pt x="450" y="505" on="0"/>
        <pt x="450" y="509" on="1"/>
        <pt x="450" y="510" on="0"/>
        <pt x="452" y="516" on="1"/>
        <pt x="462" y="526" on="0"/>
        <pt x="478" y="526" on="1"/>
        <pt x="486" y="518" on="0"/>
      </contour>
      <contour>
        <pt x="342" y="616" on="1"/>
        <pt x="342" y="608" on="0"/>
        <pt x="328" y="597" on="0"/>
        <pt x="320" y="597" on="1"/>
        <pt x="316" y="597" on="0"/>
        <pt x="312" y="599" on="1"/>
        <pt x="310" y="598" on="0"/>
        <pt x="306" y="597" on="0"/>
        <pt x="304" y="596" on="1"/>
        <pt x="303" y="602" on="0"/>
        <pt x="300" y="615" on="0"/>
        <pt x="300" y="621" on="1"/>
        <pt x="300" y="627" on="0"/>
        <pt x="307" y="632" on="0"/>
        <pt x="311" y="637" on="1"/>
        <pt x="316" y="637" on="0"/>
        <pt x="328" y="636" on="0"/>
        <pt x="333" y="636" on="1"/>
        <pt x="335" y="631" on="0"/>
        <pt x="342" y="622" on="0"/>
      </contour>
      <contour>
        <pt x="539" y="399" on="1"/>
        <pt x="539" y="395" on="0"/>
        <pt x="536" y="387" on="0"/>
        <pt x="536" y="383" on="1"/>
        <pt x="531" y="382" on="0"/>
        <pt x="523" y="377" on="0"/>
        <pt x="518" y="377" on="1"/>
        <pt x="513" y="377" on="0"/>
        <pt x="503" y="384" on="0"/>
        <pt x="498" y="385" on="1"/>
        <pt x="498" y="387" on="0"/>
        <pt x="500" y="390" on="0"/>
        <pt x="500" y="392" on="1"/>
        <pt x="500" y="394" on="0"/>
        <pt x="498" y="399" on="0"/>
        <pt x="497" y="401" on="1"/>
        <pt x="502" y="407" on="0"/>
        <pt x="514" y="418" on="0"/>
        <pt x="522" y="418" on="1"/>
        <pt x="529" y="418" on="0"/>
        <pt x="539" y="406" on="0"/>
      </contour>
      <contour>
        <pt x="570" y="287" on="1"/>
        <pt x="570" y="274" on="0"/>
        <pt x="555" y="271" on="0"/>
        <pt x="546" y="266" on="1"/>
        <pt x="542" y="270" on="0"/>
        <pt x="534" y="274" on="0"/>
        <pt x="531" y="279" on="1"/>
        <pt x="530" y="284" on="0"/>
        <pt x="528" y="295" on="0"/>
        <pt x="526" y="300" on="1"/>
        <pt x="532" y="303" on="0"/>
        <pt x="545" y="308" on="0"/>
        <pt x="553" y="308" on="1"/>
        <pt x="563" y="308" on="0"/>
        <pt x="570" y="296" on="0"/>
      </contour>
      <contour>
        <pt x="613" y="207" on="1"/>
        <pt x="613" y="199" on="0"/>
        <pt x="610" y="190" on="1"/>
        <pt x="605" y="188" on="0"/>
        <pt x="595" y="185" on="0"/>
        <pt x="590" y="185" on="1"/>
        <pt x="573" y="185" on="0"/>
        <pt x="573" y="202" on="1"/>
        <pt x="573" y="205" on="0"/>
        <pt x="574" y="210" on="0"/>
        <pt x="574" y="212" on="1"/>
        <pt x="584" y="224" on="1"/>
        <pt x="589" y="222" on="0"/>
        <pt x="598" y="222" on="0"/>
        <pt x="603" y="221" on="1"/>
        <pt x="610" y="214" on="0"/>
      </contour>
      <contour>
        <pt x="289" y="505" on="1"/>
        <pt x="283" y="499" on="0"/>
        <pt x="268" y="489" on="0"/>
        <pt x="259" y="489" on="1"/>
        <pt x="254" y="489" on="0"/>
        <pt x="248" y="495" on="1"/>
        <pt x="245" y="502" on="0"/>
        <pt x="245" y="510" on="1"/>
        <pt x="245" y="513" on="0"/>
        <pt x="247" y="519" on="0"/>
        <pt x="247" y="522" on="1"/>
        <pt x="251" y="524" on="0"/>
        <pt x="258" y="529" on="0"/>
        <pt x="263" y="529" on="1"/>
        <pt x="267" y="529" on="0"/>
        <pt x="270" y="526" on="1"/>
        <pt x="274" y="526" on="0"/>
        <pt x="280" y="524" on="0"/>
        <pt x="283" y="524" on="1"/>
        <pt x="285" y="518" on="0"/>
        <pt x="286" y="510" on="0"/>
      </contour>
      <contour>
        <pt x="472" y="267" on="1"/>
        <pt x="472" y="257" on="0"/>
        <pt x="463" y="251" on="1"/>
        <pt x="455" y="250" on="0"/>
        <pt x="444" y="245" on="1"/>
        <pt x="428" y="256" on="1"/>
        <pt x="430" y="260" on="0"/>
        <pt x="429" y="267" on="0"/>
        <pt x="429" y="272" on="1"/>
        <pt x="434" y="281" on="0"/>
        <pt x="440" y="287" on="0"/>
        <pt x="445" y="288" on="0"/>
        <pt x="450" y="289" on="0"/>
        <pt x="453" y="292" on="1"/>
        <pt x="468" y="284" on="1"/>
        <pt x="468" y="279" on="1"/>
        <pt x="468" y="276" on="0"/>
        <pt x="472" y="271" on="0"/>
      </contour>
      <contour>
        <pt x="643" y="99" on="1"/>
        <pt x="640" y="88" on="0"/>
        <pt x="627" y="77" on="0"/>
        <pt x="616" y="74" on="1"/>
        <pt x="611" y="79" on="0"/>
        <pt x="602" y="86" on="0"/>
        <pt x="598" y="91" on="1"/>
        <pt x="599" y="95" on="0"/>
        <pt x="601" y="102" on="0"/>
        <pt x="601" y="107" on="1"/>
        <pt x="606" y="109" on="0"/>
        <pt x="610" y="115" on="0"/>
        <pt x="614" y="118" on="1"/>
        <pt x="620" y="116" on="0"/>
        <pt x="632" y="114" on="0"/>
        <pt x="638" y="111" on="1"/>
        <pt x="638" y="106" on="0"/>
        <pt x="639" y="104" on="1"/>
      </contour>
      <contour>
        <pt x="678" y="-2" on="1"/>
        <pt x="676" y="-6" on="0"/>
        <pt x="669" y="-12" on="0"/>
        <pt x="666" y="-14" on="1"/>
        <pt x="658" y="-12" on="0"/>
        <pt x="646" y="-12" on="0"/>
        <pt x="641" y="-11" on="1"/>
        <pt x="640" y="-6" on="0"/>
        <pt x="637" y="4" on="0"/>
        <pt x="637" y="9" on="1"/>
        <pt x="637" y="15" on="0"/>
        <pt x="651" y="23" on="0"/>
        <pt x="657" y="23" on="1"/>
        <pt x="665" y="23" on="0"/>
        <pt x="674" y="20" on="1"/>
        <pt x="676" y="15" on="0"/>
        <pt x="677" y="4" on="0"/>
      </contour>
      <contour>
        <pt x="385" y="273" on="1"/>
        <pt x="385" y="268" on="0"/>
        <pt x="384" y="260" on="0"/>
        <pt x="384" y="255" on="1"/>
        <pt x="379" y="252" on="1"/>
        <pt x="368" y="248" on="0"/>
        <pt x="355" y="248" on="1"/>
        <pt x="347" y="256" on="0"/>
        <pt x="347" y="267" on="0"/>
        <pt x="345" y="277" on="1"/>
        <pt x="356" y="288" on="0"/>
        <pt x="369" y="288" on="1"/>
        <pt x="376" y="288" on="1"/>
        <pt x="378" y="284" on="0"/>
        <pt x="382" y="276" on="0"/>
      </contour>
      <contour>
        <pt x="236" y="380" on="1"/>
        <pt x="231" y="377" on="0"/>
        <pt x="220" y="370" on="0"/>
        <pt x="214" y="370" on="1"/>
        <pt x="206" y="375" on="0"/>
        <pt x="196" y="383" on="0"/>
        <pt x="196" y="392" on="1"/>
        <pt x="194" y="398" on="1"/>
        <pt x="205" y="405" on="0"/>
        <pt x="214" y="405" on="0"/>
        <pt x="225" y="406" on="1"/>
        <pt x="229" y="404" on="1"/>
        <pt x="234" y="399" on="0"/>
        <pt x="234" y="386" on="0"/>
      </contour>
      <contour>
        <pt x="298" y="264" on="1"/>
        <pt x="287" y="250" on="1"/>
        <pt x="283" y="248" on="0"/>
        <pt x="279" y="248" on="1"/>
        <pt x="275" y="248" on="0"/>
        <pt x="268" y="250" on="0"/>
        <pt x="264" y="251" on="1"/>
        <pt x="262" y="255" on="0"/>
        <pt x="260" y="262" on="0"/>
        <pt x="255" y="264" on="1"/>
        <pt x="257" y="273" on="0"/>
        <pt x="265" y="282" on="0"/>
        <pt x="272" y="288" on="1"/>
        <pt x="277" y="286" on="0"/>
        <pt x="287" y="286" on="0"/>
        <pt x="292" y="285" on="1"/>
        <pt x="294" y="280" on="0"/>
        <pt x="295" y="269" on="0"/>
      </contour>
      <contour>
        <pt x="193" y="281" on="1"/>
        <pt x="189" y="275" on="0"/>
        <pt x="181" y="263" on="0"/>
        <pt x="173" y="263" on="1"/>
        <pt x="166" y="263" on="0"/>
        <pt x="151" y="275" on="0"/>
        <pt x="151" y="282" on="1"/>
        <pt x="151" y="288" on="0"/>
        <pt x="161" y="303" on="0"/>
        <pt x="168" y="303" on="1"/>
        <pt x="173" y="303" on="0"/>
        <pt x="180" y="299" on="0"/>
        <pt x="185" y="298" on="1"/>
        <pt x="189" y="294" on="0"/>
        <pt x="190" y="286" on="0"/>
      </contour>
      <contour>
        <pt x="149" y="185" on="1"/>
        <pt x="149" y="176" on="0"/>
        <pt x="133" y="165" on="0"/>
        <pt x="125" y="163" on="1"/>
        <pt x="118" y="169" on="0"/>
        <pt x="108" y="172" on="1"/>
        <pt x="108" y="176" on="0"/>
        <pt x="106" y="181" on="0"/>
        <pt x="106" y="185" on="1"/>
        <pt x="106" y="190" on="0"/>
        <pt x="114" y="200" on="0"/>
        <pt x="117" y="203" on="1"/>
        <pt x="131" y="203" on="0"/>
        <pt x="142" y="199" on="1"/>
        <pt x="144" y="195" on="0"/>
        <pt x="146" y="189" on="0"/>
        <pt x="148" y="185" on="1"/>
      </contour>
      <contour>
        <pt x="107" y="83" on="1"/>
        <pt x="107" y="77" on="0"/>
        <pt x="95" y="66" on="0"/>
        <pt x="89" y="66" on="1"/>
        <pt x="85" y="66" on="0"/>
        <pt x="81" y="70" on="1"/>
        <pt x="76" y="72" on="0"/>
        <pt x="68" y="80" on="0"/>
        <pt x="68" y="85" on="1"/>
        <pt x="68" y="92" on="1"/>
        <pt x="71" y="95" on="0"/>
        <pt x="76" y="98" on="0"/>
        <pt x="77" y="103" on="1"/>
        <pt x="86" y="103" on="1"/>
        <pt x="91" y="103" on="0"/>
        <pt x="99" y="100" on="0"/>
        <pt x="103" y="98" on="1"/>
        <pt x="107" y="88" on="0"/>
      </contour>
      <contour>
        <pt x="78" y="5" on="1"/>
        <pt x="78" y="2" on="0"/>
        <pt x="76" y="-4" on="1"/>
        <pt x="73" y="-7" on="0"/>
        <pt x="67" y="-7" on="0"/>
        <pt x="67" y="-12" on="1"/>
        <pt x="56" y="-12" on="1"/>
        <pt x="48" y="-12" on="0"/>
        <pt x="35" y="-2" on="0"/>
        <pt x="35" y="6" on="1"/>
        <pt x="35" y="18" on="0"/>
        <pt x="47" y="28" on="1"/>
        <pt x="49" y="27" on="0"/>
        <pt x="55" y="25" on="0"/>
        <pt x="57" y="25" on="1"/>
        <pt x="59" y="25" on="0"/>
        <pt x="61" y="26" on="0"/>
        <pt x="63" y="26" on="1"/>
        <pt x="68" y="26" on="0"/>
        <pt x="74" y="21" on="0"/>
        <pt x="77" y="19" on="1"/>
        <pt x="77" y="15" on="0"/>
        <pt x="78" y="8" on="0"/>
      </contour>
    </TTGlyph>
    <TTGlyph name="AE" xMin="3" yMin="-15" xMax="985" yMax="753">
      <contour>
        <pt x="985" y="727" on="1"/>
        <pt x="983" y="723" on="0"/>
        <pt x="980" y="716" on="0"/>
        <pt x="978" y="712" on="1"/>
        <pt x="971" y="705" on="0"/>
        <pt x="961" y="705" on="1"/>
        <pt x="956" y="705" on="0"/>
        <pt x="948" y="710" on="0"/>
        <pt x="943" y="712" on="1"/>
        <pt x="943" y="713" on="0"/>
        <pt x="936" y="718" on="0"/>
        <pt x="940" y="722" on="1"/>
        <pt x="939" y="724" on="0"/>
        <pt x="938" y="728" on="0"/>
        <pt x="937" y="730" on="1"/>
        <pt x="941" y="735" on="0"/>
        <pt x="948" y="743" on="0"/>
        <pt x="950" y="748" on="1"/>
        <pt x="958" y="750" on="0"/>
        <pt x="961" y="750" on="1"/>
        <pt x="966" y="750" on="0"/>
        <pt x="976" y="746" on="0"/>
        <pt x="981" y="744" on="1"/>
        <pt x="983" y="739" on="0"/>
        <pt x="985" y="732" on="0"/>
      </contour>
      <contour>
        <pt x="880" y="720" on="1"/>
        <pt x="866" y="704" on="1"/>
        <pt x="856" y="704" on="0"/>
        <pt x="837" y="710" on="0"/>
        <pt x="833" y="721" on="1"/>
        <pt x="837" y="726" on="0"/>
        <pt x="835" y="736" on="0"/>
        <pt x="840" y="744" on="1"/>
        <pt x="847" y="744" on="0"/>
        <pt x="850" y="753" on="1"/>
        <pt x="859" y="747" on="0"/>
        <pt x="872" y="745" on="1"/>
      </contour>
      <contour>
        <pt x="772" y="729" on="1"/>
        <pt x="767" y="715" on="0"/>
        <pt x="758" y="706" on="1"/>
        <pt x="754" y="706" on="0"/>
        <pt x="747" y="705" on="0"/>
        <pt x="743" y="705" on="1"/>
        <pt x="739" y="705" on="0"/>
        <pt x="733" y="707" on="1"/>
        <pt x="727" y="723" on="0"/>
        <pt x="727" y="741" on="1"/>
        <pt x="732" y="743" on="0"/>
        <pt x="741" y="749" on="0"/>
        <pt x="746" y="749" on="1"/>
        <pt x="755" y="749" on="0"/>
        <pt x="769" y="737" on="0"/>
      </contour>
      <contour>
        <pt x="681" y="726" on="1"/>
        <pt x="681" y="720" on="0"/>
        <pt x="674" y="713" on="0"/>
        <pt x="671" y="708" on="1"/>
        <pt x="666" y="708" on="0"/>
        <pt x="660" y="704" on="0"/>
        <pt x="655" y="704" on="1"/>
        <pt x="653" y="704" on="0"/>
        <pt x="641" y="710" on="0"/>
        <pt x="639" y="712" on="1"/>
        <pt x="639" y="734" on="1"/>
        <pt x="639" y="736" on="0"/>
        <pt x="636" y="738" on="1"/>
        <pt x="641" y="743" on="0"/>
        <pt x="647" y="745" on="0"/>
        <pt x="647" y="752" on="1"/>
        <pt x="650" y="751" on="0"/>
        <pt x="656" y="749" on="0"/>
        <pt x="659" y="749" on="1"/>
        <pt x="667" y="748" on="0"/>
        <pt x="674" y="745" on="0"/>
        <pt x="676" y="741" on="0"/>
        <pt x="678" y="734" on="0"/>
        <pt x="681" y="730" on="1"/>
      </contour>
      <contour>
        <pt x="592" y="724" on="1"/>
        <pt x="584" y="722" on="0"/>
        <pt x="583" y="713" on="1"/>
        <pt x="578" y="709" on="0"/>
        <pt x="568" y="708" on="0"/>
        <pt x="562" y="707" on="1"/>
        <pt x="557" y="710" on="0"/>
        <pt x="553" y="714" on="0"/>
        <pt x="545" y="714" on="1"/>
        <pt x="548" y="732" on="1"/>
        <pt x="552" y="739" on="0"/>
        <pt x="557" y="743" on="0"/>
        <pt x="562" y="745" on="0"/>
        <pt x="568" y="745" on="0"/>
        <pt x="574" y="748" on="1"/>
        <pt x="582" y="743" on="0"/>
        <pt x="587" y="731" on="0"/>
      </contour>
      <contour>
        <pt x="927" y="319" on="1"/>
        <pt x="927" y="312" on="0"/>
        <pt x="920" y="307" on="1"/>
        <pt x="915" y="296" on="1"/>
        <pt x="913" y="297" on="0"/>
        <pt x="908" y="297" on="1"/>
        <pt x="903" y="297" on="0"/>
        <pt x="897" y="295" on="1"/>
        <pt x="893" y="299" on="0"/>
        <pt x="881" y="308" on="0"/>
        <pt x="881" y="314" on="1"/>
        <pt x="881" y="316" on="0"/>
        <pt x="882" y="321" on="0"/>
        <pt x="882" y="323" on="1"/>
        <pt x="879" y="326" on="1"/>
        <pt x="890" y="339" on="0"/>
        <pt x="905" y="339" on="1"/>
        <pt x="908" y="339" on="0"/>
        <pt x="913" y="338" on="0"/>
        <pt x="916" y="338" on="1"/>
        <pt x="927" y="331" on="0"/>
      </contour>
      <contour>
        <pt x="515" y="720" on="1"/>
        <pt x="515" y="715" on="0"/>
        <pt x="513" y="709" on="1"/>
        <pt x="507" y="707" on="0"/>
        <pt x="504" y="705" on="0"/>
        <pt x="500" y="701" on="1"/>
        <pt x="494" y="698" on="0"/>
        <pt x="488" y="698" on="1"/>
        <pt x="479" y="698" on="0"/>
        <pt x="472" y="710" on="0"/>
        <pt x="472" y="718" on="1"/>
        <pt x="472" y="728" on="0"/>
        <pt x="481" y="742" on="0"/>
        <pt x="492" y="742" on="1"/>
        <pt x="515" y="742" on="0"/>
      </contour>
      <contour>
        <pt x="590" y="630" on="1"/>
        <pt x="590" y="624" on="0"/>
        <pt x="584" y="614" on="0"/>
        <pt x="584" y="608" on="1"/>
        <pt x="579" y="607" on="0"/>
        <pt x="572" y="607" on="0"/>
        <pt x="568" y="603" on="1"/>
        <pt x="563" y="605" on="0"/>
        <pt x="553" y="609" on="0"/>
        <pt x="548" y="612" on="1"/>
        <pt x="545" y="618" on="0"/>
        <pt x="545" y="625" on="1"/>
        <pt x="545" y="630" on="0"/>
        <pt x="547" y="638" on="0"/>
        <pt x="549" y="643" on="1"/>
        <pt x="561" y="648" on="0"/>
        <pt x="571" y="648" on="1"/>
        <pt x="590" y="648" on="0"/>
      </contour>
      <contour>
        <pt x="844" y="318" on="1"/>
        <pt x="844" y="310" on="0"/>
        <pt x="838" y="302" on="0"/>
        <pt x="834" y="296" on="1"/>
        <pt x="828" y="296" on="1"/>
        <pt x="826" y="296" on="0"/>
        <pt x="821" y="295" on="0"/>
        <pt x="819" y="295" on="1"/>
        <pt x="814" y="295" on="1"/>
        <pt x="800" y="308" on="1"/>
        <pt x="801" y="321" on="0"/>
        <pt x="806" y="335" on="1"/>
        <pt x="813" y="340" on="0"/>
        <pt x="820" y="340" on="1"/>
        <pt x="824" y="340" on="0"/>
        <pt x="839" y="335" on="0"/>
        <pt x="842" y="332" on="1"/>
        <pt x="843" y="328" on="0"/>
        <pt x="844" y="322" on="0"/>
      </contour>
      <contour>
        <pt x="594" y="531" on="1"/>
        <pt x="592" y="521" on="0"/>
        <pt x="586" y="512" on="0"/>
        <pt x="576" y="507" on="0"/>
        <pt x="563" y="506" on="0"/>
        <pt x="555" y="504" on="1"/>
        <pt x="547" y="512" on="0"/>
        <pt x="545" y="523" on="0"/>
        <pt x="541" y="533" on="1"/>
        <pt x="546" y="538" on="0"/>
        <pt x="556" y="543" on="0"/>
        <pt x="560" y="548" on="1"/>
        <pt x="567" y="547" on="0"/>
        <pt x="579" y="545" on="0"/>
        <pt x="585" y="542" on="1"/>
        <pt x="588" y="537" on="0"/>
        <pt x="588" y="532" on="1"/>
        <pt x="589" y="531" on="0"/>
        <pt x="593" y="531" on="0"/>
      </contour>
      <contour>
        <pt x="453" y="628" on="1"/>
        <pt x="453" y="621" on="0"/>
        <pt x="445" y="609" on="0"/>
        <pt x="443" y="603" on="1"/>
        <pt x="437" y="606" on="1"/>
        <pt x="434" y="604" on="0"/>
        <pt x="430" y="602" on="0"/>
        <pt x="427" y="602" on="1"/>
        <pt x="410" y="609" on="1"/>
        <pt x="409" y="612" on="0"/>
        <pt x="407" y="618" on="0"/>
        <pt x="407" y="622" on="1"/>
        <pt x="407" y="625" on="0"/>
        <pt x="408" y="630" on="0"/>
        <pt x="408" y="633" on="1"/>
        <pt x="410" y="635" on="0"/>
        <pt x="419" y="640" on="0"/>
        <pt x="419" y="644" on="1"/>
        <pt x="419" y="652" on="0"/>
        <pt x="445" y="642" on="0"/>
        <pt x="451" y="635" on="1"/>
        <pt x="453" y="631" on="0"/>
      </contour>
      <contour>
        <pt x="743" y="318" on="1"/>
        <pt x="740" y="312" on="0"/>
        <pt x="733" y="301" on="0"/>
        <pt x="729" y="296" on="1"/>
        <pt x="721" y="296" on="1"/>
        <pt x="717" y="296" on="0"/>
        <pt x="710" y="298" on="0"/>
        <pt x="706" y="298" on="1"/>
        <pt x="697" y="307" on="0"/>
        <pt x="697" y="318" on="1"/>
        <pt x="697" y="321" on="0"/>
        <pt x="698" y="326" on="0"/>
        <pt x="698" y="328" on="1"/>
        <pt x="706" y="334" on="0"/>
        <pt x="712" y="339" on="0"/>
        <pt x="723" y="339" on="1"/>
        <pt x="732" y="339" on="0"/>
        <pt x="741" y="336" on="1"/>
        <pt x="741" y="331" on="0"/>
        <pt x="743" y="323" on="0"/>
      </contour>
      <contour>
        <pt x="590" y="410" on="1"/>
        <pt x="590" y="395" on="0"/>
        <pt x="570" y="389" on="0"/>
        <pt x="558" y="389" on="1"/>
        <pt x="552" y="395" on="0"/>
        <pt x="545" y="401" on="0"/>
        <pt x="545" y="411" on="1"/>
        <pt x="545" y="422" on="0"/>
        <pt x="561" y="432" on="0"/>
        <pt x="570" y="432" on="1"/>
        <pt x="572" y="432" on="0"/>
        <pt x="577" y="431" on="0"/>
        <pt x="579" y="431" on="1"/>
        <pt x="590" y="420" on="0"/>
      </contour>
      <contour>
        <pt x="972" y="12" on="1"/>
        <pt x="972" y="3" on="0"/>
        <pt x="963" y="-10" on="0"/>
        <pt x="956" y="-15" on="1"/>
        <pt x="951" y="-13" on="0"/>
        <pt x="941" y="-13" on="1"/>
        <pt x="937" y="-9" on="0"/>
        <pt x="934" y="-7" on="0"/>
        <pt x="929" y="-5" on="1"/>
        <pt x="929" y="-1" on="0"/>
        <pt x="926" y="5" on="0"/>
        <pt x="926" y="9" on="1"/>
        <pt x="926" y="11" on="0"/>
        <pt x="928" y="17" on="1"/>
        <pt x="933" y="19" on="0"/>
        <pt x="940" y="25" on="0"/>
        <pt x="944" y="29" on="1"/>
        <pt x="950" y="31" on="0"/>
        <pt x="952" y="31" on="1"/>
        <pt x="963" y="31" on="1"/>
        <pt x="972" y="22" on="0"/>
      </contour>
      <contour>
        <pt x="647" y="314" on="1"/>
        <pt x="645" y="309" on="0"/>
        <pt x="638" y="302" on="0"/>
        <pt x="638" y="297" on="1"/>
        <pt x="633" y="297" on="0"/>
        <pt x="623" y="295" on="0"/>
        <pt x="618" y="295" on="1"/>
        <pt x="612" y="295" on="0"/>
        <pt x="606" y="298" on="1"/>
        <pt x="604" y="303" on="0"/>
        <pt x="601" y="311" on="0"/>
        <pt x="601" y="316" on="1"/>
        <pt x="601" y="321" on="0"/>
        <pt x="606" y="329" on="0"/>
        <pt x="608" y="334" on="1"/>
        <pt x="613" y="336" on="0"/>
        <pt x="621" y="340" on="0"/>
        <pt x="626" y="340" on="1"/>
        <pt x="636" y="340" on="0"/>
        <pt x="638" y="333" on="0"/>
        <pt x="645" y="331" on="1"/>
        <pt x="645" y="324" on="1"/>
        <pt x="645" y="322" on="0"/>
        <pt x="647" y="316" on="0"/>
      </contour>
      <contour>
        <pt x="392" y="552" on="1"/>
        <pt x="391" y="551" on="0"/>
        <pt x="388" y="544" on="0"/>
        <pt x="388" y="543" on="1"/>
        <pt x="388" y="541" on="0"/>
        <pt x="391" y="535" on="0"/>
        <pt x="391" y="532" on="1"/>
        <pt x="391" y="529" on="0"/>
        <pt x="382" y="517" on="0"/>
        <pt x="380" y="515" on="1"/>
        <pt x="378" y="515" on="0"/>
        <pt x="372" y="514" on="0"/>
        <pt x="369" y="514" on="1"/>
        <pt x="356" y="514" on="0"/>
        <pt x="347" y="524" on="1"/>
        <pt x="346" y="532" on="0"/>
        <pt x="347" y="546" on="0"/>
        <pt x="345" y="553" on="1"/>
        <pt x="350" y="555" on="0"/>
        <pt x="358" y="557" on="0"/>
        <pt x="363" y="557" on="1"/>
        <pt x="371" y="557" on="0"/>
        <pt x="384" y="552" on="0"/>
      </contour>
      <contour>
        <pt x="886" y="8" on="1"/>
        <pt x="886" y="2" on="0"/>
        <pt x="883" y="-2" on="1"/>
        <pt x="878" y="-2" on="0"/>
        <pt x="877" y="-8" on="0"/>
        <pt x="874" y="-11" on="1"/>
        <pt x="869" y="-12" on="0"/>
        <pt x="860" y="-14" on="0"/>
        <pt x="855" y="-14" on="1"/>
        <pt x="851" y="-7" on="0"/>
        <pt x="846" y="-7" on="1"/>
        <pt x="841" y="3" on="0"/>
        <pt x="841" y="10" on="1"/>
        <pt x="841" y="13" on="0"/>
        <pt x="842" y="19" on="0"/>
        <pt x="842" y="21" on="1"/>
        <pt x="847" y="24" on="0"/>
        <pt x="860" y="31" on="0"/>
        <pt x="866" y="31" on="1"/>
        <pt x="871" y="31" on="0"/>
        <pt x="880" y="23" on="0"/>
        <pt x="885" y="21" on="1"/>
        <pt x="885" y="17" on="0"/>
        <pt x="886" y="11" on="0"/>
      </contour>
      <contour>
        <pt x="542" y="336" on="1"/>
        <pt x="545" y="330" on="1"/>
        <pt x="546" y="327" on="0"/>
        <pt x="548" y="319" on="0"/>
        <pt x="548" y="315" on="1"/>
        <pt x="548" y="310" on="0"/>
        <pt x="540" y="302" on="0"/>
        <pt x="538" y="299" on="1"/>
        <pt x="531" y="297" on="0"/>
        <pt x="519" y="297" on="0"/>
        <pt x="512" y="295" on="1"/>
        <pt x="509" y="299" on="0"/>
        <pt x="501" y="308" on="0"/>
        <pt x="501" y="313" on="1"/>
        <pt x="501" y="319" on="0"/>
        <pt x="505" y="330" on="0"/>
        <pt x="507" y="335" on="1"/>
        <pt x="516" y="337" on="0"/>
        <pt x="518" y="342" on="1"/>
        <pt x="523" y="340" on="0"/>
        <pt x="532" y="339" on="0"/>
        <pt x="535" y="338" on="1"/>
        <pt x="539" y="337" on="0"/>
      </contour>
      <contour>
        <pt x="591" y="222" on="1"/>
        <pt x="587" y="217" on="0"/>
        <pt x="576" y="214" on="0"/>
        <pt x="574" y="208" on="1"/>
        <pt x="569" y="208" on="0"/>
        <pt x="561" y="207" on="0"/>
        <pt x="556" y="206" on="1"/>
        <pt x="553" y="214" on="0"/>
        <pt x="545" y="230" on="0"/>
        <pt x="543" y="238" on="1"/>
        <pt x="549" y="243" on="0"/>
        <pt x="558" y="252" on="0"/>
        <pt x="566" y="252" on="1"/>
        <pt x="575" y="252" on="0"/>
        <pt x="579" y="250" on="1"/>
        <pt x="585" y="245" on="0"/>
        <pt x="588" y="238" on="0"/>
        <pt x="589" y="233" on="0"/>
        <pt x="589" y="227" on="0"/>
      </contour>
      <contour>
        <pt x="797" y="6" on="1"/>
        <pt x="792" y="0" on="0"/>
        <pt x="779" y="-14" on="0"/>
        <pt x="771" y="-14" on="1"/>
        <pt x="768" y="-14" on="0"/>
        <pt x="763" y="-13" on="0"/>
        <pt x="761" y="-13" on="1"/>
        <pt x="756" y="-8" on="0"/>
        <pt x="748" y="-3" on="0"/>
        <pt x="748" y="4" on="1"/>
        <pt x="748" y="9" on="0"/>
        <pt x="752" y="18" on="0"/>
        <pt x="753" y="23" on="1"/>
        <pt x="758" y="25" on="0"/>
        <pt x="768" y="31" on="0"/>
        <pt x="774" y="31" on="1"/>
        <pt x="779" y="31" on="1"/>
        <pt x="791" y="21" on="1"/>
        <pt x="793" y="17" on="0"/>
        <pt x="796" y="10" on="0"/>
      </contour>
      <contour>
        <pt x="458" y="325" on="1"/>
        <pt x="456" y="318" on="0"/>
        <pt x="451" y="306" on="0"/>
        <pt x="449" y="299" on="1"/>
        <pt x="444" y="299" on="0"/>
        <pt x="436" y="294" on="0"/>
        <pt x="431" y="294" on="1"/>
        <pt x="421" y="294" on="0"/>
        <pt x="412" y="308" on="0"/>
        <pt x="412" y="316" on="1"/>
        <pt x="412" y="319" on="0"/>
        <pt x="413" y="325" on="0"/>
        <pt x="413" y="328" on="1"/>
        <pt x="416" y="332" on="0"/>
        <pt x="424" y="337" on="0"/>
        <pt x="427" y="342" on="1"/>
        <pt x="434" y="339" on="0"/>
        <pt x="442" y="339" on="1"/>
        <pt x="446" y="334" on="0"/>
        <pt x="454" y="332" on="0"/>
      </contour>
      <contour>
        <pt x="328" y="443" on="1"/>
        <pt x="328" y="435" on="0"/>
        <pt x="315" y="428" on="0"/>
        <pt x="308" y="428" on="1"/>
        <pt x="294" y="428" on="0"/>
        <pt x="287" y="440" on="0"/>
        <pt x="283" y="451" on="1"/>
        <pt x="290" y="467" on="0"/>
        <pt x="306" y="467" on="1"/>
        <pt x="310" y="467" on="0"/>
        <pt x="316" y="465" on="0"/>
        <pt x="320" y="463" on="1"/>
        <pt x="321" y="458" on="0"/>
        <pt x="328" y="449" on="0"/>
      </contour>
      <contour>
        <pt x="591" y="124" on="1"/>
        <pt x="590" y="116" on="0"/>
        <pt x="584" y="104" on="0"/>
        <pt x="582" y="97" on="1"/>
        <pt x="570" y="97" on="1"/>
        <pt x="564" y="97" on="0"/>
        <pt x="552" y="100" on="0"/>
        <pt x="547" y="102" on="1"/>
        <pt x="546" y="106" on="0"/>
        <pt x="544" y="114" on="0"/>
        <pt x="544" y="118" on="1"/>
        <pt x="544" y="126" on="0"/>
        <pt x="550" y="135" on="0"/>
        <pt x="555" y="141" on="1"/>
        <pt x="568" y="141" on="1"/>
        <pt x="577" y="141" on="0"/>
        <pt x="587" y="132" on="0"/>
      </contour>
      <contour>
        <pt x="683" y="13" on="1"/>
        <pt x="683" y="2" on="0"/>
        <pt x="669" y="-14" on="0"/>
        <pt x="658" y="-14" on="1"/>
        <pt x="650" y="-14" on="0"/>
        <pt x="642" y="-9" on="1"/>
        <pt x="642" y="-4" on="0"/>
        <pt x="638" y="5" on="0"/>
        <pt x="638" y="10" on="1"/>
        <pt x="642" y="19" on="0"/>
        <pt x="650" y="28" on="0"/>
        <pt x="657" y="32" on="1"/>
        <pt x="666" y="27" on="0"/>
        <pt x="680" y="27" on="1"/>
        <pt x="681" y="23" on="0"/>
        <pt x="683" y="17" on="0"/>
      </contour>
      <contour>
        <pt x="354" y="329" on="1"/>
        <pt x="352" y="320" on="0"/>
        <pt x="347" y="305" on="0"/>
        <pt x="342" y="297" on="1"/>
        <pt x="338" y="297" on="0"/>
        <pt x="332" y="295" on="0"/>
        <pt x="328" y="295" on="1"/>
        <pt x="323" y="295" on="0"/>
        <pt x="315" y="300" on="0"/>
        <pt x="310" y="301" on="1"/>
        <pt x="309" y="304" on="0"/>
        <pt x="309" y="310" on="1"/>
        <pt x="309" y="325" on="1"/>
        <pt x="314" y="328" on="0"/>
        <pt x="318" y="332" on="0"/>
        <pt x="320" y="337" on="1"/>
        <pt x="328" y="339" on="0"/>
        <pt x="332" y="339" on="1"/>
        <pt x="340" y="339" on="0"/>
        <pt x="347" y="330" on="0"/>
      </contour>
      <contour>
        <pt x="276" y="368" on="1"/>
        <pt x="276" y="356" on="1"/>
        <pt x="276" y="351" on="1"/>
        <pt x="271" y="348" on="0"/>
        <pt x="263" y="340" on="0"/>
        <pt x="259" y="336" on="1"/>
        <pt x="247" y="336" on="0"/>
        <pt x="236" y="345" on="0"/>
        <pt x="231" y="356" on="1"/>
        <pt x="233" y="358" on="0"/>
        <pt x="236" y="367" on="0"/>
        <pt x="237" y="369" on="1"/>
        <pt x="239" y="372" on="0"/>
        <pt x="246" y="379" on="0"/>
        <pt x="248" y="381" on="1"/>
        <pt x="264" y="379" on="0"/>
      </contour>
      <contour>
        <pt x="587" y="9" on="1"/>
        <pt x="587" y="1" on="0"/>
        <pt x="577" y="-3" on="1"/>
        <pt x="575" y="-11" on="0"/>
        <pt x="562" y="-12" on="0"/>
        <pt x="556" y="-15" on="1"/>
        <pt x="550" y="-12" on="0"/>
        <pt x="538" y="-3" on="0"/>
        <pt x="538" y="5" on="1"/>
        <pt x="538" y="10" on="0"/>
        <pt x="543" y="21" on="0"/>
        <pt x="545" y="26" on="1"/>
        <pt x="550" y="28" on="0"/>
        <pt x="558" y="30" on="0"/>
        <pt x="563" y="30" on="1"/>
        <pt x="568" y="30" on="0"/>
        <pt x="578" y="28" on="1"/>
        <pt x="578" y="19" on="0"/>
        <pt x="583" y="16" on="0"/>
      </contour>
      <contour>
        <pt x="217" y="272" on="1"/>
        <pt x="217" y="265" on="0"/>
        <pt x="211" y="254" on="0"/>
        <pt x="207" y="249" on="1"/>
        <pt x="205" y="251" on="0"/>
        <pt x="203" y="252" on="1"/>
        <pt x="201" y="250" on="0"/>
        <pt x="197" y="248" on="0"/>
        <pt x="194" y="248" on="1"/>
        <pt x="189" y="248" on="0"/>
        <pt x="182" y="250" on="0"/>
        <pt x="177" y="252" on="1"/>
        <pt x="175" y="256" on="0"/>
        <pt x="173" y="265" on="0"/>
        <pt x="172" y="269" on="1"/>
        <pt x="171" y="273" on="0"/>
        <pt x="171" y="278" on="1"/>
        <pt x="176" y="281" on="0"/>
        <pt x="180" y="284" on="1"/>
        <pt x="184" y="286" on="0"/>
        <pt x="192" y="291" on="0"/>
        <pt x="196" y="291" on="1"/>
        <pt x="202" y="291" on="0"/>
        <pt x="210" y="286" on="0"/>
        <pt x="215" y="283" on="1"/>
        <pt x="217" y="277" on="0"/>
      </contour>
      <contour>
        <pt x="159" y="183" on="1"/>
        <pt x="159" y="176" on="0"/>
        <pt x="150" y="166" on="0"/>
        <pt x="148" y="161" on="1"/>
        <pt x="145" y="161" on="0"/>
        <pt x="138" y="159" on="0"/>
        <pt x="135" y="159" on="1"/>
        <pt x="130" y="159" on="1"/>
        <pt x="125" y="162" on="0"/>
        <pt x="113" y="171" on="0"/>
        <pt x="113" y="177" on="1"/>
        <pt x="113" y="179" on="0"/>
        <pt x="114" y="181" on="0"/>
        <pt x="114" y="183" on="1"/>
        <pt x="116" y="194" on="0"/>
        <pt x="125" y="199" on="0"/>
        <pt x="133" y="204" on="1"/>
        <pt x="137" y="201" on="0"/>
        <pt x="146" y="199" on="0"/>
        <pt x="154" y="197" on="0"/>
        <pt x="159" y="190" on="0"/>
      </contour>
      <contour>
        <pt x="103" y="87" on="1"/>
        <pt x="96" y="82" on="0"/>
        <pt x="92" y="79" on="0"/>
        <pt x="91" y="71" on="1"/>
        <pt x="81" y="71" on="1"/>
        <pt x="78" y="71" on="0"/>
        <pt x="72" y="70" on="0"/>
        <pt x="69" y="70" on="1"/>
        <pt x="66" y="72" on="0"/>
        <pt x="60" y="78" on="0"/>
        <pt x="56" y="80" on="1"/>
        <pt x="56" y="90" on="1"/>
        <pt x="56" y="103" on="0"/>
        <pt x="63" y="110" on="1"/>
        <pt x="68" y="110" on="0"/>
        <pt x="74" y="114" on="0"/>
        <pt x="79" y="114" on="1"/>
        <pt x="83" y="114" on="1"/>
        <pt x="88" y="110" on="0"/>
        <pt x="89" y="105" on="0"/>
        <pt x="97" y="105" on="1"/>
        <pt x="99" y="98" on="0"/>
        <pt x="99" y="92" on="0"/>
      </contour>
      <contour>
        <pt x="49" y="14" on="1"/>
        <pt x="49" y="8" on="0"/>
        <pt x="47" y="-4" on="0"/>
        <pt x="43" y="-9" on="1"/>
        <pt x="38" y="-10" on="0"/>
        <pt x="30" y="-10" on="0"/>
        <pt x="27" y="-13" on="1"/>
        <pt x="18" y="-12" on="0"/>
        <pt x="10" y="-4" on="0"/>
        <pt x="3" y="1" on="1"/>
        <pt x="8" y="6" on="0"/>
        <pt x="9" y="10" on="1"/>
        <pt x="8" y="12" on="0"/>
        <pt x="7" y="16" on="0"/>
        <pt x="6" y="18" on="1"/>
        <pt x="11" y="22" on="0"/>
        <pt x="22" y="30" on="0"/>
        <pt x="29" y="32" on="1"/>
        <pt x="40" y="28" on="0"/>
      </contour>
    </TTGlyph>
    <TTGlyph name="Aacute" xMin="35" yMin="-14" xMax="678" yMax="943">
      <component glyphName="A" x="0" y="0" flags="0x204"/>
      <component glyphName="acute" x="-30" y="195" flags="0x4"/>
    </TTGlyph>
    <TTGlyph name="Acircumflex" xMin="35" yMin="-14" xMax="678" yMax="945">
      <component glyphName="A" x="0" y="0" flags="0x204"/>
      <component glyphName="circumflex" x="-36" y="197" flags="0x4"/>
    </TTGlyph>
    <TTGlyph name="Adieresis" xMin="35" yMin="-14" xMax="678" yMax="947">
      <component glyphName="A" x="0" y="0" flags="0x204"/>
      <component glyphName="dieresis" x="-33" y="196" flags="0x4"/>
    </TTGlyph>
    <TTGlyph name="Agrave" xMin="35" yMin="-14" xMax="678" yMax="953">
      <component glyphName="A" x="0" y="0" flags="0x204"/>
      <component glyphName="grave" x="-60" y="205" flags="0x4"/>
    </TTGlyph>
    <TTGlyph name="Aring" xMin="35" yMin="-14" xMax="678" yMax="862">
      <contour>
        <pt x="417" y="847" on="1"/>
        <pt x="416" y="829" on="1"/>
        <pt x="410" y="827" on="0"/>
        <pt x="399" y="821" on="0"/>
        <pt x="394" y="821" on="1"/>
        <pt x="383" y="821" on="0"/>
        <pt x="379" y="836" on="0"/>
        <pt x="371" y="838" on="1"/>
        <pt x="374" y="844" on="0"/>
        <pt x="382" y="855" on="0"/>
        <pt x="384" y="862" on="1"/>
        <pt x="391" y="862" on="1"/>
        <pt x="393" y="862" on="0"/>
        <pt x="397" y="861" on="0"/>
        <pt x="399" y="861" on="1"/>
        <pt x="406" y="859" on="0"/>
        <pt x="413" y="851" on="0"/>
      </contour>
      <contour>
        <pt x="453" y="802" on="1"/>
        <pt x="453" y="797" on="0"/>
        <pt x="446" y="787" on="0"/>
        <pt x="443" y="782" on="1"/>
        <pt x="437" y="780" on="0"/>
        <pt x="434" y="780" on="1"/>
        <pt x="424" y="780" on="0"/>
        <pt x="415" y="787" on="1"/>
        <pt x="413" y="792" on="0"/>
        <pt x="411" y="802" on="0"/>
        <pt x="411" y="807" on="1"/>
        <pt x="413" y="812" on="0"/>
        <pt x="421" y="817" on="0"/>
        <pt x="423" y="821" on="1"/>
        <pt x="429" y="821" on="1"/>
        <pt x="432" y="821" on="0"/>
        <pt x="438" y="820" on="0"/>
        <pt x="441" y="820" on="1"/>
        <pt x="444" y="817" on="0"/>
        <pt x="453" y="807" on="0"/>
      </contour>
      <contour>
        <pt x="364" y="833" on="1"/>
        <pt x="352" y="821" on="0"/>
        <pt x="337" y="820" on="1"/>
        <pt x="333" y="824" on="0"/>
        <pt x="324" y="833" on="0"/>
        <pt x="324" y="839" on="1"/>
        <pt x="324" y="846" on="0"/>
        <pt x="334" y="860" on="0"/>
        <pt x="342" y="860" on="1"/>
        <pt x="353" y="860" on="0"/>
        <pt x="363" y="843" on="0"/>
      </contour>
      <contour>
        <pt x="441" y="748" on="1"/>
        <pt x="441" y="740" on="0"/>
        <pt x="428" y="729" on="0"/>
        <pt x="420" y="729" on="1"/>
        <pt x="417" y="729" on="0"/>
        <pt x="411" y="731" on="1"/>
        <pt x="407" y="736" on="0"/>
        <pt x="402" y="742" on="0"/>
        <pt x="402" y="750" on="1"/>
        <pt x="402" y="754" on="0"/>
        <pt x="403" y="760" on="0"/>
        <pt x="404" y="764" on="1"/>
        <pt x="414" y="769" on="0"/>
        <pt x="421" y="769" on="1"/>
        <pt x="430" y="769" on="0"/>
        <pt x="436" y="763" on="1"/>
        <pt x="436" y="759" on="0"/>
        <pt x="441" y="753" on="0"/>
      </contour>
      <contour>
        <pt x="331" y="787" on="1"/>
        <pt x="324" y="785" on="0"/>
        <pt x="312" y="782" on="0"/>
        <pt x="304" y="782" on="1"/>
        <pt x="299" y="782" on="0"/>
        <pt x="294" y="791" on="0"/>
        <pt x="291" y="793" on="1"/>
        <pt x="291" y="804" on="1"/>
        <pt x="291" y="814" on="0"/>
        <pt x="300" y="819" on="0"/>
        <pt x="305" y="824" on="1"/>
        <pt x="310" y="824" on="0"/>
        <pt x="320" y="820" on="0"/>
        <pt x="325" y="820" on="1"/>
        <pt x="329" y="813" on="0"/>
        <pt x="329" y="806" on="0"/>
        <pt x="329" y="798" on="1"/>
        <pt x="329" y="795" on="0"/>
        <pt x="330" y="790" on="0"/>
      </contour>
      <contour>
        <pt x="390" y="732" on="1"/>
        <pt x="390" y="724" on="0"/>
        <pt x="384" y="714" on="0"/>
        <pt x="382" y="706" on="1"/>
        <pt x="366" y="706" on="1"/>
        <pt x="360" y="710" on="0"/>
        <pt x="350" y="712" on="0"/>
        <pt x="350" y="721" on="1"/>
        <pt x="350" y="725" on="0"/>
        <pt x="352" y="732" on="0"/>
        <pt x="352" y="735" on="1"/>
        <pt x="358" y="744" on="0"/>
        <pt x="369" y="744" on="1"/>
        <pt x="373" y="744" on="0"/>
        <pt x="381" y="742" on="1"/>
        <pt x="383" y="738" on="0"/>
        <pt x="385" y="734" on="0"/>
      </contour>
      <contour>
        <pt x="341" y="756" on="1"/>
        <pt x="341" y="747" on="0"/>
        <pt x="327" y="734" on="0"/>
        <pt x="318" y="734" on="1"/>
        <pt x="313" y="734" on="0"/>
        <pt x="306" y="736" on="0"/>
        <pt x="301" y="736" on="1"/>
        <pt x="296" y="743" on="0"/>
        <pt x="299" y="749" on="0"/>
        <pt x="294" y="754" on="1"/>
        <pt x="296" y="758" on="0"/>
        <pt x="301" y="765" on="0"/>
        <pt x="305" y="769" on="1"/>
        <pt x="330" y="772" on="1"/>
        <pt x="334" y="767" on="0"/>
        <pt x="341" y="763" on="0"/>
      </contour>
      <contour>
        <pt x="446" y="635" on="1"/>
        <pt x="444" y="631" on="0"/>
        <pt x="434" y="620" on="0"/>
        <pt x="433" y="617" on="1"/>
        <pt x="428" y="615" on="1"/>
        <pt x="420" y="615" on="0"/>
        <pt x="410" y="621" on="0"/>
        <pt x="403" y="626" on="1"/>
        <pt x="405" y="634" on="0"/>
        <pt x="410" y="653" on="0"/>
        <pt x="421" y="653" on="1"/>
        <pt x="431" y="653" on="0"/>
        <pt x="444" y="646" on="0"/>
      </contour>
      <contour>
        <pt x="492" y="506" on="1"/>
        <pt x="480" y="492" on="1"/>
        <pt x="474" y="490" on="0"/>
        <pt x="472" y="490" on="1"/>
        <pt x="467" y="490" on="0"/>
        <pt x="458" y="494" on="0"/>
        <pt x="453" y="496" on="1"/>
        <pt x="452" y="499" on="0"/>
        <pt x="450" y="505" on="0"/>
        <pt x="450" y="509" on="1"/>
        <pt x="450" y="510" on="0"/>
        <pt x="452" y="516" on="1"/>
        <pt x="462" y="526" on="0"/>
        <pt x="478" y="526" on="1"/>
        <pt x="486" y="518" on="0"/>
      </contour>
      <contour>
        <pt x="342" y="616" on="1"/>
        <pt x="342" y="608" on="0"/>
        <pt x="328" y="597" on="0"/>
        <pt x="320" y="597" on="1"/>
        <pt x="316" y="597" on="0"/>
        <pt x="312" y="599" on="1"/>
        <pt x="310" y="598" on="0"/>
        <pt x="306" y="597" on="0"/>
        <pt x="304" y="596" on="1"/>
        <pt x="303" y="602" on="0"/>
        <pt x="300" y="615" on="0"/>
        <pt x="300" y="621" on="1"/>
        <pt x="300" y="627" on="0"/>
        <pt x="307" y="632" on="0"/>
        <pt x="311" y="637" on="1"/>
        <pt x="316" y="637" on="0"/>
        <pt x="328" y="636" on="0"/>
        <pt x="333" y="636" on="1"/>
        <pt x="335" y="631" on="0"/>
        <pt x="342" y="622" on="0"/>
      </contour>
      <contour>
        <pt x="539" y="399" on="1"/>
        <pt x="539" y="395" on="0"/>
        <pt x="536" y="387" on="0"/>
        <pt x="536" y="383" on="1"/>
        <pt x="531" y="382" on="0"/>
        <pt x="523" y="377" on="0"/>
        <pt x="518" y="377" on="1"/>
        <pt x="513" y="377" on="0"/>
        <pt x="503" y="384" on="0"/>
        <pt x="498" y="385" on="1"/>
        <pt x="498" y="387" on="0"/>
        <pt x="500" y="390" on="0"/>
        <pt x="500" y="392" on="1"/>
        <pt x="500" y="394" on="0"/>
        <pt x="498" y="399" on="0"/>
        <pt x="497" y="401" on="1"/>
        <pt x="502" y="407" on="0"/>
        <pt x="514" y="418" on="0"/>
        <pt x="522" y="418" on="1"/>
        <pt x="529" y="418" on="0"/>
        <pt x="539" y="406" on="0"/>
      </contour>
      <contour>
        <pt x="570" y="287" on="1"/>
        <pt x="570" y="274" on="0"/>
        <pt x="555" y="271" on="0"/>
        <pt x="546" y="266" on="1"/>
        <pt x="542" y="270" on="0"/>
        <pt x="534" y="274" on="0"/>
        <pt x="531" y="279" on="1"/>
        <pt x="530" y="284" on="0"/>
        <pt x="528" y="295" on="0"/>
        <pt x="526" y="300" on="1"/>
        <pt x="532" y="303" on="0"/>
        <pt x="545" y="308" on="0"/>
        <pt x="553" y="308" on="1"/>
        <pt x="563" y="308" on="0"/>
        <pt x="570" y="296" on="0"/>
      </contour>
      <contour>
        <pt x="613" y="207" on="1"/>
        <pt x="613" y="199" on="0"/>
        <pt x="610" y="190" on="1"/>
        <pt x="605" y="188" on="0"/>
        <pt x="595" y="185" on="0"/>
        <pt x="590" y="185" on="1"/>
        <pt x="573" y="185" on="0"/>
        <pt x="573" y="202" on="1"/>
        <pt x="573" y="205" on="0"/>
        <pt x="574" y="210" on="0"/>
        <pt x="574" y="212" on="1"/>
        <pt x="584" y="224" on="1"/>
        <pt x="589" y="222" on="0"/>
        <pt x="598" y="222" on="0"/>
        <pt x="603" y="221" on="1"/>
        <pt x="610" y="214" on="0"/>
      </contour>
      <contour>
        <pt x="289" y="505" on="1"/>
        <pt x="283" y="499" on="0"/>
        <pt x="268" y="489" on="0"/>
        <pt x="259" y="489" on="1"/>
        <pt x="254" y="489" on="0"/>
        <pt x="248" y="495" on="1"/>
        <pt x="245" y="502" on="0"/>
        <pt x="245" y="510" on="1"/>
        <pt x="245" y="513" on="0"/>
        <pt x="247" y="519" on="0"/>
        <pt x="247" y="522" on="1"/>
        <pt x="251" y="524" on="0"/>
        <pt x="258" y="529" on="0"/>
        <pt x="263" y="529" on="1"/>
        <pt x="267" y="529" on="0"/>
        <pt x="270" y="526" on="1"/>
        <pt x="274" y="526" on="0"/>
        <pt x="280" y="524" on="0"/>
        <pt x="283" y="524" on="1"/>
        <pt x="285" y="518" on="0"/>
        <pt x="286" y="510" on="0"/>
      </contour>
      <contour>
        <pt x="472" y="267" on="1"/>
        <pt x="472" y="257" on="0"/>
        <pt x="463" y="251" on="1"/>
        <pt x="455" y="250" on="0"/>
        <pt x="444" y="245" on="1"/>
        <pt x="428" y="256" on="1"/>
        <pt x="430" y="260" on="0"/>
        <pt x="429" y="267" on="0"/>
        <pt x="429" y="272" on="1"/>
        <pt x="434" y="281" on="0"/>
        <pt x="440" y="287" on="0"/>
        <pt x="445" y="288" on="0"/>
        <pt x="450" y="289" on="0"/>
        <pt x="453" y="292" on="1"/>
        <pt x="468" y="284" on="1"/>
        <pt x="468" y="279" on="1"/>
        <pt x="468" y="276" on="0"/>
        <pt x="472" y="271" on="0"/>
      </contour>
      <contour>
        <pt x="643" y="99" on="1"/>
        <pt x="640" y="88" on="0"/>
        <pt x="627" y="77" on="0"/>
        <pt x="616" y="74" on="1"/>
        <pt x="611" y="79" on="0"/>
        <pt x="602" y="86" on="0"/>
        <pt x="598" y="91" on="1"/>
        <pt x="599" y="95" on="0"/>
        <pt x="601" y="102" on="0"/>
        <pt x="601" y="107" on="1"/>
        <pt x="606" y="109" on="0"/>
        <pt x="610" y="115" on="0"/>
        <pt x="614" y="118" on="1"/>
        <pt x="620" y="116" on="0"/>
        <pt x="632" y="114" on="0"/>
        <pt x="638" y="111" on="1"/>
        <pt x="638" y="106" on="0"/>
        <pt x="639" y="104" on="1"/>
      </contour>
      <contour>
        <pt x="678" y="-2" on="1"/>
        <pt x="676" y="-6" on="0"/>
        <pt x="669" y="-12" on="0"/>
        <pt x="666" y="-14" on="1"/>
        <pt x="658" y="-12" on="0"/>
        <pt x="646" y="-12" on="0"/>
        <pt x="641" y="-11" on="1"/>
        <pt x="640" y="-6" on="0"/>
        <pt x="637" y="4" on="0"/>
        <pt x="637" y="9" on="1"/>
        <pt x="637" y="15" on="0"/>
        <pt x="651" y="23" on="0"/>
        <pt x="657" y="23" on="1"/>
        <pt x="665" y="23" on="0"/>
        <pt x="674" y="20" on="1"/>
        <pt x="676" y="15" on="0"/>
        <pt x="677" y="4" on="0"/>
      </contour>
      <contour>
        <pt x="385" y="273" on="1"/>
        <pt x="385" y="268" on="0"/>
        <pt x="384" y="260" on="0"/>
        <pt x="384" y="255" on="1"/>
        <pt x="379" y="252" on="1"/>
        <pt x="368" y="248" on="0"/>
        <pt x="355" y="248" on="1"/>
        <pt x="347" y="256" on="0"/>
        <pt x="347" y="267" on="0"/>
        <pt x="345" y="277" on="1"/>
        <pt x="356" y="288" on="0"/>
        <pt x="369" y="288" on="1"/>
        <pt x="376" y="288" on="1"/>
        <pt x="378" y="284" on="0"/>
        <pt x="382" y="276" on="0"/>
      </contour>
      <contour>
        <pt x="236" y="380" on="1"/>
        <pt x="231" y="377" on="0"/>
        <pt x="220" y="370" on="0"/>
        <pt x="214" y="370" on="1"/>
        <pt x="206" y="375" on="0"/>
        <pt x="196" y="383" on="0"/>
        <pt x="196" y="392" on="1"/>
        <pt x="194" y="398" on="1"/>
        <pt x="205" y="405" on="0"/>
        <pt x="214" y="405" on="0"/>
        <pt x="225" y="406" on="1"/>
        <pt x="229" y="404" on="1"/>
        <pt x="234" y="399" on="0"/>
        <pt x="234" y="386" on="0"/>
      </contour>
      <contour>
        <pt x="298" y="264" on="1"/>
        <pt x="287" y="250" on="1"/>
        <pt x="283" y="248" on="0"/>
        <pt x="279" y="248" on="1"/>
        <pt x="275" y="248" on="0"/>
        <pt x="268" y="250" on="0"/>
        <pt x="264" y="251" on="1"/>
        <pt x="262" y="255" on="0"/>
        <pt x="260" y="262" on="0"/>
        <pt x="255" y="264" on="1"/>
        <pt x="257" y="273" on="0"/>
        <pt x="265" y="282" on="0"/>
        <pt x="272" y="288" on="1"/>
        <pt x="277" y="286" on="0"/>
        <pt x="287" y="286" on="0"/>
        <pt x="292" y="285" on="1"/>
        <pt x="294" y="280" on="0"/>
        <pt x="295" y="269" on="0"/>
      </contour>
      <contour>
        <pt x="193" y="281" on="1"/>
        <pt x="189" y="275" on="0"/>
        <pt x="181" y="263" on="0"/>
        <pt x="173" y="263" on="1"/>
        <pt x="166" y="263" on="0"/>
        <pt x="151" y="275" on="0"/>
        <pt x="151" y="282" on="1"/>
        <pt x="151" y="288" on="0"/>
        <pt x="161" y="303" on="0"/>
        <pt x="168" y="303" on="1"/>
        <pt x="173" y="303" on="0"/>
        <pt x="180" y="299" on="0"/>
        <pt x="185" y="298" on="1"/>
        <pt x="189" y="294" on="0"/>
        <pt x="190" y="286" on="0"/>
      </contour>
      <contour>
        <pt x="149" y="185" on="1"/>
        <pt x="149" y="176" on="0"/>
        <pt x="133" y="165" on="0"/>
        <pt x="125" y="163" on="1"/>
        <pt x="118" y="169" on="0"/>
        <pt x="108" y="172" on="1"/>
        <pt x="108" y="176" on="0"/>
        <pt x="106" y="181" on="0"/>
        <pt x="106" y="185" on="1"/>
        <pt x="106" y="190" on="0"/>
        <pt x="114" y="200" on="0"/>
        <pt x="117" y="203" on="1"/>
        <pt x="131" y="203" on="0"/>
        <pt x="142" y="199" on="1"/>
        <pt x="144" y="195" on="0"/>
        <pt x="146" y="189" on="0"/>
        <pt x="148" y="185" on="1"/>
      </contour>
      <contour>
        <pt x="107" y="83" on="1"/>
        <pt x="107" y="77" on="0"/>
        <pt x="95" y="66" on="0"/>
        <pt x="89" y="66" on="1"/>
        <pt x="85" y="66" on="0"/>
        <pt x="81" y="70" on="1"/>
        <pt x="76" y="72" on="0"/>
        <pt x="68" y="80" on="0"/>
        <pt x="68" y="85" on="1"/>
        <pt x="68" y="92" on="1"/>
        <pt x="71" y="95" on="0"/>
        <pt x="76" y="98" on="0"/>
        <pt x="77" y="103" on="1"/>
        <pt x="86" y="103" on="1"/>
        <pt x="91" y="103" on="0"/>
        <pt x="99" y="100" on="0"/>
        <pt x="103" y="98" on="1"/>
        <pt x="107" y="88" on="0"/>
      </contour>
      <contour>
        <pt x="78" y="5" on="1"/>
        <pt x="78" y="2" on="0"/>
        <pt x="76" y="-4" on="1"/>
        <pt x="73" y="-7" on="0"/>
        <pt x="67" y="-7" on="0"/>
        <pt x="67" y="-12" on="1"/>
        <pt x="56" y="-12" on="1"/>
        <pt x="48" y="-12" on="0"/>
        <pt x="35" y="-2" on="0"/>
        <pt x="35" y="6" on="1"/>
        <pt x="35" y="18" on="0"/>
        <pt x="47" y="28" on="1"/>
        <pt x="49" y="27" on="0"/>
        <pt x="55" y="25" on="0"/>
        <pt x="57" y="25" on="1"/>
        <pt x="59" y="25" on="0"/>
        <pt x="61" y="26" on="0"/>
        <pt x="63" y="26" on="1"/>
        <pt x="68" y="26" on="0"/>
        <pt x="74" y="21" on="0"/>
        <pt x="77" y="19" on="1"/>
        <pt x="77" y="15" on="0"/>
        <pt x="78" y="8" on="0"/>
      </contour>
    </TTGlyph>
    <TTGlyph name="Atilde" xMin="35" yMin="-14" xMax="678" yMax="927">
      <component glyphName="A" x="0" y="0" flags="0x204"/>
      <component glyphName="tilde" x="-30" y="215" flags="0x4"/>
    </TTGlyph>
    <TTGlyph name="B" xMin="87" yMin="-16" xMax="623" yMax="748">
      <contour>
        <pt x="544" y="677" on="1"/>
        <pt x="540" y="672" on="0"/>
        <pt x="532" y="660" on="0"/>
        <pt x="524" y="660" on="1"/>
        <pt x="505" y="660" on="0"/>
        <pt x="505" y="679" on="1"/>
        <pt x="505" y="685" on="1"/>
        <pt x="508" y="691" on="0"/>
        <pt x="518" y="696" on="0"/>
        <pt x="523" y="699" on="1"/>
        <pt x="531" y="697" on="0"/>
        <pt x="544" y="686" on="0"/>
      </contour>
      <contour>
        <pt x="582" y="625" on="1"/>
        <pt x="583" y="622" on="0"/>
        <pt x="585" y="619" on="1"/>
        <pt x="586" y="617" on="0"/>
        <pt x="588" y="612" on="0"/>
        <pt x="587" y="610" on="1"/>
        <pt x="590" y="607" on="0"/>
        <pt x="590" y="602" on="1"/>
        <pt x="585" y="594" on="0"/>
        <pt x="580" y="592" on="0"/>
        <pt x="572" y="588" on="1"/>
        <pt x="567" y="588" on="0"/>
        <pt x="559" y="592" on="0"/>
        <pt x="554" y="592" on="1"/>
        <pt x="551" y="601" on="0"/>
        <pt x="551" y="609" on="1"/>
        <pt x="551" y="616" on="0"/>
        <pt x="552" y="619" on="1"/>
        <pt x="559" y="620" on="0"/>
        <pt x="562" y="628" on="1"/>
        <pt x="567" y="627" on="0"/>
        <pt x="573" y="626" on="0"/>
        <pt x="576" y="626" on="1"/>
        <pt x="579" y="625" on="0"/>
      </contour>
      <contour>
        <pt x="473" y="719" on="1"/>
        <pt x="470" y="707" on="1"/>
        <pt x="470" y="704" on="0"/>
        <pt x="472" y="700" on="1"/>
        <pt x="467" y="696" on="0"/>
        <pt x="456" y="690" on="0"/>
        <pt x="449" y="690" on="1"/>
        <pt x="442" y="690" on="0"/>
        <pt x="437" y="695" on="1"/>
        <pt x="434" y="702" on="0"/>
        <pt x="434" y="711" on="1"/>
        <pt x="434" y="729" on="0"/>
        <pt x="451" y="729" on="1"/>
        <pt x="457" y="729" on="0"/>
        <pt x="468" y="722" on="0"/>
      </contour>
      <contour>
        <pt x="590" y="537" on="1"/>
        <pt x="590" y="530" on="1"/>
        <pt x="590" y="526" on="0"/>
        <pt x="588" y="518" on="1"/>
        <pt x="577" y="511" on="0"/>
        <pt x="568" y="511" on="1"/>
        <pt x="560" y="511" on="0"/>
        <pt x="552" y="521" on="0"/>
        <pt x="547" y="527" on="1"/>
        <pt x="556" y="543" on="1"/>
        <pt x="566" y="547" on="0"/>
        <pt x="573" y="547" on="1"/>
        <pt x="578" y="547" on="0"/>
        <pt x="581" y="544" on="1"/>
      </contour>
      <contour>
        <pt x="388" y="731" on="1"/>
        <pt x="388" y="719" on="0"/>
        <pt x="382" y="715" on="0"/>
        <pt x="380" y="707" on="1"/>
        <pt x="375" y="707" on="0"/>
        <pt x="367" y="708" on="0"/>
        <pt x="363" y="710" on="1"/>
        <pt x="349" y="717" on="0"/>
        <pt x="349" y="727" on="1"/>
        <pt x="349" y="735" on="0"/>
        <pt x="351" y="737" on="0"/>
        <pt x="357" y="746" on="1"/>
        <pt x="367" y="746" on="0"/>
        <pt x="374" y="744" on="0"/>
        <pt x="378" y="740" on="0"/>
        <pt x="382" y="735" on="0"/>
      </contour>
      <contour>
        <pt x="292" y="729" on="1"/>
        <pt x="291" y="719" on="0"/>
        <pt x="281" y="714" on="1"/>
        <pt x="273" y="714" on="1"/>
        <pt x="272" y="714" on="0"/>
        <pt x="270" y="710" on="0"/>
        <pt x="269" y="710" on="1"/>
        <pt x="265" y="714" on="0"/>
        <pt x="253" y="727" on="0"/>
        <pt x="253" y="733" on="1"/>
        <pt x="253" y="748" on="0"/>
        <pt x="268" y="748" on="1"/>
        <pt x="273" y="748" on="0"/>
        <pt x="283" y="744" on="0"/>
        <pt x="288" y="742" on="1"/>
        <pt x="288" y="736" on="0"/>
        <pt x="290" y="734" on="0"/>
      </contour>
      <contour>
        <pt x="559" y="448" on="1"/>
        <pt x="559" y="443" on="0"/>
        <pt x="549" y="425" on="0"/>
        <pt x="543" y="425" on="1"/>
        <pt x="537" y="425" on="0"/>
        <pt x="522" y="438" on="0"/>
        <pt x="522" y="445" on="1"/>
        <pt x="522" y="452" on="0"/>
        <pt x="535" y="466" on="0"/>
        <pt x="543" y="466" on="1"/>
        <pt x="551" y="466" on="0"/>
        <pt x="554" y="460" on="0"/>
        <pt x="559" y="455" on="1"/>
      </contour>
      <contour>
        <pt x="212" y="731" on="1"/>
        <pt x="212" y="726" on="0"/>
        <pt x="209" y="717" on="0"/>
        <pt x="208" y="712" on="1"/>
        <pt x="202" y="712" on="0"/>
        <pt x="190" y="709" on="0"/>
        <pt x="184" y="709" on="1"/>
        <pt x="182" y="714" on="0"/>
        <pt x="173" y="724" on="0"/>
        <pt x="173" y="729" on="1"/>
        <pt x="175" y="734" on="0"/>
        <pt x="178" y="738" on="0"/>
        <pt x="181" y="740" on="0"/>
        <pt x="185" y="743" on="0"/>
        <pt x="188" y="746" on="1"/>
        <pt x="193" y="746" on="0"/>
        <pt x="201" y="743" on="0"/>
        <pt x="206" y="743" on="1"/>
        <pt x="212" y="737" on="1"/>
      </contour>
      <contour>
        <pt x="497" y="404" on="1"/>
        <pt x="497" y="398" on="1"/>
        <pt x="491" y="391" on="0"/>
        <pt x="484" y="385" on="1"/>
        <pt x="479" y="387" on="0"/>
        <pt x="468" y="387" on="1"/>
        <pt x="459" y="398" on="0"/>
        <pt x="459" y="408" on="1"/>
        <pt x="459" y="411" on="0"/>
        <pt x="461" y="417" on="1"/>
        <pt x="467" y="425" on="0"/>
        <pt x="478" y="425" on="1"/>
        <pt x="487" y="425" on="0"/>
        <pt x="492" y="419" on="1"/>
        <pt x="494" y="415" on="0"/>
        <pt x="497" y="408" on="0"/>
      </contour>
      <contour>
        <pt x="585" y="305" on="1"/>
        <pt x="585" y="298" on="0"/>
        <pt x="580" y="291" on="1"/>
        <pt x="574" y="289" on="0"/>
        <pt x="569" y="283" on="1"/>
        <pt x="558" y="284" on="0"/>
        <pt x="545" y="293" on="0"/>
        <pt x="545" y="306" on="1"/>
        <pt x="545" y="309" on="0"/>
        <pt x="547" y="313" on="1"/>
        <pt x="551" y="316" on="0"/>
        <pt x="559" y="322" on="0"/>
        <pt x="564" y="322" on="1"/>
        <pt x="571" y="322" on="0"/>
        <pt x="585" y="313" on="0"/>
      </contour>
      <contour>
        <pt x="514" y="367" on="1"/>
        <pt x="512" y="363" on="0"/>
        <pt x="512" y="361" on="1"/>
        <pt x="512" y="359" on="0"/>
        <pt x="513" y="353" on="0"/>
        <pt x="513" y="351" on="1"/>
        <pt x="504" y="342" on="0"/>
        <pt x="487" y="342" on="1"/>
        <pt x="483" y="346" on="0"/>
        <pt x="476" y="354" on="0"/>
        <pt x="476" y="359" on="1"/>
        <pt x="476" y="367" on="0"/>
        <pt x="488" y="378" on="0"/>
        <pt x="495" y="382" on="1"/>
        <pt x="503" y="378" on="0"/>
        <pt x="509" y="373" on="0"/>
      </contour>
      <contour>
        <pt x="139" y="726" on="1"/>
        <pt x="138" y="722" on="0"/>
        <pt x="138" y="714" on="1"/>
        <pt x="138" y="709" on="0"/>
        <pt x="125" y="694" on="0"/>
        <pt x="120" y="694" on="1"/>
        <pt x="117" y="694" on="0"/>
        <pt x="111" y="695" on="0"/>
        <pt x="108" y="695" on="1"/>
        <pt x="106" y="702" on="0"/>
        <pt x="101" y="706" on="0"/>
        <pt x="97" y="711" on="1"/>
        <pt x="100" y="716" on="0"/>
        <pt x="103" y="724" on="0"/>
        <pt x="107" y="729" on="0"/>
        <pt x="114" y="732" on="0"/>
        <pt x="122" y="732" on="1"/>
        <pt x="127" y="732" on="0"/>
        <pt x="134" y="727" on="0"/>
      </contour>
      <contour>
        <pt x="623" y="222" on="1"/>
        <pt x="619" y="218" on="0"/>
        <pt x="620" y="211" on="0"/>
        <pt x="619" y="206" on="1"/>
        <pt x="616" y="202" on="0"/>
        <pt x="608" y="201" on="0"/>
        <pt x="605" y="198" on="1"/>
        <pt x="598" y="199" on="0"/>
        <pt x="590" y="205" on="0"/>
        <pt x="583" y="207" on="1"/>
        <pt x="583" y="217" on="1"/>
        <pt x="583" y="226" on="0"/>
        <pt x="588" y="236" on="1"/>
        <pt x="598" y="236" on="1"/>
        <pt x="616" y="236" on="0"/>
      </contour>
      <contour>
        <pt x="403" y="385" on="1"/>
        <pt x="403" y="382" on="0"/>
        <pt x="402" y="376" on="0"/>
        <pt x="402" y="374" on="1"/>
        <pt x="399" y="371" on="0"/>
        <pt x="391" y="363" on="0"/>
        <pt x="386" y="363" on="1"/>
        <pt x="378" y="363" on="0"/>
        <pt x="363" y="372" on="0"/>
        <pt x="363" y="380" on="1"/>
        <pt x="363" y="384" on="0"/>
        <pt x="365" y="391" on="0"/>
        <pt x="364" y="395" on="1"/>
        <pt x="376" y="400" on="0"/>
        <pt x="385" y="400" on="1"/>
        <pt x="392" y="400" on="0"/>
        <pt x="400" y="395" on="1"/>
        <pt x="401" y="393" on="0"/>
        <pt x="403" y="388" on="0"/>
      </contour>
      <contour>
        <pt x="139" y="637" on="1"/>
        <pt x="137" y="629" on="0"/>
        <pt x="127" y="609" on="0"/>
        <pt x="118" y="609" on="1"/>
        <pt x="113" y="609" on="0"/>
        <pt x="106" y="615" on="0"/>
        <pt x="103" y="618" on="1"/>
        <pt x="103" y="623" on="1"/>
        <pt x="104" y="627" on="0"/>
        <pt x="99" y="629" on="0"/>
        <pt x="99" y="633" on="1"/>
        <pt x="99" y="641" on="0"/>
        <pt x="111" y="649" on="0"/>
        <pt x="118" y="648" on="1"/>
        <pt x="122" y="652" on="1"/>
      </contour>
      <contour>
        <pt x="613" y="127" on="1"/>
        <pt x="613" y="119" on="0"/>
        <pt x="599" y="108" on="0"/>
        <pt x="591" y="108" on="1"/>
        <pt x="587" y="108" on="0"/>
        <pt x="581" y="110" on="1"/>
        <pt x="581" y="116" on="0"/>
        <pt x="575" y="120" on="0"/>
        <pt x="575" y="127" on="1"/>
        <pt x="575" y="132" on="0"/>
        <pt x="578" y="139" on="0"/>
        <pt x="579" y="143" on="1"/>
        <pt x="583" y="144" on="0"/>
        <pt x="590" y="147" on="0"/>
        <pt x="594" y="147" on="1"/>
        <pt x="601" y="147" on="0"/>
        <pt x="613" y="135" on="0"/>
      </contour>
      <contour>
        <pt x="316" y="377" on="1"/>
        <pt x="316" y="371" on="1"/>
        <pt x="314" y="367" on="0"/>
        <pt x="303" y="356" on="0"/>
        <pt x="299" y="356" on="1"/>
        <pt x="294" y="356" on="0"/>
        <pt x="287" y="361" on="0"/>
        <pt x="284" y="364" on="1"/>
        <pt x="282" y="369" on="0"/>
        <pt x="278" y="377" on="0"/>
        <pt x="278" y="382" on="1"/>
        <pt x="278" y="386" on="0"/>
        <pt x="280" y="390" on="1"/>
        <pt x="288" y="395" on="0"/>
        <pt x="300" y="397" on="1"/>
        <pt x="306" y="394" on="1"/>
        <pt x="315" y="394" on="1"/>
        <pt x="315" y="390" on="0"/>
        <pt x="316" y="382" on="0"/>
      </contour>
      <contour>
        <pt x="137" y="538" on="1"/>
        <pt x="137" y="531" on="0"/>
        <pt x="129" y="520" on="0"/>
        <pt x="124" y="515" on="1"/>
        <pt x="119" y="517" on="0"/>
        <pt x="110" y="519" on="0"/>
        <pt x="105" y="521" on="1"/>
        <pt x="101" y="525" on="0"/>
        <pt x="97" y="532" on="0"/>
        <pt x="97" y="538" on="1"/>
        <pt x="97" y="541" on="0"/>
        <pt x="99" y="547" on="1"/>
        <pt x="96" y="553" on="1"/>
        <pt x="101" y="555" on="0"/>
        <pt x="111" y="558" on="0"/>
        <pt x="117" y="559" on="1"/>
        <pt x="123" y="556" on="0"/>
        <pt x="137" y="546" on="0"/>
      </contour>
      <contour>
        <pt x="576" y="48" on="1"/>
        <pt x="576" y="35" on="0"/>
        <pt x="563" y="28" on="1"/>
        <pt x="559" y="26" on="0"/>
        <pt x="556" y="26" on="1"/>
        <pt x="547" y="26" on="0"/>
        <pt x="538" y="36" on="0"/>
        <pt x="533" y="47" on="1"/>
        <pt x="538" y="58" on="0"/>
        <pt x="544" y="60" on="0"/>
        <pt x="546" y="68" on="1"/>
        <pt x="558" y="67" on="0"/>
        <pt x="564" y="63" on="0"/>
        <pt x="574" y="57" on="1"/>
        <pt x="576" y="51" on="0"/>
      </contour>
      <contour>
        <pt x="227" y="374" on="1"/>
        <pt x="227" y="368" on="0"/>
        <pt x="213" y="352" on="0"/>
        <pt x="206" y="352" on="1"/>
        <pt x="201" y="352" on="0"/>
        <pt x="193" y="361" on="0"/>
        <pt x="190" y="364" on="1"/>
        <pt x="190" y="367" on="0"/>
        <pt x="187" y="372" on="0"/>
        <pt x="187" y="376" on="1"/>
        <pt x="187" y="382" on="0"/>
        <pt x="202" y="392" on="0"/>
        <pt x="207" y="393" on="1"/>
        <pt x="212" y="391" on="0"/>
        <pt x="222" y="389" on="0"/>
        <pt x="226" y="385" on="1"/>
        <pt x="226" y="383" on="0"/>
        <pt x="227" y="377" on="0"/>
      </contour>
      <contour>
        <pt x="136" y="447" on="1"/>
        <pt x="133" y="438" on="0"/>
        <pt x="120" y="424" on="0"/>
        <pt x="109" y="424" on="1"/>
        <pt x="101" y="424" on="1"/>
        <pt x="99" y="429" on="0"/>
        <pt x="92" y="440" on="0"/>
        <pt x="92" y="445" on="1"/>
        <pt x="92" y="447" on="0"/>
        <pt x="93" y="451" on="0"/>
        <pt x="93" y="453" on="1"/>
        <pt x="97" y="457" on="0"/>
        <pt x="105" y="464" on="0"/>
        <pt x="111" y="464" on="1"/>
        <pt x="114" y="464" on="0"/>
        <pt x="119" y="462" on="0"/>
        <pt x="121" y="461" on="1"/>
        <pt x="123" y="462" on="0"/>
        <pt x="126" y="462" on="0"/>
        <pt x="128" y="463" on="1"/>
      </contour>
      <contour>
        <pt x="487" y="19" on="1"/>
        <pt x="487" y="16" on="0"/>
        <pt x="486" y="9" on="0"/>
        <pt x="483" y="7" on="1"/>
        <pt x="478" y="-3" on="1"/>
        <pt x="473" y="-3" on="0"/>
        <pt x="464" y="-2" on="0"/>
        <pt x="459" y="-2" on="1"/>
        <pt x="451" y="8" on="0"/>
        <pt x="451" y="19" on="1"/>
        <pt x="451" y="24" on="0"/>
        <pt x="453" y="30" on="1"/>
        <pt x="462" y="37" on="0"/>
        <pt x="470" y="37" on="1"/>
        <pt x="474" y="37" on="0"/>
        <pt x="484" y="30" on="0"/>
        <pt x="487" y="27" on="1"/>
      </contour>
      <contour>
        <pt x="139" y="371" on="1"/>
        <pt x="135" y="366" on="0"/>
        <pt x="136" y="365" on="0"/>
        <pt x="136" y="359" on="1"/>
        <pt x="136" y="352" on="0"/>
        <pt x="119" y="344" on="0"/>
        <pt x="114" y="344" on="1"/>
        <pt x="105" y="350" on="0"/>
        <pt x="97" y="358" on="1"/>
        <pt x="97" y="363" on="1"/>
        <pt x="97" y="371" on="0"/>
        <pt x="107" y="383" on="0"/>
        <pt x="112" y="388" on="1"/>
        <pt x="120" y="385" on="0"/>
        <pt x="132" y="376" on="0"/>
      </contour>
      <contour>
        <pt x="398" y="6" on="1"/>
        <pt x="396" y="2" on="0"/>
        <pt x="391" y="-5" on="0"/>
        <pt x="389" y="-8" on="1"/>
        <pt x="383" y="-10" on="0"/>
        <pt x="379" y="-10" on="1"/>
        <pt x="371" y="-10" on="0"/>
        <pt x="359" y="1" on="0"/>
        <pt x="359" y="9" on="1"/>
        <pt x="359" y="18" on="0"/>
        <pt x="373" y="30" on="0"/>
        <pt x="381" y="30" on="1"/>
        <pt x="386" y="30" on="0"/>
        <pt x="392" y="24" on="0"/>
        <pt x="396" y="22" on="1"/>
        <pt x="398" y="12" on="0"/>
      </contour>
      <contour>
        <pt x="126" y="268" on="1"/>
        <pt x="122" y="266" on="0"/>
        <pt x="115" y="261" on="0"/>
        <pt x="111" y="257" on="1"/>
        <pt x="106" y="257" on="1"/>
        <pt x="102" y="257" on="0"/>
        <pt x="96" y="260" on="0"/>
        <pt x="92" y="260" on="1"/>
        <pt x="90" y="264" on="0"/>
        <pt x="87" y="271" on="0"/>
        <pt x="87" y="276" on="1"/>
        <pt x="87" y="282" on="0"/>
        <pt x="90" y="288" on="1"/>
        <pt x="93" y="291" on="0"/>
        <pt x="101" y="294" on="0"/>
        <pt x="104" y="297" on="1"/>
        <pt x="109" y="296" on="0"/>
        <pt x="118" y="295" on="0"/>
        <pt x="122" y="292" on="1"/>
        <pt x="124" y="286" on="0"/>
        <pt x="125" y="274" on="0"/>
      </contour>
      <contour>
        <pt x="129" y="190" on="1"/>
        <pt x="129" y="179" on="0"/>
        <pt x="120" y="170" on="1"/>
        <pt x="116" y="170" on="0"/>
        <pt x="108" y="169" on="0"/>
        <pt x="104" y="169" on="1"/>
        <pt x="98" y="169" on="1"/>
        <pt x="95" y="173" on="0"/>
        <pt x="90" y="182" on="0"/>
        <pt x="90" y="187" on="1"/>
        <pt x="90" y="193" on="0"/>
        <pt x="95" y="200" on="0"/>
        <pt x="97" y="205" on="1"/>
        <pt x="105" y="207" on="0"/>
        <pt x="110" y="207" on="1"/>
        <pt x="117" y="207" on="0"/>
        <pt x="125" y="203" on="1"/>
        <pt x="129" y="198" on="0"/>
      </contour>
      <contour>
        <pt x="309" y="12" on="1"/>
        <pt x="309" y="3" on="0"/>
        <pt x="305" y="-4" on="1"/>
        <pt x="302" y="-11" on="0"/>
        <pt x="294" y="-11" on="1"/>
        <pt x="291" y="-11" on="0"/>
        <pt x="286" y="-10" on="0"/>
        <pt x="283" y="-10" on="1"/>
        <pt x="278" y="-6" on="0"/>
        <pt x="275" y="1" on="0"/>
        <pt x="267" y="1" on="1"/>
        <pt x="270" y="12" on="0"/>
        <pt x="277" y="29" on="0"/>
        <pt x="291" y="29" on="1"/>
        <pt x="295" y="29" on="0"/>
        <pt x="298" y="26" on="1"/>
        <pt x="302" y="28" on="0"/>
        <pt x="303" y="28" on="1"/>
        <pt x="309" y="22" on="0"/>
      </contour>
      <contour>
        <pt x="130" y="110" on="1"/>
        <pt x="130" y="105" on="0"/>
        <pt x="129" y="97" on="0"/>
        <pt x="128" y="92" on="1"/>
        <pt x="123" y="89" on="0"/>
        <pt x="116" y="85" on="0"/>
        <pt x="111" y="85" on="1"/>
        <pt x="106" y="87" on="0"/>
        <pt x="99" y="91" on="0"/>
        <pt x="94" y="92" on="1"/>
        <pt x="92" y="98" on="0"/>
        <pt x="92" y="102" on="1"/>
        <pt x="92" y="111" on="0"/>
        <pt x="104" y="124" on="0"/>
        <pt x="113" y="124" on="1"/>
        <pt x="118" y="122" on="0"/>
        <pt x="130" y="117" on="0"/>
      </contour>
      <contour>
        <pt x="212" y="2" on="1"/>
        <pt x="212" y="-3" on="1"/>
        <pt x="208" y="-8" on="0"/>
        <pt x="198" y="-16" on="0"/>
        <pt x="192" y="-16" on="1"/>
        <pt x="184" y="-12" on="0"/>
        <pt x="172" y="-6" on="0"/>
        <pt x="172" y="5" on="1"/>
        <pt x="172" y="7" on="0"/>
        <pt x="173" y="11" on="0"/>
        <pt x="173" y="13" on="1"/>
        <pt x="177" y="22" on="0"/>
        <pt x="190" y="22" on="1"/>
        <pt x="195" y="22" on="0"/>
        <pt x="203" y="20" on="0"/>
        <pt x="208" y="18" on="1"/>
        <pt x="210" y="14" on="0"/>
        <pt x="212" y="7" on="0"/>
      </contour>
      <contour>
        <pt x="131" y="21" on="1"/>
        <pt x="129" y="16" on="0"/>
        <pt x="128" y="7" on="0"/>
        <pt x="124" y="4" on="1"/>
        <pt x="120" y="2" on="0"/>
        <pt x="112" y="-1" on="0"/>
        <pt x="108" y="-1" on="1"/>
        <pt x="100" y="-1" on="0"/>
        <pt x="91" y="14" on="0"/>
        <pt x="91" y="21" on="1"/>
        <pt x="91" y="26" on="0"/>
        <pt x="96" y="35" on="0"/>
        <pt x="99" y="40" on="1"/>
        <pt x="105" y="38" on="0"/>
        <pt x="109" y="39" on="0"/>
        <pt x="115" y="39" on="1"/>
        <pt x="119" y="39" on="0"/>
        <pt x="123" y="37" on="1"/>
        <pt x="126" y="33" on="0"/>
        <pt x="129" y="25" on="0"/>
      </contour>
    </TTGlyph>
    <TTGlyph name="C" xMin="56" yMin="-23" xMax="653" yMax="760">
      <contour>
        <pt x="648" y="637" on="1"/>
        <pt x="648" y="622" on="0"/>
        <pt x="631" y="613" on="0"/>
        <pt x="618" y="613" on="1"/>
        <pt x="616" y="620" on="0"/>
        <pt x="608" y="624" on="0"/>
        <pt x="608" y="632" on="1"/>
        <pt x="608" y="641" on="0"/>
        <pt x="621" y="654" on="0"/>
        <pt x="630" y="654" on="1"/>
        <pt x="637" y="654" on="0"/>
        <pt x="648" y="644" on="0"/>
      </contour>
      <contour>
        <pt x="591" y="683" on="1"/>
        <pt x="590" y="669" on="1"/>
        <pt x="584" y="665" on="0"/>
        <pt x="577" y="661" on="0"/>
        <pt x="573" y="656" on="1"/>
        <pt x="563" y="659" on="0"/>
        <pt x="557" y="664" on="1"/>
        <pt x="555" y="668" on="0"/>
        <pt x="550" y="675" on="0"/>
        <pt x="550" y="680" on="1"/>
        <pt x="550" y="682" on="0"/>
        <pt x="552" y="686" on="1"/>
        <pt x="557" y="691" on="0"/>
        <pt x="569" y="697" on="0"/>
        <pt x="577" y="697" on="1"/>
        <pt x="585" y="697" on="1"/>
        <pt x="585" y="689" on="0"/>
        <pt x="589" y="689" on="0"/>
      </contour>
      <contour>
        <pt x="527" y="729" on="1"/>
        <pt x="524" y="721" on="0"/>
        <pt x="522" y="709" on="0"/>
        <pt x="514" y="704" on="1"/>
        <pt x="496" y="704" on="1"/>
        <pt x="493" y="708" on="0"/>
        <pt x="490" y="716" on="0"/>
        <pt x="487" y="719" on="1"/>
        <pt x="489" y="729" on="0"/>
        <pt x="491" y="733" on="1"/>
        <pt x="494" y="742" on="1"/>
        <pt x="499" y="743" on="0"/>
        <pt x="503" y="743" on="0"/>
        <pt x="508" y="743" on="1"/>
        <pt x="515" y="743" on="0"/>
        <pt x="522" y="734" on="0"/>
      </contour>
      <contour>
        <pt x="443" y="744" on="1"/>
        <pt x="443" y="735" on="0"/>
        <pt x="432" y="723" on="0"/>
        <pt x="423" y="723" on="1"/>
        <pt x="415" y="723" on="0"/>
        <pt x="404" y="732" on="0"/>
        <pt x="404" y="740" on="1"/>
        <pt x="404" y="749" on="0"/>
        <pt x="422" y="760" on="0"/>
        <pt x="430" y="760" on="1"/>
        <pt x="437" y="760" on="1"/>
        <pt x="439" y="756" on="0"/>
        <pt x="443" y="749" on="0"/>
      </contour>
      <contour>
        <pt x="354" y="741" on="1"/>
        <pt x="351" y="737" on="0"/>
        <pt x="352" y="736" on="0"/>
        <pt x="352" y="731" on="1"/>
        <pt x="352" y="725" on="0"/>
        <pt x="345" y="718" on="0"/>
        <pt x="343" y="713" on="1"/>
        <pt x="338" y="715" on="0"/>
        <pt x="326" y="713" on="0"/>
        <pt x="321" y="716" on="1"/>
        <pt x="318" y="722" on="0"/>
        <pt x="312" y="726" on="0"/>
        <pt x="312" y="734" on="1"/>
        <pt x="312" y="747" on="0"/>
        <pt x="336" y="755" on="0"/>
        <pt x="346" y="756" on="1"/>
        <pt x="346" y="748" on="0"/>
        <pt x="349" y="746" on="0"/>
      </contour>
      <contour>
        <pt x="258" y="696" on="1"/>
        <pt x="256" y="691" on="0"/>
        <pt x="244" y="677" on="0"/>
        <pt x="238" y="677" on="1"/>
        <pt x="236" y="677" on="0"/>
        <pt x="223" y="681" on="0"/>
        <pt x="221" y="682" on="1"/>
        <pt x="219" y="686" on="0"/>
        <pt x="214" y="693" on="0"/>
        <pt x="214" y="698" on="1"/>
        <pt x="215" y="700" on="0"/>
        <pt x="219" y="711" on="0"/>
        <pt x="221" y="713" on="1"/>
        <pt x="225" y="716" on="0"/>
        <pt x="229" y="716" on="0"/>
        <pt x="229" y="722" on="1"/>
        <pt x="235" y="721" on="0"/>
        <pt x="247" y="715" on="0"/>
        <pt x="253" y="715" on="1"/>
        <pt x="254" y="710" on="0"/>
        <pt x="255" y="699" on="0"/>
      </contour>
      <contour>
        <pt x="185" y="632" on="1"/>
        <pt x="181" y="624" on="0"/>
        <pt x="172" y="612" on="0"/>
        <pt x="164" y="609" on="1"/>
        <pt x="159" y="611" on="0"/>
        <pt x="150" y="613" on="0"/>
        <pt x="146" y="617" on="1"/>
        <pt x="142" y="627" on="0"/>
        <pt x="142" y="632" on="1"/>
        <pt x="142" y="640" on="0"/>
        <pt x="153" y="646" on="0"/>
        <pt x="157" y="652" on="1"/>
        <pt x="174" y="646" on="0"/>
      </contour>
      <contour>
        <pt x="653" y="102" on="1"/>
        <pt x="653" y="96" on="0"/>
        <pt x="650" y="90" on="1"/>
        <pt x="645" y="87" on="0"/>
        <pt x="637" y="80" on="0"/>
        <pt x="631" y="80" on="1"/>
        <pt x="623" y="80" on="0"/>
        <pt x="611" y="94" on="0"/>
        <pt x="611" y="102" on="1"/>
        <pt x="611" y="112" on="0"/>
        <pt x="620" y="118" on="0"/>
        <pt x="627" y="123" on="1"/>
        <pt x="634" y="122" on="0"/>
        <pt x="643" y="123" on="0"/>
        <pt x="651" y="120" on="1"/>
        <pt x="651" y="115" on="0"/>
        <pt x="653" y="107" on="0"/>
      </contour>
      <contour>
        <pt x="140" y="550" on="1"/>
        <pt x="140" y="541" on="0"/>
        <pt x="127" y="530" on="0"/>
        <pt x="118" y="530" on="1"/>
        <pt x="100" y="530" on="0"/>
        <pt x="100" y="548" on="1"/>
        <pt x="100" y="553" on="0"/>
        <pt x="103" y="565" on="0"/>
        <pt x="105" y="570" on="1"/>
        <pt x="115" y="570" on="1"/>
        <pt x="125" y="570" on="0"/>
        <pt x="140" y="561" on="0"/>
      </contour>
      <contour>
        <pt x="588" y="41" on="1"/>
        <pt x="588" y="36" on="0"/>
        <pt x="583" y="28" on="0"/>
        <pt x="581" y="23" on="1"/>
        <pt x="576" y="23" on="0"/>
        <pt x="569" y="21" on="0"/>
        <pt x="564" y="21" on="1"/>
        <pt x="556" y="21" on="0"/>
        <pt x="547" y="31" on="0"/>
        <pt x="547" y="39" on="1"/>
        <pt x="547" y="47" on="0"/>
        <pt x="556" y="59" on="0"/>
        <pt x="564" y="59" on="1"/>
        <pt x="572" y="59" on="0"/>
        <pt x="588" y="49" on="0"/>
      </contour>
      <contour>
        <pt x="99" y="467" on="1"/>
        <pt x="99" y="457" on="0"/>
        <pt x="91" y="447" on="1"/>
        <pt x="86" y="445" on="0"/>
        <pt x="74" y="443" on="0"/>
        <pt x="68" y="440" on="1"/>
        <pt x="65" y="448" on="0"/>
        <pt x="57" y="459" on="0"/>
        <pt x="57" y="467" on="1"/>
        <pt x="60" y="470" on="0"/>
        <pt x="75" y="484" on="0"/>
        <pt x="80" y="484" on="1"/>
        <pt x="82" y="484" on="0"/>
        <pt x="87" y="483" on="0"/>
        <pt x="89" y="483" on="1"/>
      </contour>
      <contour>
        <pt x="508" y="2" on="1"/>
        <pt x="508" y="-7" on="1"/>
        <pt x="504" y="-10" on="0"/>
        <pt x="495" y="-16" on="0"/>
        <pt x="490" y="-16" on="1"/>
        <pt x="482" y="-16" on="0"/>
        <pt x="472" y="-6" on="0"/>
        <pt x="468" y="1" on="1"/>
        <pt x="468" y="9" on="0"/>
        <pt x="473" y="10" on="0"/>
        <pt x="471" y="18" on="1"/>
        <pt x="477" y="20" on="0"/>
        <pt x="480" y="23" on="0"/>
        <pt x="485" y="28" on="1"/>
        <pt x="490" y="26" on="0"/>
        <pt x="500" y="20" on="0"/>
        <pt x="506" y="20" on="1"/>
        <pt x="507" y="15" on="0"/>
        <pt x="508" y="7" on="0"/>
      </contour>
      <contour>
        <pt x="97" y="363" on="1"/>
        <pt x="97" y="358" on="0"/>
        <pt x="95" y="348" on="1"/>
        <pt x="89" y="343" on="0"/>
        <pt x="81" y="339" on="0"/>
        <pt x="73" y="339" on="1"/>
        <pt x="56" y="339" on="0"/>
        <pt x="56" y="356" on="1"/>
        <pt x="56" y="365" on="0"/>
        <pt x="66" y="380" on="0"/>
        <pt x="76" y="380" on="1"/>
        <pt x="84" y="380" on="0"/>
        <pt x="97" y="371" on="0"/>
      </contour>
      <contour>
        <pt x="406" y="-15" on="1"/>
        <pt x="401" y="-22" on="1"/>
        <pt x="395" y="-22" on="1"/>
        <pt x="392" y="-22" on="0"/>
        <pt x="387" y="-23" on="0"/>
        <pt x="384" y="-23" on="1"/>
        <pt x="380" y="-19" on="0"/>
        <pt x="374" y="-11" on="0"/>
        <pt x="370" y="-6" on="1"/>
        <pt x="372" y="1" on="0"/>
        <pt x="379" y="13" on="0"/>
        <pt x="384" y="18" on="1"/>
        <pt x="389" y="18" on="0"/>
        <pt x="396" y="17" on="0"/>
        <pt x="401" y="17" on="1"/>
        <pt x="406" y="9" on="0"/>
        <pt x="412" y="4" on="1"/>
        <pt x="410" y="-2" on="0"/>
        <pt x="410" y="-4" on="1"/>
        <pt x="410" y="-12" on="0"/>
        <pt x="408" y="-14" on="1"/>
        <pt x="407" y="-15" on="0"/>
      </contour>
      <contour>
        <pt x="115" y="268" on="1"/>
        <pt x="115" y="260" on="0"/>
        <pt x="110" y="252" on="0"/>
        <pt x="107" y="245" on="1"/>
        <pt x="103" y="243" on="0"/>
        <pt x="97" y="241" on="0"/>
        <pt x="93" y="241" on="1"/>
        <pt x="86" y="241" on="0"/>
        <pt x="75" y="251" on="0"/>
        <pt x="71" y="256" on="1"/>
        <pt x="73" y="261" on="0"/>
        <pt x="73" y="267" on="1"/>
        <pt x="73" y="271" on="0"/>
        <pt x="75" y="275" on="1"/>
        <pt x="80" y="277" on="0"/>
        <pt x="92" y="282" on="0"/>
        <pt x="96" y="282" on="1"/>
        <pt x="98" y="282" on="0"/>
        <pt x="113" y="270" on="0"/>
      </contour>
      <contour>
        <pt x="315" y="12" on="1"/>
        <pt x="313" y="7" on="0"/>
        <pt x="310" y="2" on="0"/>
        <pt x="311" y="-3" on="1"/>
        <pt x="306" y="-6" on="0"/>
        <pt x="294" y="-12" on="0"/>
        <pt x="288" y="-12" on="1"/>
        <pt x="281" y="-12" on="0"/>
        <pt x="269" y="-2" on="0"/>
        <pt x="269" y="5" on="1"/>
        <pt x="269" y="11" on="0"/>
        <pt x="281" y="27" on="0"/>
        <pt x="287" y="29" on="1"/>
        <pt x="289" y="27" on="0"/>
        <pt x="293" y="28" on="0"/>
        <pt x="296" y="28" on="1"/>
        <pt x="302" y="28" on="1"/>
        <pt x="305" y="22" on="0"/>
        <pt x="310" y="17" on="0"/>
      </contour>
      <contour>
        <pt x="148" y="157" on="1"/>
        <pt x="146" y="147" on="0"/>
        <pt x="136" y="133" on="0"/>
        <pt x="125" y="133" on="1"/>
        <pt x="117" y="133" on="1"/>
        <pt x="115" y="137" on="0"/>
        <pt x="109" y="144" on="0"/>
        <pt x="108" y="148" on="1"/>
        <pt x="106" y="154" on="0"/>
        <pt x="106" y="155" on="1"/>
        <pt x="106" y="158" on="0"/>
        <pt x="108" y="163" on="0"/>
        <pt x="109" y="165" on="1"/>
        <pt x="119" y="172" on="0"/>
        <pt x="129" y="172" on="1"/>
        <pt x="132" y="172" on="0"/>
        <pt x="138" y="170" on="1"/>
        <pt x="140" y="166" on="0"/>
        <pt x="144" y="160" on="0"/>
      </contour>
      <contour>
        <pt x="231" y="60" on="1"/>
        <pt x="228" y="53" on="0"/>
        <pt x="221" y="44" on="0"/>
        <pt x="213" y="41" on="1"/>
        <pt x="207" y="43" on="0"/>
        <pt x="190" y="50" on="0"/>
        <pt x="190" y="58" on="1"/>
        <pt x="190" y="64" on="0"/>
        <pt x="194" y="70" on="1"/>
        <pt x="199" y="73" on="0"/>
        <pt x="208" y="78" on="0"/>
        <pt x="213" y="78" on="1"/>
        <pt x="221" y="78" on="0"/>
        <pt x="228" y="66" on="0"/>
      </contour>
    </TTGlyph>
    <TTGlyph name="Ccedilla" xMin="56" yMin="-255" xMax="653" yMax="760">
      <contour>
        <pt x="648" y="637" on="1"/>
        <pt x="648" y="622" on="0"/>
        <pt x="631" y="613" on="0"/>
        <pt x="618" y="613" on="1"/>
        <pt x="616" y="620" on="0"/>
        <pt x="608" y="624" on="0"/>
        <pt x="608" y="632" on="1"/>
        <pt x="608" y="641" on="0"/>
        <pt x="621" y="654" on="0"/>
        <pt x="630" y="654" on="1"/>
        <pt x="637" y="654" on="0"/>
        <pt x="648" y="644" on="0"/>
      </contour>
      <contour>
        <pt x="591" y="683" on="1"/>
        <pt x="590" y="669" on="1"/>
        <pt x="584" y="665" on="0"/>
        <pt x="577" y="661" on="0"/>
        <pt x="573" y="656" on="1"/>
        <pt x="563" y="659" on="0"/>
        <pt x="557" y="664" on="1"/>
        <pt x="555" y="668" on="0"/>
        <pt x="550" y="675" on="0"/>
        <pt x="550" y="680" on="1"/>
        <pt x="550" y="682" on="0"/>
        <pt x="552" y="686" on="1"/>
        <pt x="557" y="691" on="0"/>
        <pt x="569" y="697" on="0"/>
        <pt x="577" y="697" on="1"/>
        <pt x="585" y="697" on="1"/>
        <pt x="585" y="689" on="0"/>
        <pt x="589" y="689" on="0"/>
      </contour>
      <contour>
        <pt x="527" y="729" on="1"/>
        <pt x="524" y="721" on="0"/>
        <pt x="522" y="709" on="0"/>
        <pt x="514" y="704" on="1"/>
        <pt x="496" y="704" on="1"/>
        <pt x="493" y="708" on="0"/>
        <pt x="490" y="716" on="0"/>
        <pt x="487" y="719" on="1"/>
        <pt x="489" y="729" on="0"/>
        <pt x="491" y="733" on="1"/>
        <pt x="487" y="739" on="1"/>
        <pt x="492" y="740" on="0"/>
        <pt x="503" y="743" on="0"/>
        <pt x="508" y="743" on="1"/>
        <pt x="515" y="743" on="0"/>
        <pt x="522" y="734" on="0"/>
      </contour>
      <contour>
        <pt x="443" y="744" on="1"/>
        <pt x="443" y="735" on="0"/>
        <pt x="432" y="723" on="0"/>
        <pt x="423" y="723" on="1"/>
        <pt x="415" y="723" on="0"/>
        <pt x="404" y="732" on="0"/>
        <pt x="404" y="740" on="1"/>
        <pt x="404" y="749" on="0"/>
        <pt x="422" y="760" on="0"/>
        <pt x="430" y="760" on="1"/>
        <pt x="437" y="760" on="1"/>
        <pt x="439" y="756" on="0"/>
        <pt x="443" y="749" on="0"/>
      </contour>
      <contour>
        <pt x="354" y="741" on="1"/>
        <pt x="351" y="737" on="0"/>
        <pt x="352" y="736" on="0"/>
        <pt x="352" y="731" on="1"/>
        <pt x="352" y="725" on="0"/>
        <pt x="345" y="718" on="0"/>
        <pt x="343" y="713" on="1"/>
        <pt x="338" y="715" on="0"/>
        <pt x="326" y="713" on="0"/>
        <pt x="321" y="716" on="1"/>
        <pt x="318" y="722" on="0"/>
        <pt x="312" y="726" on="0"/>
        <pt x="312" y="734" on="1"/>
        <pt x="312" y="747" on="0"/>
        <pt x="336" y="755" on="0"/>
        <pt x="346" y="756" on="1"/>
        <pt x="346" y="748" on="0"/>
        <pt x="349" y="746" on="0"/>
      </contour>
      <contour>
        <pt x="258" y="696" on="1"/>
        <pt x="256" y="691" on="0"/>
        <pt x="244" y="677" on="0"/>
        <pt x="238" y="677" on="1"/>
        <pt x="236" y="677" on="0"/>
        <pt x="223" y="681" on="0"/>
        <pt x="221" y="682" on="1"/>
        <pt x="219" y="686" on="0"/>
        <pt x="214" y="693" on="0"/>
        <pt x="214" y="698" on="1"/>
        <pt x="215" y="700" on="0"/>
        <pt x="219" y="711" on="0"/>
        <pt x="221" y="713" on="1"/>
        <pt x="225" y="716" on="0"/>
        <pt x="229" y="716" on="0"/>
        <pt x="229" y="722" on="1"/>
        <pt x="235" y="721" on="0"/>
        <pt x="247" y="715" on="0"/>
        <pt x="253" y="715" on="1"/>
        <pt x="254" y="710" on="0"/>
        <pt x="255" y="699" on="0"/>
      </contour>
      <contour>
        <pt x="185" y="632" on="1"/>
        <pt x="181" y="624" on="0"/>
        <pt x="172" y="612" on="0"/>
        <pt x="164" y="609" on="1"/>
        <pt x="159" y="611" on="0"/>
        <pt x="150" y="613" on="0"/>
        <pt x="146" y="617" on="1"/>
        <pt x="142" y="627" on="0"/>
        <pt x="142" y="632" on="1"/>
        <pt x="142" y="640" on="0"/>
        <pt x="153" y="646" on="0"/>
        <pt x="157" y="652" on="1"/>
        <pt x="174" y="646" on="0"/>
      </contour>
      <contour>
        <pt x="653" y="102" on="1"/>
        <pt x="653" y="96" on="0"/>
        <pt x="650" y="90" on="1"/>
        <pt x="645" y="87" on="0"/>
        <pt x="637" y="80" on="0"/>
        <pt x="631" y="80" on="1"/>
        <pt x="623" y="80" on="0"/>
        <pt x="611" y="94" on="0"/>
        <pt x="611" y="102" on="1"/>
        <pt x="611" y="112" on="0"/>
        <pt x="620" y="118" on="0"/>
        <pt x="627" y="123" on="1"/>
        <pt x="634" y="122" on="0"/>
        <pt x="643" y="123" on="0"/>
        <pt x="651" y="120" on="1"/>
        <pt x="651" y="115" on="0"/>
        <pt x="653" y="107" on="0"/>
      </contour>
      <contour>
        <pt x="140" y="550" on="1"/>
        <pt x="140" y="541" on="0"/>
        <pt x="127" y="530" on="0"/>
        <pt x="118" y="530" on="1"/>
        <pt x="100" y="530" on="0"/>
        <pt x="100" y="548" on="1"/>
        <pt x="100" y="553" on="0"/>
        <pt x="103" y="565" on="0"/>
        <pt x="105" y="570" on="1"/>
        <pt x="115" y="570" on="1"/>
        <pt x="125" y="570" on="0"/>
        <pt x="140" y="561" on="0"/>
      </contour>
      <contour>
        <pt x="588" y="41" on="1"/>
        <pt x="588" y="36" on="0"/>
        <pt x="583" y="28" on="0"/>
        <pt x="581" y="23" on="1"/>
        <pt x="576" y="23" on="0"/>
        <pt x="569" y="21" on="0"/>
        <pt x="564" y="21" on="1"/>
        <pt x="556" y="21" on="0"/>
        <pt x="547" y="31" on="0"/>
        <pt x="547" y="39" on="1"/>
        <pt x="547" y="47" on="0"/>
        <pt x="556" y="59" on="0"/>
        <pt x="564" y="59" on="1"/>
        <pt x="572" y="59" on="0"/>
        <pt x="588" y="49" on="0"/>
      </contour>
      <contour>
        <pt x="99" y="467" on="1"/>
        <pt x="99" y="457" on="0"/>
        <pt x="91" y="447" on="1"/>
        <pt x="86" y="445" on="0"/>
        <pt x="74" y="443" on="0"/>
        <pt x="68" y="440" on="1"/>
        <pt x="65" y="448" on="0"/>
        <pt x="57" y="459" on="0"/>
        <pt x="57" y="467" on="1"/>
        <pt x="60" y="470" on="0"/>
        <pt x="75" y="484" on="0"/>
        <pt x="80" y="484" on="1"/>
        <pt x="82" y="484" on="0"/>
        <pt x="87" y="483" on="0"/>
        <pt x="89" y="483" on="1"/>
      </contour>
      <contour>
        <pt x="508" y="2" on="1"/>
        <pt x="508" y="-7" on="1"/>
        <pt x="504" y="-10" on="0"/>
        <pt x="495" y="-16" on="0"/>
        <pt x="490" y="-16" on="1"/>
        <pt x="482" y="-16" on="0"/>
        <pt x="472" y="-6" on="0"/>
        <pt x="468" y="1" on="1"/>
        <pt x="468" y="9" on="0"/>
        <pt x="473" y="10" on="0"/>
        <pt x="471" y="18" on="1"/>
        <pt x="477" y="20" on="0"/>
        <pt x="480" y="23" on="0"/>
        <pt x="485" y="28" on="1"/>
        <pt x="490" y="26" on="0"/>
        <pt x="500" y="20" on="0"/>
        <pt x="506" y="20" on="1"/>
        <pt x="507" y="15" on="0"/>
        <pt x="508" y="7" on="0"/>
      </contour>
      <contour>
        <pt x="97" y="363" on="1"/>
        <pt x="97" y="358" on="0"/>
        <pt x="95" y="348" on="1"/>
        <pt x="89" y="343" on="0"/>
        <pt x="81" y="339" on="0"/>
        <pt x="73" y="339" on="1"/>
        <pt x="56" y="339" on="0"/>
        <pt x="56" y="356" on="1"/>
        <pt x="56" y="365" on="0"/>
        <pt x="66" y="380" on="0"/>
        <pt x="76" y="380" on="1"/>
        <pt x="84" y="380" on="0"/>
        <pt x="97" y="371" on="0"/>
      </contour>
      <contour>
        <pt x="406" y="-15" on="1"/>
        <pt x="401" y="-22" on="1"/>
        <pt x="395" y="-22" on="1"/>
        <pt x="392" y="-22" on="0"/>
        <pt x="387" y="-23" on="0"/>
        <pt x="384" y="-23" on="1"/>
        <pt x="380" y="-19" on="0"/>
        <pt x="374" y="-11" on="0"/>
        <pt x="370" y="-6" on="1"/>
        <pt x="372" y="1" on="0"/>
        <pt x="379" y="13" on="0"/>
        <pt x="384" y="18" on="1"/>
        <pt x="389" y="18" on="0"/>
        <pt x="396" y="17" on="0"/>
        <pt x="401" y="17" on="1"/>
        <pt x="406" y="9" on="0"/>
        <pt x="412" y="4" on="1"/>
        <pt x="410" y="-2" on="0"/>
        <pt x="410" y="-4" on="1"/>
        <pt x="410" y="-7" on="0"/>
        <pt x="408" y="-11" on="1"/>
      </contour>
      <contour>
        <pt x="115" y="268" on="1"/>
        <pt x="115" y="260" on="0"/>
        <pt x="110" y="252" on="0"/>
        <pt x="107" y="245" on="1"/>
        <pt x="103" y="243" on="0"/>
        <pt x="97" y="241" on="0"/>
        <pt x="93" y="241" on="1"/>
        <pt x="86" y="241" on="0"/>
        <pt x="75" y="251" on="0"/>
        <pt x="71" y="256" on="1"/>
        <pt x="73" y="261" on="0"/>
        <pt x="73" y="267" on="1"/>
        <pt x="73" y="271" on="0"/>
        <pt x="75" y="275" on="1"/>
        <pt x="80" y="277" on="0"/>
        <pt x="92" y="282" on="0"/>
        <pt x="96" y="282" on="1"/>
        <pt x="98" y="282" on="0"/>
        <pt x="113" y="270" on="0"/>
      </contour>
      <contour>
        <pt x="384" y="-44" on="1"/>
        <pt x="388" y="-48" on="0"/>
        <pt x="391" y="-50" on="1"/>
        <pt x="389" y="-58" on="0"/>
        <pt x="385" y="-65" on="0"/>
        <pt x="387" y="-73" on="1"/>
        <pt x="380" y="-73" on="0"/>
        <pt x="370" y="-80" on="0"/>
        <pt x="368" y="-78" on="1"/>
        <pt x="359" y="-74" on="0"/>
        <pt x="352" y="-68" on="0"/>
        <pt x="349" y="-64" on="0"/>
        <pt x="348" y="-57" on="0"/>
        <pt x="345" y="-51" on="1"/>
        <pt x="347" y="-41" on="0"/>
        <pt x="364" y="-33" on="0"/>
        <pt x="372" y="-31" on="1"/>
        <pt x="375" y="-33" on="0"/>
        <pt x="388" y="-42" on="0"/>
      </contour>
      <contour>
        <pt x="315" y="12" on="1"/>
        <pt x="313" y="7" on="0"/>
        <pt x="310" y="2" on="0"/>
        <pt x="311" y="-3" on="1"/>
        <pt x="306" y="-6" on="0"/>
        <pt x="294" y="-12" on="0"/>
        <pt x="288" y="-12" on="1"/>
        <pt x="281" y="-12" on="0"/>
        <pt x="269" y="-2" on="0"/>
        <pt x="269" y="5" on="1"/>
        <pt x="269" y="11" on="0"/>
        <pt x="281" y="27" on="0"/>
        <pt x="287" y="29" on="1"/>
        <pt x="289" y="27" on="0"/>
        <pt x="293" y="28" on="0"/>
        <pt x="296" y="28" on="1"/>
        <pt x="302" y="28" on="1"/>
        <pt x="305" y="22" on="0"/>
        <pt x="310" y="17" on="0"/>
      </contour>
      <contour>
        <pt x="148" y="157" on="1"/>
        <pt x="146" y="147" on="0"/>
        <pt x="136" y="133" on="0"/>
        <pt x="125" y="133" on="1"/>
        <pt x="117" y="133" on="1"/>
        <pt x="115" y="137" on="0"/>
        <pt x="109" y="144" on="0"/>
        <pt x="108" y="148" on="1"/>
        <pt x="106" y="154" on="0"/>
        <pt x="106" y="155" on="1"/>
        <pt x="106" y="158" on="0"/>
        <pt x="108" y="163" on="0"/>
        <pt x="109" y="165" on="1"/>
        <pt x="119" y="172" on="0"/>
        <pt x="129" y="172" on="1"/>
        <pt x="132" y="172" on="0"/>
        <pt x="138" y="170" on="1"/>
        <pt x="140" y="166" on="0"/>
        <pt x="144" y="160" on="0"/>
      </contour>
      <contour>
        <pt x="414" y="-116" on="1"/>
        <pt x="414" y="-120" on="1"/>
        <pt x="411" y="-124" on="0"/>
        <pt x="404" y="-130" on="0"/>
        <pt x="400" y="-135" on="1"/>
        <pt x="386" y="-135" on="0"/>
        <pt x="372" y="-127" on="1"/>
        <pt x="372" y="-118" on="1"/>
        <pt x="372" y="-109" on="0"/>
        <pt x="377" y="-97" on="1"/>
        <pt x="382" y="-96" on="0"/>
        <pt x="390" y="-94" on="0"/>
        <pt x="395" y="-94" on="1"/>
        <pt x="403" y="-94" on="0"/>
        <pt x="414" y="-108" on="0"/>
      </contour>
      <contour>
        <pt x="448" y="-154" on="1"/>
        <pt x="448" y="-164" on="1"/>
        <pt x="440" y="-171" on="0"/>
        <pt x="438" y="-176" on="0"/>
        <pt x="426" y="-176" on="1"/>
        <pt x="418" y="-176" on="0"/>
        <pt x="410" y="-160" on="0"/>
        <pt x="410" y="-152" on="1"/>
        <pt x="410" y="-145" on="0"/>
        <pt x="413" y="-137" on="1"/>
        <pt x="418" y="-135" on="0"/>
        <pt x="429" y="-133" on="0"/>
        <pt x="434" y="-132" on="1"/>
        <pt x="439" y="-137" on="0"/>
        <pt x="448" y="-145" on="0"/>
      </contour>
      <contour>
        <pt x="231" y="60" on="1"/>
        <pt x="228" y="53" on="0"/>
        <pt x="221" y="44" on="0"/>
        <pt x="213" y="41" on="1"/>
        <pt x="207" y="43" on="0"/>
        <pt x="190" y="50" on="0"/>
        <pt x="190" y="58" on="1"/>
        <pt x="190" y="64" on="0"/>
        <pt x="194" y="70" on="1"/>
        <pt x="199" y="73" on="0"/>
        <pt x="208" y="78" on="0"/>
        <pt x="213" y="78" on="1"/>
        <pt x="221" y="78" on="0"/>
        <pt x="228" y="66" on="0"/>
      </contour>
      <contour>
        <pt x="363" y="-102" on="1"/>
        <pt x="363" y="-105" on="0"/>
        <pt x="361" y="-109" on="1"/>
        <pt x="361" y="-115" on="1"/>
        <pt x="356" y="-117" on="0"/>
        <pt x="346" y="-122" on="0"/>
        <pt x="341" y="-122" on="1"/>
        <pt x="333" y="-122" on="0"/>
        <pt x="324" y="-112" on="0"/>
        <pt x="320" y="-106" on="1"/>
        <pt x="318" y="-97" on="0"/>
        <pt x="320" y="-95" on="0"/>
        <pt x="322" y="-88" on="1"/>
        <pt x="330" y="-82" on="0"/>
        <pt x="341" y="-82" on="0"/>
        <pt x="349" y="-78" on="1"/>
        <pt x="353" y="-82" on="0"/>
        <pt x="359" y="-91" on="0"/>
        <pt x="363" y="-95" on="1"/>
      </contour>
      <contour>
        <pt x="446" y="-206" on="1"/>
        <pt x="441" y="-210" on="0"/>
        <pt x="441" y="-219" on="0"/>
        <pt x="437" y="-224" on="1"/>
        <pt x="433" y="-224" on="1"/>
        <pt x="430" y="-224" on="0"/>
        <pt x="424" y="-228" on="0"/>
        <pt x="419" y="-228" on="1"/>
        <pt x="415" y="-228" on="1"/>
        <pt x="406" y="-222" on="0"/>
        <pt x="396" y="-218" on="0"/>
        <pt x="396" y="-204" on="1"/>
        <pt x="396" y="-196" on="0"/>
        <pt x="404" y="-193" on="0"/>
        <pt x="408" y="-188" on="1"/>
        <pt x="416" y="-188" on="0"/>
        <pt x="420" y="-181" on="1"/>
        <pt x="434" y="-189" on="0"/>
      </contour>
      <contour>
        <pt x="388" y="-240" on="1"/>
        <pt x="388" y="-248" on="0"/>
        <pt x="370" y="-255" on="0"/>
        <pt x="363" y="-255" on="1"/>
        <pt x="354" y="-255" on="0"/>
        <pt x="344" y="-243" on="0"/>
        <pt x="344" y="-235" on="1"/>
        <pt x="344" y="-227" on="0"/>
        <pt x="345" y="-223" on="1"/>
        <pt x="353" y="-216" on="0"/>
        <pt x="365" y="-216" on="1"/>
        <pt x="373" y="-216" on="0"/>
        <pt x="377" y="-217" on="1"/>
        <pt x="388" y="-226" on="0"/>
      </contour>
      <contour>
        <pt x="331" y="-230" on="1"/>
        <pt x="331" y="-238" on="0"/>
        <pt x="320" y="-252" on="0"/>
        <pt x="312" y="-252" on="1"/>
        <pt x="304" y="-252" on="0"/>
        <pt x="290" y="-241" on="0"/>
        <pt x="290" y="-232" on="1"/>
        <pt x="290" y="-227" on="0"/>
        <pt x="295" y="-221" on="0"/>
        <pt x="295" y="-215" on="1"/>
        <pt x="303" y="-210" on="0"/>
        <pt x="311" y="-210" on="1"/>
        <pt x="320" y="-210" on="0"/>
        <pt x="328" y="-215" on="1"/>
        <pt x="331" y="-223" on="0"/>
      </contour>
      <contour>
        <pt x="290" y="-202" on="1"/>
        <pt x="290" y="-213" on="0"/>
        <pt x="285" y="-226" on="1"/>
        <pt x="275" y="-231" on="0"/>
        <pt x="266" y="-231" on="1"/>
        <pt x="261" y="-231" on="0"/>
        <pt x="255" y="-229" on="1"/>
        <pt x="251" y="-225" on="0"/>
        <pt x="245" y="-215" on="0"/>
        <pt x="245" y="-209" on="1"/>
        <pt x="245" y="-201" on="0"/>
        <pt x="255" y="-198" on="0"/>
        <pt x="253" y="-190" on="1"/>
        <pt x="258" y="-190" on="0"/>
        <pt x="265" y="-189" on="0"/>
        <pt x="270" y="-189" on="1"/>
        <pt x="276" y="-189" on="1"/>
        <pt x="278" y="-194" on="0"/>
        <pt x="287" y="-198" on="0"/>
      </contour>
    </TTGlyph>
    <TTGlyph name="D" xMin="93" yMin="-12" xMax="737" yMax="742">
      <contour>
        <pt x="623" y="671" on="1"/>
        <pt x="620" y="666" on="0"/>
        <pt x="620" y="660" on="0"/>
        <pt x="620" y="654" on="1"/>
        <pt x="615" y="651" on="0"/>
        <pt x="604" y="643" on="0"/>
        <pt x="599" y="641" on="1"/>
        <pt x="591" y="641" on="0"/>
        <pt x="582" y="648" on="1"/>
        <pt x="580" y="656" on="0"/>
        <pt x="580" y="660" on="1"/>
        <pt x="580" y="670" on="0"/>
        <pt x="589" y="683" on="0"/>
        <pt x="600" y="683" on="1"/>
        <pt x="607" y="683" on="0"/>
        <pt x="617" y="674" on="0"/>
      </contour>
      <contour>
        <pt x="690" y="586" on="1"/>
        <pt x="686" y="582" on="0"/>
        <pt x="684" y="579" on="1"/>
        <pt x="685" y="578" on="0"/>
        <pt x="685" y="575" on="1"/>
        <pt x="685" y="573" on="0"/>
        <pt x="684" y="571" on="1"/>
        <pt x="681" y="570" on="0"/>
        <pt x="675" y="568" on="0"/>
        <pt x="671" y="568" on="1"/>
        <pt x="656" y="568" on="0"/>
        <pt x="648" y="583" on="1"/>
        <pt x="653" y="592" on="0"/>
        <pt x="661" y="610" on="0"/>
        <pt x="673" y="610" on="1"/>
        <pt x="680" y="606" on="0"/>
        <pt x="690" y="594" on="0"/>
      </contour>
      <contour>
        <pt x="529" y="702" on="1"/>
        <pt x="529" y="700" on="0"/>
        <pt x="527" y="692" on="1"/>
        <pt x="518" y="683" on="0"/>
        <pt x="509" y="683" on="1"/>
        <pt x="500" y="683" on="0"/>
        <pt x="494" y="689" on="1"/>
        <pt x="490" y="697" on="0"/>
        <pt x="490" y="704" on="1"/>
        <pt x="490" y="708" on="0"/>
        <pt x="492" y="714" on="1"/>
        <pt x="497" y="716" on="0"/>
        <pt x="499" y="723" on="0"/>
        <pt x="507" y="723" on="1"/>
        <pt x="515" y="723" on="0"/>
        <pt x="529" y="710" on="0"/>
      </contour>
      <contour>
        <pt x="716" y="512" on="1"/>
        <pt x="714" y="485" on="1"/>
        <pt x="710" y="484" on="0"/>
        <pt x="703" y="482" on="0"/>
        <pt x="699" y="482" on="1"/>
        <pt x="694" y="482" on="0"/>
        <pt x="681" y="487" on="0"/>
        <pt x="679" y="490" on="1"/>
        <pt x="677" y="494" on="0"/>
        <pt x="677" y="503" on="1"/>
        <pt x="677" y="507" on="0"/>
        <pt x="679" y="513" on="0"/>
        <pt x="680" y="517" on="1"/>
        <pt x="687" y="521" on="0"/>
        <pt x="694" y="525" on="0"/>
        <pt x="702" y="525" on="1"/>
        <pt x="704" y="520" on="0"/>
        <pt x="712" y="515" on="0"/>
      </contour>
      <contour>
        <pt x="436" y="719" on="1"/>
        <pt x="436" y="717" on="0"/>
        <pt x="434" y="711" on="1"/>
        <pt x="431" y="708" on="0"/>
        <pt x="424" y="700" on="0"/>
        <pt x="420" y="698" on="1"/>
        <pt x="409" y="698" on="0"/>
        <pt x="395" y="710" on="0"/>
        <pt x="395" y="721" on="1"/>
        <pt x="395" y="726" on="1"/>
        <pt x="398" y="729" on="0"/>
        <pt x="405" y="734" on="0"/>
        <pt x="407" y="736" on="1"/>
        <pt x="413" y="738" on="0"/>
        <pt x="416" y="738" on="1"/>
        <pt x="421" y="738" on="0"/>
        <pt x="428" y="734" on="0"/>
        <pt x="433" y="733" on="1"/>
        <pt x="433" y="729" on="0"/>
        <pt x="436" y="723" on="0"/>
      </contour>
      <contour>
        <pt x="737" y="410" on="1"/>
        <pt x="737" y="405" on="0"/>
        <pt x="734" y="397" on="0"/>
        <pt x="734" y="392" on="1"/>
        <pt x="731" y="389" on="0"/>
        <pt x="722" y="384" on="0"/>
        <pt x="717" y="384" on="1"/>
        <pt x="709" y="384" on="0"/>
        <pt x="700" y="396" on="0"/>
        <pt x="700" y="404" on="1"/>
        <pt x="700" y="414" on="0"/>
        <pt x="708" y="422" on="1"/>
        <pt x="716" y="424" on="0"/>
        <pt x="718" y="424" on="1"/>
        <pt x="727" y="424" on="0"/>
        <pt x="735" y="419" on="1"/>
        <pt x="737" y="413" on="0"/>
      </contour>
      <contour>
        <pt x="340" y="727" on="1"/>
        <pt x="335" y="719" on="0"/>
        <pt x="330" y="705" on="0"/>
        <pt x="318" y="704" on="1"/>
        <pt x="310" y="708" on="0"/>
        <pt x="299" y="717" on="0"/>
        <pt x="299" y="727" on="1"/>
        <pt x="299" y="730" on="0"/>
        <pt x="301" y="736" on="1"/>
        <pt x="306" y="738" on="0"/>
        <pt x="317" y="742" on="0"/>
        <pt x="323" y="742" on="1"/>
        <pt x="331" y="742" on="0"/>
        <pt x="337" y="733" on="0"/>
      </contour>
      <contour>
        <pt x="736" y="305" on="1"/>
        <pt x="735" y="297" on="0"/>
        <pt x="726" y="288" on="1"/>
        <pt x="722" y="287" on="0"/>
        <pt x="716" y="286" on="0"/>
        <pt x="712" y="286" on="1"/>
        <pt x="707" y="286" on="0"/>
        <pt x="706" y="289" on="1"/>
        <pt x="703" y="292" on="0"/>
        <pt x="696" y="297" on="0"/>
        <pt x="694" y="301" on="1"/>
        <pt x="694" y="315" on="0"/>
        <pt x="698" y="319" on="1"/>
        <pt x="720" y="328" on="1"/>
        <pt x="722" y="324" on="0"/>
        <pt x="727" y="319" on="0"/>
        <pt x="732" y="317" on="1"/>
      </contour>
      <contour>
        <pt x="249" y="723" on="1"/>
        <pt x="249" y="720" on="0"/>
        <pt x="248" y="715" on="0"/>
        <pt x="248" y="713" on="1"/>
        <pt x="243" y="710" on="0"/>
        <pt x="240" y="703" on="0"/>
        <pt x="233" y="700" on="1"/>
        <pt x="230" y="700" on="0"/>
        <pt x="224" y="698" on="0"/>
        <pt x="221" y="698" on="1"/>
        <pt x="214" y="698" on="0"/>
        <pt x="204" y="715" on="0"/>
        <pt x="204" y="721" on="1"/>
        <pt x="204" y="729" on="0"/>
        <pt x="219" y="738" on="0"/>
        <pt x="226" y="738" on="1"/>
        <pt x="232" y="738" on="0"/>
        <pt x="249" y="730" on="0"/>
      </contour>
      <contour>
        <pt x="721" y="221" on="1"/>
        <pt x="721" y="212" on="0"/>
        <pt x="709" y="197" on="0"/>
        <pt x="699" y="197" on="1"/>
        <pt x="694" y="197" on="0"/>
        <pt x="688" y="201" on="1"/>
        <pt x="687" y="205" on="0"/>
        <pt x="680" y="209" on="0"/>
        <pt x="677" y="211" on="1"/>
        <pt x="679" y="216" on="0"/>
        <pt x="680" y="221" on="0"/>
        <pt x="679" y="226" on="1"/>
        <pt x="686" y="233" on="0"/>
        <pt x="701" y="237" on="0"/>
        <pt x="710" y="241" on="1"/>
        <pt x="707" y="237" on="1"/>
        <pt x="715" y="233" on="0"/>
        <pt x="719" y="232" on="1"/>
        <pt x="721" y="226" on="0"/>
      </contour>
      <contour>
        <pt x="142" y="715" on="1"/>
        <pt x="142" y="708" on="0"/>
        <pt x="133" y="699" on="0"/>
        <pt x="129" y="695" on="1"/>
        <pt x="123" y="696" on="0"/>
        <pt x="112" y="699" on="0"/>
        <pt x="108" y="704" on="1"/>
        <pt x="99" y="708" on="0"/>
        <pt x="99" y="715" on="1"/>
        <pt x="99" y="723" on="0"/>
        <pt x="115" y="734" on="0"/>
        <pt x="123" y="734" on="1"/>
        <pt x="131" y="734" on="0"/>
        <pt x="142" y="723" on="0"/>
      </contour>
      <contour>
        <pt x="685" y="126" on="1"/>
        <pt x="682" y="118" on="0"/>
        <pt x="670" y="101" on="0"/>
        <pt x="661" y="101" on="1"/>
        <pt x="653" y="101" on="0"/>
        <pt x="644" y="113" on="0"/>
        <pt x="640" y="119" on="1"/>
        <pt x="640" y="124" on="0"/>
        <pt x="642" y="130" on="1"/>
        <pt x="643" y="133" on="0"/>
        <pt x="643" y="135" on="1"/>
        <pt x="644" y="137" on="0"/>
        <pt x="646" y="138" on="1"/>
        <pt x="650" y="140" on="0"/>
        <pt x="652" y="140" on="1"/>
        <pt x="660" y="144" on="0"/>
        <pt x="665" y="144" on="1"/>
        <pt x="669" y="144" on="1"/>
      </contour>
      <contour>
        <pt x="144" y="620" on="1"/>
        <pt x="144" y="616" on="0"/>
        <pt x="143" y="610" on="0"/>
        <pt x="144" y="606" on="1"/>
        <pt x="138" y="604" on="0"/>
        <pt x="128" y="596" on="0"/>
        <pt x="122" y="596" on="1"/>
        <pt x="114" y="596" on="0"/>
        <pt x="104" y="609" on="0"/>
        <pt x="104" y="617" on="1"/>
        <pt x="104" y="626" on="0"/>
        <pt x="118" y="635" on="0"/>
        <pt x="127" y="635" on="1"/>
        <pt x="132" y="635" on="0"/>
        <pt x="141" y="629" on="0"/>
        <pt x="144" y="625" on="1"/>
      </contour>
      <contour>
        <pt x="601" y="59" on="1"/>
        <pt x="599" y="52" on="0"/>
        <pt x="596" y="39" on="0"/>
        <pt x="593" y="32" on="1"/>
        <pt x="592" y="33" on="0"/>
        <pt x="589" y="33" on="1"/>
        <pt x="585" y="32" on="0"/>
        <pt x="580" y="30" on="0"/>
        <pt x="576" y="30" on="1"/>
        <pt x="573" y="32" on="0"/>
        <pt x="565" y="35" on="0"/>
        <pt x="562" y="37" on="1"/>
        <pt x="559" y="44" on="0"/>
        <pt x="559" y="53" on="1"/>
        <pt x="565" y="58" on="0"/>
        <pt x="568" y="73" on="0"/>
        <pt x="579" y="73" on="1"/>
        <pt x="582" y="73" on="0"/>
        <pt x="588" y="71" on="1"/>
        <pt x="592" y="69" on="0"/>
        <pt x="598" y="62" on="0"/>
      </contour>
      <contour>
        <pt x="140" y="521" on="1"/>
        <pt x="138" y="517" on="0"/>
        <pt x="139" y="510" on="0"/>
        <pt x="137" y="506" on="1"/>
        <pt x="132" y="503" on="0"/>
        <pt x="122" y="497" on="0"/>
        <pt x="117" y="494" on="1"/>
        <pt x="109" y="494" on="0"/>
        <pt x="97" y="506" on="0"/>
        <pt x="93" y="514" on="1"/>
        <pt x="96" y="518" on="0"/>
        <pt x="98" y="526" on="0"/>
        <pt x="101" y="530" on="1"/>
        <pt x="107" y="531" on="0"/>
        <pt x="114" y="535" on="0"/>
        <pt x="121" y="535" on="1"/>
        <pt x="126" y="531" on="0"/>
        <pt x="135" y="526" on="0"/>
      </contour>
      <contour>
        <pt x="147" y="424" on="1"/>
        <pt x="147" y="417" on="0"/>
        <pt x="143" y="411" on="0"/>
        <pt x="142" y="405" on="1"/>
        <pt x="137" y="404" on="0"/>
        <pt x="125" y="400" on="0"/>
        <pt x="122" y="400" on="1"/>
        <pt x="115" y="400" on="0"/>
        <pt x="107" y="416" on="0"/>
        <pt x="107" y="421" on="1"/>
        <pt x="107" y="429" on="0"/>
        <pt x="117" y="443" on="0"/>
        <pt x="126" y="443" on="1"/>
        <pt x="131" y="443" on="0"/>
        <pt x="143" y="434" on="0"/>
        <pt x="147" y="432" on="1"/>
      </contour>
      <contour>
        <pt x="494" y="20" on="1"/>
        <pt x="485" y="-1" on="1"/>
        <pt x="477" y="-4" on="0"/>
        <pt x="469" y="-4" on="1"/>
        <pt x="466" y="-4" on="0"/>
        <pt x="459" y="-3" on="0"/>
        <pt x="456" y="-3" on="1"/>
        <pt x="449" y="25" on="1"/>
        <pt x="458" y="36" on="0"/>
        <pt x="471" y="36" on="1"/>
        <pt x="480" y="36" on="0"/>
        <pt x="487" y="29" on="1"/>
        <pt x="488" y="24" on="0"/>
        <pt x="488" y="22" on="0"/>
      </contour>
      <contour>
        <pt x="132" y="335" on="1"/>
        <pt x="135" y="326" on="1"/>
        <pt x="137" y="320" on="0"/>
        <pt x="137" y="318" on="1"/>
        <pt x="137" y="313" on="0"/>
        <pt x="129" y="303" on="0"/>
        <pt x="126" y="299" on="1"/>
        <pt x="120" y="297" on="0"/>
        <pt x="116" y="297" on="1"/>
        <pt x="111" y="297" on="0"/>
        <pt x="101" y="301" on="1"/>
        <pt x="96" y="307" on="0"/>
        <pt x="96" y="317" on="1"/>
        <pt x="96" y="326" on="0"/>
        <pt x="99" y="332" on="1"/>
        <pt x="109" y="339" on="0"/>
        <pt x="118" y="340" on="1"/>
        <pt x="123" y="339" on="0"/>
        <pt x="126" y="337" on="0"/>
      </contour>
      <contour>
        <pt x="360" y="13" on="1"/>
        <pt x="359" y="6" on="0"/>
        <pt x="354" y="4" on="0"/>
        <pt x="356" y="-4" on="1"/>
        <pt x="351" y="-5" on="0"/>
        <pt x="338" y="-11" on="0"/>
        <pt x="335" y="-11" on="1"/>
        <pt x="329" y="-11" on="0"/>
        <pt x="319" y="6" on="0"/>
        <pt x="319" y="12" on="1"/>
        <pt x="319" y="19" on="0"/>
        <pt x="334" y="31" on="0"/>
        <pt x="340" y="31" on="1"/>
        <pt x="348" y="31" on="1"/>
        <pt x="354" y="27" on="0"/>
        <pt x="357" y="18" on="0"/>
      </contour>
      <contour>
        <pt x="147" y="208" on="1"/>
        <pt x="145" y="200" on="0"/>
        <pt x="133" y="188" on="0"/>
        <pt x="125" y="184" on="1"/>
        <pt x="120" y="189" on="0"/>
        <pt x="107" y="196" on="0"/>
        <pt x="107" y="204" on="1"/>
        <pt x="107" y="208" on="0"/>
        <pt x="108" y="214" on="0"/>
        <pt x="108" y="218" on="1"/>
        <pt x="112" y="221" on="0"/>
        <pt x="122" y="228" on="0"/>
        <pt x="127" y="228" on="1"/>
        <pt x="135" y="228" on="0"/>
        <pt x="145" y="215" on="0"/>
      </contour>
      <contour>
        <pt x="261" y="16" on="1"/>
        <pt x="261" y="9" on="0"/>
        <pt x="255" y="-2" on="0"/>
        <pt x="254" y="-8" on="1"/>
        <pt x="248" y="-8" on="0"/>
        <pt x="243" y="-12" on="0"/>
        <pt x="239" y="-12" on="1"/>
        <pt x="229" y="-12" on="0"/>
        <pt x="218" y="2" on="0"/>
        <pt x="218" y="11" on="1"/>
        <pt x="218" y="19" on="0"/>
        <pt x="228" y="27" on="0"/>
        <pt x="232" y="33" on="1"/>
        <pt x="243" y="31" on="0"/>
        <pt x="254" y="25" on="0"/>
      </contour>
      <contour>
        <pt x="145" y="111" on="1"/>
        <pt x="145" y="103" on="0"/>
        <pt x="137" y="101" on="1"/>
        <pt x="134" y="97" on="0"/>
        <pt x="125" y="91" on="0"/>
        <pt x="120" y="91" on="1"/>
        <pt x="116" y="91" on="0"/>
        <pt x="110" y="95" on="1"/>
        <pt x="100" y="115" on="1"/>
        <pt x="112" y="129" on="1"/>
        <pt x="119" y="132" on="0"/>
        <pt x="127" y="132" on="1"/>
        <pt x="138" y="132" on="0"/>
        <pt x="144" y="122" on="1"/>
        <pt x="144" y="120" on="0"/>
        <pt x="145" y="114" on="0"/>
      </contour>
      <contour>
        <pt x="144" y="12" on="1"/>
        <pt x="144" y="7" on="0"/>
        <pt x="137" y="-2" on="0"/>
        <pt x="136" y="-7" on="1"/>
        <pt x="131" y="-7" on="1"/>
        <pt x="129" y="-8" on="0"/>
        <pt x="123" y="-10" on="0"/>
        <pt x="121" y="-10" on="1"/>
        <pt x="119" y="-10" on="0"/>
        <pt x="113" y="-8" on="1"/>
        <pt x="111" y="-3" on="0"/>
        <pt x="107" y="-1" on="0"/>
        <pt x="104" y="2" on="1"/>
        <pt x="102" y="7" on="0"/>
        <pt x="102" y="12" on="0"/>
        <pt x="99" y="17" on="1"/>
        <pt x="101" y="21" on="0"/>
        <pt x="108" y="28" on="0"/>
        <pt x="113" y="30" on="1"/>
        <pt x="116" y="33" on="0"/>
        <pt x="123" y="33" on="1"/>
        <pt x="128" y="33" on="1"/>
        <pt x="133" y="28" on="0"/>
        <pt x="144" y="20" on="0"/>
      </contour>
    </TTGlyph>
    <TTGlyph name="E" xMin="87" yMin="-16" xMax="586" yMax="750">
      <contour>
        <pt x="586" y="729" on="1"/>
        <pt x="586" y="721" on="0"/>
        <pt x="570" y="707" on="0"/>
        <pt x="562" y="707" on="1"/>
        <pt x="556" y="707" on="1"/>
        <pt x="552" y="712" on="0"/>
        <pt x="546" y="721" on="0"/>
        <pt x="543" y="726" on="1"/>
        <pt x="545" y="732" on="0"/>
        <pt x="546" y="735" on="0"/>
        <pt x="544" y="741" on="1"/>
        <pt x="559" y="748" on="0"/>
        <pt x="571" y="749" on="1"/>
        <pt x="579" y="741" on="0"/>
        <pt x="584" y="739" on="1"/>
        <pt x="586" y="731" on="0"/>
      </contour>
      <contour>
        <pt x="499" y="728" on="1"/>
        <pt x="499" y="722" on="1"/>
        <pt x="492" y="719" on="0"/>
        <pt x="491" y="712" on="1"/>
        <pt x="487" y="711" on="0"/>
        <pt x="480" y="709" on="0"/>
        <pt x="475" y="709" on="1"/>
        <pt x="472" y="709" on="0"/>
        <pt x="466" y="711" on="0"/>
        <pt x="462" y="711" on="1"/>
        <pt x="462" y="716" on="0"/>
        <pt x="459" y="723" on="0"/>
        <pt x="459" y="727" on="1"/>
        <pt x="459" y="734" on="0"/>
        <pt x="472" y="745" on="0"/>
        <pt x="477" y="748" on="1"/>
        <pt x="482" y="747" on="0"/>
        <pt x="486" y="743" on="0"/>
        <pt x="491" y="745" on="1"/>
        <pt x="493" y="741" on="0"/>
        <pt x="499" y="733" on="0"/>
      </contour>
      <contour>
        <pt x="416" y="727" on="1"/>
        <pt x="402" y="707" on="1"/>
        <pt x="396" y="708" on="0"/>
        <pt x="388" y="708" on="0"/>
        <pt x="382" y="709" on="0"/>
        <pt x="376" y="714" on="0"/>
        <pt x="371" y="721" on="1"/>
        <pt x="371" y="729" on="1"/>
        <pt x="371" y="733" on="0"/>
        <pt x="373" y="737" on="0"/>
        <pt x="375" y="740" on="1"/>
        <pt x="379" y="744" on="0"/>
        <pt x="388" y="748" on="0"/>
        <pt x="393" y="750" on="1"/>
        <pt x="398" y="747" on="0"/>
        <pt x="404" y="741" on="0"/>
        <pt x="409" y="740" on="1"/>
      </contour>
      <contour>
        <pt x="318" y="736" on="1"/>
        <pt x="318" y="725" on="0"/>
        <pt x="307" y="709" on="0"/>
        <pt x="295" y="709" on="1"/>
        <pt x="286" y="709" on="1"/>
        <pt x="279" y="719" on="0"/>
        <pt x="279" y="728" on="1"/>
        <pt x="279" y="736" on="1"/>
        <pt x="285" y="741" on="0"/>
        <pt x="288" y="748" on="0"/>
        <pt x="297" y="748" on="1"/>
        <pt x="304" y="748" on="0"/>
        <pt x="313" y="741" on="0"/>
      </contour>
      <contour>
        <pt x="229" y="729" on="1"/>
        <pt x="229" y="719" on="0"/>
        <pt x="223" y="707" on="0"/>
        <pt x="212" y="707" on="1"/>
        <pt x="207" y="707" on="0"/>
        <pt x="199" y="712" on="0"/>
        <pt x="194" y="715" on="1"/>
        <pt x="193" y="717" on="0"/>
        <pt x="191" y="722" on="0"/>
        <pt x="191" y="725" on="1"/>
        <pt x="191" y="734" on="0"/>
        <pt x="206" y="744" on="0"/>
        <pt x="214" y="744" on="1"/>
        <pt x="216" y="744" on="0"/>
        <pt x="221" y="743" on="0"/>
        <pt x="224" y="743" on="1"/>
        <pt x="225" y="739" on="0"/>
        <pt x="229" y="733" on="0"/>
      </contour>
      <contour>
        <pt x="492" y="383" on="1"/>
        <pt x="492" y="380" on="0"/>
        <pt x="490" y="376" on="1"/>
        <pt x="482" y="368" on="0"/>
        <pt x="473" y="365" on="0"/>
        <pt x="462" y="364" on="1"/>
        <pt x="457" y="368" on="0"/>
        <pt x="455" y="377" on="0"/>
        <pt x="450" y="381" on="1"/>
        <pt x="459" y="399" on="1"/>
        <pt x="465" y="399" on="1"/>
        <pt x="467" y="400" on="0"/>
        <pt x="473" y="403" on="0"/>
        <pt x="476" y="403" on="1"/>
        <pt x="478" y="403" on="0"/>
        <pt x="484" y="401" on="1"/>
        <pt x="486" y="396" on="0"/>
        <pt x="492" y="388" on="0"/>
      </contour>
      <contour>
        <pt x="147" y="724" on="1"/>
        <pt x="145" y="719" on="0"/>
        <pt x="141" y="712" on="0"/>
        <pt x="141" y="706" on="1"/>
        <pt x="135" y="706" on="1"/>
        <pt x="133" y="704" on="0"/>
        <pt x="132" y="699" on="0"/>
        <pt x="130" y="697" on="1"/>
        <pt x="122" y="699" on="0"/>
        <pt x="101" y="708" on="0"/>
        <pt x="101" y="719" on="1"/>
        <pt x="101" y="728" on="0"/>
        <pt x="113" y="739" on="0"/>
        <pt x="121" y="739" on="1"/>
        <pt x="125" y="739" on="0"/>
        <pt x="131" y="737" on="1"/>
        <pt x="133" y="732" on="0"/>
        <pt x="143" y="728" on="0"/>
      </contour>
      <contour>
        <pt x="405" y="382" on="1"/>
        <pt x="405" y="376" on="0"/>
        <pt x="398" y="367" on="0"/>
        <pt x="393" y="364" on="1"/>
        <pt x="389" y="366" on="1"/>
        <pt x="387" y="366" on="0"/>
        <pt x="386" y="365" on="0"/>
        <pt x="384" y="365" on="1"/>
        <pt x="376" y="365" on="0"/>
        <pt x="367" y="377" on="0"/>
        <pt x="367" y="385" on="1"/>
        <pt x="367" y="395" on="0"/>
        <pt x="375" y="401" on="1"/>
        <pt x="380" y="401" on="0"/>
        <pt x="390" y="403" on="1"/>
        <pt x="396" y="400" on="0"/>
        <pt x="405" y="390" on="0"/>
      </contour>
      <contour>
        <pt x="130" y="647" on="1"/>
        <pt x="130" y="642" on="0"/>
        <pt x="128" y="634" on="0"/>
        <pt x="127" y="630" on="1"/>
        <pt x="118" y="630" on="1"/>
        <pt x="115" y="630" on="0"/>
        <pt x="110" y="625" on="1"/>
        <pt x="94" y="632" on="0"/>
        <pt x="88" y="648" on="1"/>
        <pt x="93" y="652" on="0"/>
        <pt x="104" y="660" on="0"/>
        <pt x="108" y="665" on="1"/>
        <pt x="115" y="664" on="0"/>
        <pt x="130" y="656" on="0"/>
      </contour>
      <contour>
        <pt x="142" y="564" on="1"/>
        <pt x="137" y="557" on="0"/>
        <pt x="134" y="547" on="1"/>
        <pt x="129" y="548" on="0"/>
        <pt x="120" y="546" on="0"/>
        <pt x="115" y="546" on="1"/>
        <pt x="108" y="546" on="0"/>
        <pt x="104" y="549" on="1"/>
        <pt x="102" y="554" on="0"/>
        <pt x="96" y="562" on="0"/>
        <pt x="96" y="567" on="1"/>
        <pt x="96" y="569" on="0"/>
        <pt x="98" y="575" on="1"/>
        <pt x="102" y="579" on="0"/>
        <pt x="112" y="583" on="0"/>
        <pt x="116" y="587" on="1"/>
        <pt x="123" y="586" on="0"/>
        <pt x="131" y="581" on="0"/>
        <pt x="136" y="578" on="1"/>
        <pt x="138" y="574" on="0"/>
        <pt x="140" y="567" on="0"/>
      </contour>
      <contour>
        <pt x="306" y="387" on="1"/>
        <pt x="303" y="378" on="0"/>
        <pt x="294" y="362" on="0"/>
        <pt x="282" y="362" on="1"/>
        <pt x="278" y="364" on="0"/>
        <pt x="269" y="366" on="0"/>
        <pt x="266" y="369" on="1"/>
        <pt x="263" y="375" on="0"/>
        <pt x="263" y="382" on="1"/>
        <pt x="263" y="385" on="0"/>
        <pt x="265" y="389" on="0"/>
        <pt x="266" y="392" on="1"/>
        <pt x="279" y="402" on="1"/>
        <pt x="289" y="403" on="1"/>
        <pt x="293" y="399" on="0"/>
        <pt x="302" y="392" on="0"/>
      </contour>
      <contour>
        <pt x="146" y="475" on="1"/>
        <pt x="144" y="467" on="0"/>
        <pt x="136" y="455" on="0"/>
        <pt x="137" y="446" on="1"/>
        <pt x="132" y="446" on="0"/>
        <pt x="124" y="447" on="0"/>
        <pt x="120" y="447" on="1"/>
        <pt x="119" y="447" on="0"/>
        <pt x="115" y="446" on="0"/>
        <pt x="115" y="445" on="1"/>
        <pt x="110" y="449" on="0"/>
        <pt x="106" y="452" on="0"/>
        <pt x="100" y="454" on="1"/>
        <pt x="100" y="458" on="0"/>
        <pt x="101" y="463" on="0"/>
        <pt x="102" y="467" on="1"/>
        <pt x="102" y="468" on="0"/>
        <pt x="100" y="472" on="1"/>
        <pt x="104" y="477" on="0"/>
        <pt x="115" y="486" on="0"/>
        <pt x="123" y="486" on="1"/>
        <pt x="130" y="486" on="0"/>
        <pt x="135" y="479" on="1"/>
      </contour>
      <contour>
        <pt x="210" y="377" on="1"/>
        <pt x="201" y="363" on="0"/>
        <pt x="186" y="363" on="1"/>
        <pt x="182" y="363" on="0"/>
        <pt x="174" y="365" on="1"/>
        <pt x="173" y="369" on="0"/>
        <pt x="169" y="375" on="0"/>
        <pt x="169" y="380" on="1"/>
        <pt x="169" y="385" on="1"/>
        <pt x="171" y="390" on="0"/>
        <pt x="176" y="397" on="0"/>
        <pt x="176" y="402" on="1"/>
        <pt x="184" y="402" on="0"/>
        <pt x="198" y="397" on="0"/>
        <pt x="206" y="395" on="1"/>
        <pt x="208" y="390" on="0"/>
        <pt x="208" y="382" on="0"/>
      </contour>
      <contour>
        <pt x="576" y="1" on="1"/>
        <pt x="569" y="-6" on="0"/>
        <pt x="555" y="-9" on="0"/>
        <pt x="547" y="-12" on="1"/>
        <pt x="533" y="-3" on="0"/>
        <pt x="533" y="11" on="1"/>
        <pt x="533" y="17" on="0"/>
        <pt x="547" y="32" on="0"/>
        <pt x="554" y="32" on="1"/>
        <pt x="562" y="32" on="0"/>
        <pt x="566" y="25" on="0"/>
        <pt x="571" y="24" on="1"/>
        <pt x="575" y="18" on="0"/>
        <pt x="574" y="13" on="0"/>
        <pt x="574" y="7" on="1"/>
        <pt x="574" y="3" on="0"/>
      </contour>
      <contour>
        <pt x="141" y="384" on="1"/>
        <pt x="138" y="378" on="0"/>
        <pt x="131" y="365" on="0"/>
        <pt x="125" y="361" on="1"/>
        <pt x="120" y="361" on="0"/>
        <pt x="110" y="360" on="0"/>
        <pt x="105" y="360" on="1"/>
        <pt x="105" y="367" on="0"/>
        <pt x="97" y="371" on="0"/>
        <pt x="97" y="380" on="1"/>
        <pt x="97" y="385" on="0"/>
        <pt x="103" y="394" on="0"/>
        <pt x="107" y="398" on="1"/>
        <pt x="111" y="398" on="1"/>
        <pt x="113" y="398" on="0"/>
        <pt x="116" y="399" on="0"/>
        <pt x="118" y="399" on="1"/>
        <pt x="124" y="399" on="1"/>
      </contour>
      <contour>
        <pt x="492" y="5" on="1"/>
        <pt x="492" y="1" on="0"/>
        <pt x="488" y="-5" on="0"/>
        <pt x="486" y="-9" on="1"/>
        <pt x="476" y="-14" on="0"/>
        <pt x="462" y="-14" on="1"/>
        <pt x="458" y="-10" on="0"/>
        <pt x="453" y="-2" on="0"/>
        <pt x="450" y="2" on="1"/>
        <pt x="450" y="7" on="0"/>
        <pt x="452" y="16" on="0"/>
        <pt x="452" y="21" on="1"/>
        <pt x="458" y="21" on="0"/>
        <pt x="460" y="27" on="0"/>
        <pt x="461" y="32" on="1"/>
        <pt x="471" y="28" on="0"/>
        <pt x="480" y="25" on="0"/>
        <pt x="486" y="16" on="1"/>
        <pt x="488" y="13" on="0"/>
        <pt x="492" y="9" on="0"/>
      </contour>
      <contour>
        <pt x="135" y="299" on="1"/>
        <pt x="135" y="291" on="0"/>
        <pt x="131" y="278" on="0"/>
        <pt x="131" y="271" on="1"/>
        <pt x="126" y="269" on="0"/>
        <pt x="116" y="265" on="0"/>
        <pt x="111" y="265" on="1"/>
        <pt x="101" y="265" on="1"/>
        <pt x="99" y="273" on="0"/>
        <pt x="94" y="278" on="0"/>
        <pt x="94" y="289" on="1"/>
        <pt x="94" y="294" on="0"/>
        <pt x="95" y="296" on="1"/>
        <pt x="117" y="309" on="1"/>
        <pt x="122" y="305" on="0"/>
        <pt x="129" y="301" on="0"/>
      </contour>
      <contour>
        <pt x="407" y="11" on="1"/>
        <pt x="404" y="5" on="0"/>
        <pt x="403" y="-5" on="0"/>
        <pt x="399" y="-10" on="1"/>
        <pt x="391" y="-13" on="0"/>
        <pt x="385" y="-13" on="1"/>
        <pt x="377" y="-13" on="0"/>
        <pt x="366" y="-1" on="0"/>
        <pt x="366" y="7" on="1"/>
        <pt x="366" y="10" on="0"/>
        <pt x="368" y="14" on="1"/>
        <pt x="370" y="16" on="0"/>
        <pt x="376" y="21" on="0"/>
        <pt x="378" y="24" on="1"/>
        <pt x="381" y="27" on="1"/>
        <pt x="396" y="27" on="0"/>
        <pt x="399" y="21" on="0"/>
      </contour>
      <contour>
        <pt x="139" y="198" on="1"/>
        <pt x="137" y="191" on="0"/>
        <pt x="133" y="187" on="0"/>
        <pt x="134" y="180" on="1"/>
        <pt x="129" y="178" on="0"/>
        <pt x="119" y="174" on="0"/>
        <pt x="114" y="174" on="1"/>
        <pt x="111" y="174" on="0"/>
        <pt x="105" y="175" on="0"/>
        <pt x="102" y="175" on="1"/>
        <pt x="100" y="180" on="0"/>
        <pt x="94" y="188" on="0"/>
        <pt x="94" y="194" on="1"/>
        <pt x="94" y="200" on="1"/>
        <pt x="101" y="214" on="0"/>
        <pt x="112" y="214" on="1"/>
        <pt x="117" y="214" on="0"/>
        <pt x="126" y="212" on="0"/>
        <pt x="131" y="212" on="1"/>
        <pt x="133" y="208" on="0"/>
        <pt x="136" y="201" on="0"/>
      </contour>
      <contour>
        <pt x="315" y="6" on="1"/>
        <pt x="315" y="-2" on="0"/>
        <pt x="305" y="-16" on="0"/>
        <pt x="296" y="-16" on="1"/>
        <pt x="288" y="-16" on="0"/>
        <pt x="275" y="-5" on="0"/>
        <pt x="275" y="4" on="1"/>
        <pt x="275" y="12" on="0"/>
        <pt x="283" y="19" on="0"/>
        <pt x="288" y="24" on="1"/>
        <pt x="296" y="23" on="0"/>
        <pt x="309" y="19" on="0"/>
        <pt x="314" y="13" on="1"/>
        <pt x="315" y="11" on="0"/>
      </contour>
      <contour>
        <pt x="137" y="112" on="1"/>
        <pt x="136" y="107" on="0"/>
        <pt x="133" y="98" on="0"/>
        <pt x="129" y="95" on="1"/>
        <pt x="119" y="91" on="0"/>
        <pt x="113" y="91" on="1"/>
        <pt x="103" y="91" on="0"/>
        <pt x="96" y="104" on="0"/>
        <pt x="95" y="112" on="1"/>
        <pt x="100" y="122" on="0"/>
        <pt x="112" y="134" on="1"/>
        <pt x="117" y="129" on="0"/>
        <pt x="125" y="130" on="0"/>
        <pt x="130" y="125" on="1"/>
        <pt x="130" y="122" on="0"/>
        <pt x="132" y="118" on="1"/>
        <pt x="135" y="117" on="0"/>
      </contour>
      <contour>
        <pt x="227" y="-5" on="1"/>
        <pt x="219" y="-7" on="0"/>
        <pt x="212" y="-13" on="0"/>
        <pt x="204" y="-13" on="1"/>
        <pt x="197" y="-13" on="0"/>
        <pt x="193" y="-9" on="1"/>
        <pt x="191" y="-5" on="0"/>
        <pt x="186" y="1" on="0"/>
        <pt x="186" y="6" on="1"/>
        <pt x="186" y="10" on="0"/>
        <pt x="189" y="16" on="0"/>
        <pt x="190" y="19" on="1"/>
        <pt x="195" y="22" on="0"/>
        <pt x="204" y="29" on="0"/>
        <pt x="211" y="29" on="1"/>
        <pt x="217" y="29" on="0"/>
        <pt x="220" y="28" on="1"/>
        <pt x="221" y="21" on="0"/>
        <pt x="227" y="18" on="0"/>
        <pt x="227" y="13" on="1"/>
        <pt x="227" y="10" on="0"/>
        <pt x="224" y="5" on="0"/>
        <pt x="224" y="3" on="1"/>
        <pt x="224" y="1" on="0"/>
        <pt x="226" y="-3" on="0"/>
      </contour>
      <contour>
        <pt x="129" y="18" on="1"/>
        <pt x="128" y="0" on="0"/>
        <pt x="113" y="-10" on="1"/>
        <pt x="107" y="-6" on="0"/>
        <pt x="99" y="-8" on="1"/>
        <pt x="96" y="-5" on="0"/>
        <pt x="91" y="3" on="0"/>
        <pt x="87" y="5" on="1"/>
        <pt x="87" y="12" on="1"/>
        <pt x="87" y="16" on="0"/>
        <pt x="89" y="22" on="0"/>
        <pt x="89" y="25" on="1"/>
        <pt x="94" y="28" on="0"/>
        <pt x="105" y="32" on="0"/>
        <pt x="110" y="36" on="1"/>
        <pt x="119" y="32" on="0"/>
        <pt x="122" y="23" on="0"/>
      </contour>
    </TTGlyph>
    <TTGlyph name="Eacute" xMin="87" yMin="-16" xMax="586" yMax="943">
      <component glyphName="E" x="0" y="0" flags="0x204"/>
      <component glyphName="acute" x="-50" y="195" flags="0x4"/>
    </TTGlyph>
    <TTGlyph name="Ecircumflex" xMin="87" yMin="-16" xMax="586" yMax="945">
      <component glyphName="E" x="0" y="0" flags="0x204"/>
      <component glyphName="circumflex" x="-60" y="197" flags="0x4"/>
    </TTGlyph>
    <TTGlyph name="Edieresis" xMin="87" yMin="-16" xMax="586" yMax="947">
      <component glyphName="E" x="0" y="0" flags="0x204"/>
      <component glyphName="dieresis" x="-54" y="196" flags="0x4"/>
    </TTGlyph>
    <TTGlyph name="Egrave" xMin="87" yMin="-16" xMax="586" yMax="953">
      <component glyphName="E" x="0" y="0" flags="0x204"/>
      <component glyphName="grave" x="-81" y="205" flags="0x4"/>
    </TTGlyph>
    <TTGlyph name="Eth" xMin="-77" yMin="-9" xMax="739" yMax="745">
      <contour>
        <pt x="625" y="675" on="1"/>
        <pt x="622" y="670" on="0"/>
        <pt x="622" y="663" on="0"/>
        <pt x="622" y="657" on="1"/>
        <pt x="617" y="655" on="0"/>
        <pt x="604" y="644" on="0"/>
        <pt x="599" y="644" on="1"/>
        <pt x="594" y="644" on="0"/>
        <pt x="587" y="649" on="0"/>
        <pt x="582" y="651" on="1"/>
        <pt x="582" y="654" on="0"/>
        <pt x="581" y="659" on="0"/>
        <pt x="581" y="662" on="1"/>
        <pt x="581" y="670" on="0"/>
        <pt x="590" y="685" on="0"/>
        <pt x="599" y="685" on="1"/>
        <pt x="608" y="685" on="0"/>
        <pt x="617" y="678" on="0"/>
      </contour>
      <contour>
        <pt x="692" y="590" on="1"/>
        <pt x="689" y="585" on="0"/>
        <pt x="676" y="572" on="0"/>
        <pt x="669" y="572" on="1"/>
        <pt x="663" y="572" on="0"/>
        <pt x="653" y="580" on="0"/>
        <pt x="649" y="585" on="1"/>
        <pt x="654" y="595" on="0"/>
        <pt x="663" y="613" on="0"/>
        <pt x="676" y="613" on="1"/>
        <pt x="681" y="608" on="0"/>
        <pt x="692" y="598" on="0"/>
      </contour>
      <contour>
        <pt x="531" y="705" on="1"/>
        <pt x="531" y="703" on="0"/>
        <pt x="530" y="698" on="0"/>
        <pt x="530" y="696" on="1"/>
        <pt x="520" y="686" on="0"/>
        <pt x="510" y="686" on="1"/>
        <pt x="501" y="686" on="0"/>
        <pt x="491" y="699" on="0"/>
        <pt x="491" y="707" on="1"/>
        <pt x="491" y="710" on="0"/>
        <pt x="492" y="715" on="0"/>
        <pt x="493" y="718" on="1"/>
        <pt x="500" y="719" on="0"/>
        <pt x="501" y="724" on="0"/>
        <pt x="508" y="726" on="1"/>
        <pt x="516" y="724" on="0"/>
        <pt x="531" y="715" on="0"/>
      </contour>
      <contour>
        <pt x="717" y="504" on="1"/>
        <pt x="717" y="499" on="0"/>
        <pt x="715" y="489" on="1"/>
        <pt x="712" y="488" on="0"/>
        <pt x="705" y="486" on="0"/>
        <pt x="701" y="486" on="1"/>
        <pt x="681" y="491" on="1"/>
        <pt x="680" y="495" on="0"/>
        <pt x="679" y="501" on="0"/>
        <pt x="679" y="505" on="1"/>
        <pt x="679" y="510" on="0"/>
        <pt x="681" y="516" on="0"/>
        <pt x="682" y="520" on="1"/>
        <pt x="689" y="524" on="0"/>
        <pt x="695" y="528" on="0"/>
        <pt x="703" y="528" on="1"/>
        <pt x="705" y="523" on="0"/>
        <pt x="714" y="519" on="0"/>
        <pt x="717" y="515" on="1"/>
      </contour>
      <contour>
        <pt x="438" y="721" on="1"/>
        <pt x="438" y="718" on="0"/>
        <pt x="436" y="714" on="1"/>
        <pt x="432" y="711" on="0"/>
        <pt x="425" y="705" on="0"/>
        <pt x="422" y="702" on="1"/>
        <pt x="408" y="704" on="0"/>
        <pt x="397" y="714" on="0"/>
        <pt x="396" y="728" on="1"/>
        <pt x="409" y="740" on="1"/>
        <pt x="417" y="740" on="1"/>
        <pt x="422" y="740" on="0"/>
        <pt x="430" y="737" on="0"/>
        <pt x="435" y="736" on="1"/>
        <pt x="435" y="730" on="1"/>
        <pt x="436" y="728" on="0"/>
        <pt x="438" y="723" on="0"/>
      </contour>
      <contour>
        <pt x="739" y="415" on="1"/>
        <pt x="739" y="411" on="0"/>
        <pt x="736" y="405" on="0"/>
        <pt x="736" y="402" on="1"/>
        <pt x="736" y="398" on="0"/>
        <pt x="737" y="395" on="1"/>
        <pt x="733" y="392" on="0"/>
        <pt x="724" y="386" on="0"/>
        <pt x="719" y="386" on="1"/>
        <pt x="710" y="386" on="0"/>
        <pt x="702" y="400" on="0"/>
        <pt x="702" y="408" on="1"/>
        <pt x="702" y="418" on="0"/>
        <pt x="709" y="425" on="1"/>
        <pt x="715" y="427" on="0"/>
        <pt x="719" y="427" on="1"/>
        <pt x="724" y="427" on="0"/>
        <pt x="732" y="424" on="0"/>
        <pt x="737" y="422" on="1"/>
        <pt x="739" y="416" on="0"/>
      </contour>
      <contour>
        <pt x="340" y="730" on="1"/>
        <pt x="336" y="721" on="0"/>
        <pt x="332" y="708" on="0"/>
        <pt x="320" y="707" on="1"/>
        <pt x="311" y="711" on="0"/>
        <pt x="301" y="719" on="0"/>
        <pt x="301" y="730" on="1"/>
        <pt x="301" y="733" on="0"/>
        <pt x="303" y="739" on="1"/>
        <pt x="308" y="741" on="0"/>
        <pt x="319" y="745" on="0"/>
        <pt x="324" y="745" on="1"/>
        <pt x="332" y="745" on="0"/>
        <pt x="338" y="736" on="0"/>
      </contour>
      <contour>
        <pt x="738" y="308" on="1"/>
        <pt x="737" y="299" on="0"/>
        <pt x="726" y="292" on="1"/>
        <pt x="720" y="289" on="0"/>
        <pt x="715" y="289" on="1"/>
        <pt x="711" y="289" on="0"/>
        <pt x="696" y="302" on="0"/>
        <pt x="694" y="306" on="1"/>
        <pt x="697" y="309" on="0"/>
        <pt x="697" y="315" on="1"/>
        <pt x="697" y="321" on="1"/>
        <pt x="721" y="331" on="1"/>
        <pt x="724" y="328" on="0"/>
        <pt x="729" y="322" on="0"/>
        <pt x="734" y="320" on="1"/>
      </contour>
      <contour>
        <pt x="251" y="716" on="1"/>
        <pt x="246" y="714" on="0"/>
        <pt x="240" y="706" on="0"/>
        <pt x="235" y="703" on="1"/>
        <pt x="232" y="703" on="0"/>
        <pt x="226" y="702" on="0"/>
        <pt x="223" y="702" on="1"/>
        <pt x="216" y="702" on="0"/>
        <pt x="206" y="717" on="0"/>
        <pt x="206" y="723" on="1"/>
        <pt x="206" y="731" on="0"/>
        <pt x="219" y="741" on="0"/>
        <pt x="227" y="741" on="1"/>
        <pt x="233" y="741" on="0"/>
        <pt x="241" y="736" on="0"/>
        <pt x="246" y="734" on="1"/>
        <pt x="250" y="730" on="0"/>
        <pt x="250" y="721" on="0"/>
      </contour>
      <contour>
        <pt x="723" y="222" on="1"/>
        <pt x="723" y="213" on="0"/>
        <pt x="710" y="199" on="0"/>
        <pt x="701" y="199" on="1"/>
        <pt x="697" y="199" on="0"/>
        <pt x="689" y="203" on="1"/>
        <pt x="688" y="208" on="0"/>
        <pt x="683" y="211" on="0"/>
        <pt x="679" y="215" on="1"/>
        <pt x="681" y="220" on="0"/>
        <pt x="681" y="229" on="1"/>
        <pt x="686" y="234" on="0"/>
        <pt x="701" y="240" on="0"/>
        <pt x="703" y="247" on="1"/>
        <pt x="720" y="233" on="1"/>
        <pt x="723" y="228" on="0"/>
      </contour>
      <contour>
        <pt x="143" y="718" on="1"/>
        <pt x="143" y="710" on="0"/>
        <pt x="134" y="704" on="0"/>
        <pt x="134" y="696" on="1"/>
        <pt x="127" y="697" on="0"/>
        <pt x="102" y="710" on="0"/>
        <pt x="102" y="718" on="1"/>
        <pt x="102" y="726" on="0"/>
        <pt x="117" y="737" on="0"/>
        <pt x="124" y="737" on="1"/>
        <pt x="143" y="737" on="0"/>
      </contour>
      <contour>
        <pt x="686" y="128" on="1"/>
        <pt x="682" y="120" on="0"/>
        <pt x="674" y="104" on="0"/>
        <pt x="663" y="104" on="1"/>
        <pt x="655" y="104" on="0"/>
        <pt x="645" y="116" on="0"/>
        <pt x="640" y="123" on="1"/>
        <pt x="644" y="128" on="0"/>
        <pt x="645" y="137" on="0"/>
        <pt x="645" y="143" on="1"/>
        <pt x="652" y="143" on="1"/>
        <pt x="654" y="143" on="0"/>
        <pt x="661" y="147" on="0"/>
        <pt x="666" y="147" on="1"/>
        <pt x="670" y="147" on="1"/>
        <pt x="675" y="142" on="0"/>
        <pt x="683" y="133" on="0"/>
      </contour>
      <contour>
        <pt x="146" y="628" on="1"/>
        <pt x="146" y="623" on="0"/>
        <pt x="145" y="612" on="0"/>
        <pt x="146" y="607" on="1"/>
        <pt x="140" y="606" on="0"/>
        <pt x="129" y="599" on="0"/>
        <pt x="123" y="599" on="1"/>
        <pt x="115" y="599" on="0"/>
        <pt x="105" y="612" on="0"/>
        <pt x="105" y="620" on="1"/>
        <pt x="105" y="627" on="0"/>
        <pt x="109" y="632" on="1"/>
        <pt x="114" y="634" on="0"/>
        <pt x="122" y="639" on="0"/>
        <pt x="128" y="639" on="1"/>
        <pt x="139" y="639" on="0"/>
      </contour>
      <contour>
        <pt x="309" y="385" on="1"/>
        <pt x="304" y="376" on="0"/>
        <pt x="300" y="365" on="0"/>
        <pt x="289" y="362" on="1"/>
        <pt x="284" y="364" on="0"/>
        <pt x="275" y="368" on="0"/>
        <pt x="271" y="372" on="1"/>
        <pt x="268" y="379" on="0"/>
        <pt x="268" y="386" on="1"/>
        <pt x="268" y="389" on="0"/>
        <pt x="270" y="393" on="1"/>
        <pt x="281" y="402" on="1"/>
        <pt x="286" y="402" on="1"/>
        <pt x="295" y="402" on="0"/>
        <pt x="305" y="393" on="0"/>
      </contour>
      <contour>
        <pt x="140" y="515" on="1"/>
        <pt x="140" y="510" on="0"/>
        <pt x="123" y="499" on="0"/>
        <pt x="119" y="497" on="1"/>
        <pt x="110" y="497" on="0"/>
        <pt x="98" y="508" on="0"/>
        <pt x="95" y="516" on="1"/>
        <pt x="103" y="532" on="1"/>
        <pt x="109" y="534" on="0"/>
        <pt x="116" y="539" on="0"/>
        <pt x="123" y="539" on="1"/>
        <pt x="127" y="536" on="0"/>
        <pt x="138" y="528" on="0"/>
        <pt x="140" y="523" on="1"/>
        <pt x="139" y="521" on="0"/>
        <pt x="140" y="517" on="0"/>
      </contour>
      <contour>
        <pt x="602" y="62" on="1"/>
        <pt x="602" y="50" on="0"/>
        <pt x="595" y="36" on="1"/>
        <pt x="589" y="36" on="1"/>
        <pt x="586" y="35" on="0"/>
        <pt x="582" y="33" on="0"/>
        <pt x="579" y="33" on="1"/>
        <pt x="574" y="35" on="0"/>
        <pt x="567" y="37" on="0"/>
        <pt x="564" y="40" on="1"/>
        <pt x="560" y="55" on="1"/>
        <pt x="563" y="60" on="0"/>
        <pt x="572" y="76" on="0"/>
        <pt x="580" y="76" on="1"/>
        <pt x="589" y="76" on="0"/>
        <pt x="596" y="68" on="0"/>
      </contour>
      <contour>
        <pt x="218" y="381" on="1"/>
        <pt x="218" y="379" on="0"/>
        <pt x="217" y="373" on="0"/>
        <pt x="217" y="371" on="1"/>
        <pt x="212" y="369" on="0"/>
        <pt x="208" y="360" on="0"/>
        <pt x="204" y="357" on="1"/>
        <pt x="200" y="357" on="0"/>
        <pt x="194" y="356" on="0"/>
        <pt x="191" y="356" on="1"/>
        <pt x="183" y="356" on="0"/>
        <pt x="173" y="372" on="0"/>
        <pt x="173" y="379" on="1"/>
        <pt x="173" y="388" on="0"/>
        <pt x="190" y="397" on="0"/>
        <pt x="198" y="397" on="1"/>
        <pt x="203" y="397" on="0"/>
        <pt x="218" y="387" on="0"/>
      </contour>
      <contour>
        <pt x="149" y="428" on="1"/>
        <pt x="149" y="420" on="0"/>
        <pt x="144" y="415" on="0"/>
        <pt x="143" y="408" on="1"/>
        <pt x="138" y="406" on="0"/>
        <pt x="128" y="404" on="0"/>
        <pt x="123" y="404" on="1"/>
        <pt x="119" y="404" on="1"/>
        <pt x="108" y="413" on="0"/>
        <pt x="108" y="424" on="1"/>
        <pt x="108" y="432" on="0"/>
        <pt x="117" y="445" on="0"/>
        <pt x="127" y="445" on="1"/>
        <pt x="134" y="445" on="0"/>
        <pt x="141" y="437" on="0"/>
        <pt x="149" y="437" on="1"/>
      </contour>
      <contour>
        <pt x="496" y="23" on="1"/>
        <pt x="485" y="2" on="1"/>
        <pt x="479" y="-1" on="0"/>
        <pt x="471" y="-1" on="1"/>
        <pt x="467" y="-1" on="0"/>
        <pt x="461" y="0" on="0"/>
        <pt x="458" y="0" on="1"/>
        <pt x="456" y="5" on="0"/>
        <pt x="451" y="14" on="0"/>
        <pt x="451" y="19" on="1"/>
        <pt x="451" y="21" on="0"/>
        <pt x="452" y="26" on="0"/>
        <pt x="452" y="29" on="1"/>
        <pt x="460" y="39" on="0"/>
        <pt x="472" y="39" on="1"/>
        <pt x="482" y="39" on="0"/>
        <pt x="488" y="32" on="1"/>
        <pt x="489" y="25" on="0"/>
      </contour>
      <contour>
        <pt x="137" y="329" on="1"/>
        <pt x="139" y="323" on="0"/>
        <pt x="139" y="321" on="1"/>
        <pt x="139" y="314" on="0"/>
        <pt x="126" y="300" on="0"/>
        <pt x="118" y="300" on="1"/>
        <pt x="113" y="300" on="0"/>
        <pt x="103" y="304" on="1"/>
        <pt x="98" y="309" on="0"/>
        <pt x="98" y="319" on="1"/>
        <pt x="98" y="327" on="0"/>
        <pt x="101" y="335" on="1"/>
        <pt x="106" y="338" on="0"/>
        <pt x="114" y="341" on="0"/>
        <pt x="119" y="343" on="1"/>
        <pt x="127" y="341" on="0"/>
        <pt x="142" y="336" on="0"/>
      </contour>
      <contour>
        <pt x="72" y="381" on="1"/>
        <pt x="72" y="378" on="0"/>
        <pt x="71" y="373" on="0"/>
        <pt x="71" y="371" on="1"/>
        <pt x="66" y="369" on="0"/>
        <pt x="62" y="360" on="0"/>
        <pt x="58" y="357" on="1"/>
        <pt x="54" y="357" on="0"/>
        <pt x="48" y="356" on="0"/>
        <pt x="45" y="356" on="1"/>
        <pt x="38" y="356" on="0"/>
        <pt x="28" y="372" on="0"/>
        <pt x="28" y="378" on="1"/>
        <pt x="28" y="387" on="0"/>
        <pt x="43" y="397" on="0"/>
        <pt x="51" y="397" on="1"/>
        <pt x="56" y="397" on="0"/>
        <pt x="72" y="387" on="0"/>
      </contour>
      <contour>
        <pt x="361" y="17" on="1"/>
        <pt x="361" y="10" on="0"/>
        <pt x="357" y="7" on="0"/>
        <pt x="357" y="-1" on="1"/>
        <pt x="353" y="-2" on="0"/>
        <pt x="341" y="-8" on="0"/>
        <pt x="337" y="-8" on="1"/>
        <pt x="331" y="-8" on="0"/>
        <pt x="320" y="8" on="0"/>
        <pt x="320" y="14" on="1"/>
        <pt x="320" y="20" on="0"/>
        <pt x="330" y="29" on="0"/>
        <pt x="335" y="33" on="1"/>
        <pt x="339" y="35" on="0"/>
        <pt x="347" y="34" on="0"/>
        <pt x="351" y="34" on="1"/>
        <pt x="354" y="30" on="0"/>
        <pt x="358" y="21" on="0"/>
      </contour>
      <contour>
        <pt x="150" y="213" on="1"/>
        <pt x="144" y="193" on="0"/>
        <pt x="126" y="189" on="1"/>
        <pt x="124" y="191" on="0"/>
        <pt x="118" y="193" on="0"/>
        <pt x="116" y="195" on="1"/>
        <pt x="108" y="200" on="0"/>
        <pt x="110" y="212" on="0"/>
        <pt x="109" y="220" on="1"/>
        <pt x="114" y="224" on="0"/>
        <pt x="124" y="230" on="0"/>
        <pt x="130" y="230" on="1"/>
        <pt x="140" y="230" on="0"/>
        <pt x="144" y="218" on="0"/>
      </contour>
      <contour>
        <pt x="-35" y="373" on="1"/>
        <pt x="-35" y="365" on="0"/>
        <pt x="-43" y="358" on="0"/>
        <pt x="-48" y="353" on="1"/>
        <pt x="-54" y="354" on="0"/>
        <pt x="-77" y="365" on="0"/>
        <pt x="-77" y="373" on="1"/>
        <pt x="-77" y="381" on="0"/>
        <pt x="-61" y="392" on="0"/>
        <pt x="-54" y="392" on="1"/>
        <pt x="-35" y="392" on="0"/>
      </contour>
      <contour>
        <pt x="263" y="18" on="1"/>
        <pt x="262" y="12" on="0"/>
        <pt x="256" y="1" on="0"/>
        <pt x="255" y="-6" on="1"/>
        <pt x="249" y="-6" on="1"/>
        <pt x="247" y="-7" on="0"/>
        <pt x="242" y="-9" on="0"/>
        <pt x="240" y="-9" on="1"/>
        <pt x="231" y="-9" on="0"/>
        <pt x="219" y="5" on="0"/>
        <pt x="219" y="14" on="1"/>
        <pt x="219" y="21" on="0"/>
        <pt x="231" y="30" on="0"/>
        <pt x="234" y="36" on="1"/>
        <pt x="245" y="33" on="0"/>
        <pt x="256" y="27" on="0"/>
      </contour>
      <contour>
        <pt x="146" y="116" on="1"/>
        <pt x="146" y="105" on="0"/>
        <pt x="137" y="105" on="1"/>
        <pt x="133" y="101" on="0"/>
        <pt x="124" y="95" on="0"/>
        <pt x="119" y="95" on="1"/>
        <pt x="116" y="95" on="0"/>
        <pt x="112" y="97" on="1"/>
        <pt x="108" y="102" on="0"/>
        <pt x="106" y="111" on="0"/>
        <pt x="103" y="116" on="1"/>
        <pt x="105" y="121" on="0"/>
        <pt x="110" y="128" on="0"/>
        <pt x="113" y="133" on="1"/>
        <pt x="116" y="134" on="0"/>
        <pt x="123" y="134" on="0"/>
        <pt x="126" y="134" on="1"/>
        <pt x="138" y="134" on="0"/>
        <pt x="146" y="126" on="1"/>
      </contour>
      <contour>
        <pt x="132" y="18" on="1"/>
        <pt x="132" y="11" on="0"/>
        <pt x="127" y="3" on="0"/>
        <pt x="125" y="-4" on="1"/>
        <pt x="120" y="-4" on="0"/>
        <pt x="113" y="-7" on="0"/>
        <pt x="109" y="-7" on="1"/>
        <pt x="103" y="-7" on="1"/>
        <pt x="101" y="-2" on="0"/>
        <pt x="92" y="5" on="0"/>
        <pt x="91" y="10" on="1"/>
        <pt x="91" y="16" on="0"/>
        <pt x="88" y="20" on="1"/>
        <pt x="91" y="24" on="0"/>
        <pt x="97" y="32" on="0"/>
        <pt x="102" y="33" on="1"/>
        <pt x="105" y="34" on="0"/>
        <pt x="110" y="36" on="0"/>
        <pt x="113" y="36" on="1"/>
        <pt x="118" y="36" on="0"/>
        <pt x="132" y="23" on="0"/>
      </contour>
    </TTGlyph>
    <TTGlyph name="Euro" xMin="27" yMin="-25" xMax="607" yMax="757">
      <contour>
        <pt x="549" y="691" on="1"/>
        <pt x="548" y="675" on="0"/>
        <pt x="536" y="667" on="1"/>
        <pt x="529" y="667" on="1"/>
        <pt x="525" y="667" on="0"/>
        <pt x="519" y="669" on="0"/>
        <pt x="514" y="669" on="1"/>
        <pt x="509" y="676" on="0"/>
        <pt x="509" y="689" on="1"/>
        <pt x="509" y="697" on="1"/>
        <pt x="513" y="700" on="0"/>
        <pt x="522" y="705" on="0"/>
        <pt x="526" y="708" on="1"/>
        <pt x="530" y="705" on="0"/>
        <pt x="536" y="705" on="0"/>
        <pt x="541" y="706" on="1"/>
        <pt x="543" y="698" on="0"/>
        <pt x="544" y="696" on="0"/>
      </contour>
      <contour>
        <pt x="607" y="610" on="1"/>
        <pt x="607" y="605" on="0"/>
        <pt x="598" y="593" on="0"/>
        <pt x="593" y="593" on="1"/>
        <pt x="586" y="593" on="0"/>
        <pt x="574" y="598" on="0"/>
        <pt x="568" y="601" on="1"/>
        <pt x="568" y="618" on="1"/>
        <pt x="571" y="623" on="0"/>
        <pt x="577" y="629" on="0"/>
        <pt x="579" y="634" on="1"/>
        <pt x="586" y="634" on="1"/>
        <pt x="590" y="634" on="0"/>
        <pt x="596" y="630" on="0"/>
        <pt x="599" y="629" on="1"/>
        <pt x="601" y="624" on="0"/>
        <pt x="607" y="615" on="0"/>
      </contour>
      <contour>
        <pt x="478" y="721" on="1"/>
        <pt x="478" y="713" on="0"/>
        <pt x="469" y="702" on="0"/>
        <pt x="461" y="702" on="1"/>
        <pt x="456" y="702" on="0"/>
        <pt x="448" y="706" on="1"/>
        <pt x="445" y="710" on="0"/>
        <pt x="444" y="717" on="0"/>
        <pt x="442" y="721" on="1"/>
        <pt x="442" y="729" on="0"/>
        <pt x="452" y="741" on="0"/>
        <pt x="460" y="741" on="1"/>
        <pt x="464" y="741" on="0"/>
        <pt x="471" y="738" on="0"/>
        <pt x="475" y="737" on="1"/>
        <pt x="476" y="733" on="0"/>
        <pt x="478" y="726" on="0"/>
      </contour>
      <contour>
        <pt x="405" y="739" on="1"/>
        <pt x="405" y="737" on="0"/>
        <pt x="403" y="733" on="1"/>
        <pt x="403" y="719" on="0"/>
        <pt x="389" y="714" on="0"/>
        <pt x="378" y="713" on="1"/>
        <pt x="369" y="724" on="0"/>
        <pt x="369" y="735" on="1"/>
        <pt x="369" y="746" on="1"/>
        <pt x="375" y="747" on="0"/>
        <pt x="377" y="755" on="1"/>
        <pt x="383" y="757" on="0"/>
        <pt x="387" y="757" on="1"/>
        <pt x="400" y="757" on="0"/>
        <pt x="405" y="752" on="0"/>
      </contour>
      <contour>
        <pt x="334" y="708" on="1"/>
        <pt x="334" y="699" on="0"/>
        <pt x="326" y="694" on="0"/>
        <pt x="321" y="688" on="1"/>
        <pt x="316" y="688" on="0"/>
        <pt x="307" y="690" on="0"/>
        <pt x="302" y="692" on="1"/>
        <pt x="299" y="699" on="0"/>
        <pt x="292" y="706" on="1"/>
        <pt x="294" y="711" on="0"/>
        <pt x="296" y="719" on="0"/>
        <pt x="298" y="724" on="1"/>
        <pt x="315" y="731" on="1"/>
        <pt x="320" y="726" on="0"/>
        <pt x="334" y="716" on="0"/>
      </contour>
      <contour>
        <pt x="261" y="647" on="1"/>
        <pt x="261" y="638" on="0"/>
        <pt x="254" y="636" on="0"/>
        <pt x="254" y="626" on="1"/>
        <pt x="246" y="624" on="0"/>
        <pt x="242" y="624" on="1"/>
        <pt x="237" y="624" on="0"/>
        <pt x="230" y="628" on="0"/>
        <pt x="223" y="627" on="1"/>
        <pt x="223" y="632" on="0"/>
        <pt x="222" y="640" on="0"/>
        <pt x="222" y="645" on="1"/>
        <pt x="222" y="650" on="0"/>
        <pt x="231" y="662" on="0"/>
        <pt x="237" y="662" on="1"/>
        <pt x="241" y="662" on="0"/>
        <pt x="247" y="661" on="0"/>
        <pt x="250" y="661" on="1"/>
        <pt x="256" y="654" on="0"/>
      </contour>
      <contour>
        <pt x="424" y="454" on="1"/>
        <pt x="424" y="443" on="1"/>
        <pt x="420" y="440" on="0"/>
        <pt x="411" y="435" on="0"/>
        <pt x="406" y="435" on="1"/>
        <pt x="399" y="435" on="0"/>
        <pt x="384" y="446" on="0"/>
        <pt x="382" y="453" on="1"/>
        <pt x="383" y="461" on="0"/>
        <pt x="387" y="472" on="1"/>
        <pt x="392" y="474" on="0"/>
        <pt x="402" y="476" on="0"/>
        <pt x="407" y="476" on="1"/>
        <pt x="411" y="476" on="0"/>
        <pt x="419" y="472" on="1"/>
        <pt x="422" y="468" on="0"/>
        <pt x="424" y="459" on="0"/>
      </contour>
      <contour>
        <pt x="336" y="458" on="1"/>
        <pt x="336" y="453" on="0"/>
        <pt x="330" y="444" on="0"/>
        <pt x="330" y="439" on="1"/>
        <pt x="325" y="437" on="0"/>
        <pt x="319" y="437" on="0"/>
        <pt x="315" y="433" on="1"/>
        <pt x="308" y="437" on="0"/>
        <pt x="298" y="442" on="0"/>
        <pt x="295" y="450" on="1"/>
        <pt x="295" y="452" on="0"/>
        <pt x="296" y="457" on="0"/>
        <pt x="296" y="459" on="1"/>
        <pt x="296" y="461" on="0"/>
        <pt x="295" y="465" on="0"/>
        <pt x="295" y="467" on="1"/>
        <pt x="299" y="467" on="0"/>
        <pt x="305" y="474" on="0"/>
        <pt x="308" y="476" on="1"/>
        <pt x="313" y="476" on="0"/>
        <pt x="323" y="475" on="0"/>
        <pt x="328" y="475" on="1"/>
        <pt x="330" y="473" on="0"/>
        <pt x="336" y="461" on="0"/>
      </contour>
      <contour>
        <pt x="227" y="540" on="1"/>
        <pt x="223" y="535" on="0"/>
        <pt x="215" y="527" on="0"/>
        <pt x="210" y="523" on="1"/>
        <pt x="199" y="525" on="0"/>
        <pt x="183" y="533" on="0"/>
        <pt x="183" y="546" on="1"/>
        <pt x="183" y="554" on="1"/>
        <pt x="188" y="557" on="0"/>
        <pt x="199" y="564" on="0"/>
        <pt x="206" y="564" on="1"/>
        <pt x="208" y="564" on="0"/>
        <pt x="214" y="562" on="1"/>
        <pt x="219" y="557" on="0"/>
        <pt x="222" y="545" on="0"/>
      </contour>
      <contour>
        <pt x="388" y="355" on="1"/>
        <pt x="388" y="350" on="0"/>
        <pt x="386" y="341" on="0"/>
        <pt x="386" y="336" on="1"/>
        <pt x="383" y="335" on="0"/>
        <pt x="370" y="330" on="0"/>
        <pt x="368" y="330" on="1"/>
        <pt x="360" y="330" on="0"/>
        <pt x="346" y="342" on="0"/>
        <pt x="346" y="350" on="1"/>
        <pt x="346" y="357" on="0"/>
        <pt x="354" y="366" on="0"/>
        <pt x="355" y="373" on="1"/>
        <pt x="360" y="373" on="0"/>
        <pt x="370" y="373" on="0"/>
        <pt x="375" y="375" on="1"/>
        <pt x="380" y="370" on="0"/>
        <pt x="388" y="363" on="0"/>
      </contour>
      <contour>
        <pt x="246" y="449" on="1"/>
        <pt x="243" y="444" on="0"/>
        <pt x="235" y="439" on="0"/>
        <pt x="232" y="434" on="1"/>
        <pt x="224" y="437" on="0"/>
        <pt x="217" y="437" on="1"/>
        <pt x="213" y="438" on="1"/>
        <pt x="211" y="442" on="0"/>
        <pt x="205" y="454" on="0"/>
        <pt x="205" y="457" on="1"/>
        <pt x="205" y="462" on="0"/>
        <pt x="210" y="468" on="0"/>
        <pt x="212" y="473" on="1"/>
        <pt x="218" y="475" on="0"/>
        <pt x="223" y="475" on="1"/>
        <pt x="229" y="475" on="0"/>
        <pt x="237" y="472" on="1"/>
        <pt x="246" y="463" on="0"/>
      </contour>
      <contour>
        <pt x="310" y="357" on="1"/>
        <pt x="309" y="348" on="0"/>
        <pt x="301" y="331" on="0"/>
        <pt x="290" y="331" on="1"/>
        <pt x="284" y="331" on="1"/>
        <pt x="272" y="338" on="1"/>
        <pt x="270" y="342" on="0"/>
        <pt x="266" y="348" on="0"/>
        <pt x="266" y="353" on="1"/>
        <pt x="266" y="362" on="0"/>
        <pt x="282" y="373" on="0"/>
        <pt x="290" y="373" on="1"/>
        <pt x="294" y="373" on="0"/>
        <pt x="304" y="371" on="1"/>
        <pt x="306" y="367" on="0"/>
        <pt x="307" y="360" on="0"/>
      </contour>
      <contour>
        <pt x="583" y="78" on="1"/>
        <pt x="581" y="73" on="0"/>
        <pt x="582" y="70" on="0"/>
        <pt x="582" y="65" on="1"/>
        <pt x="582" y="62" on="0"/>
        <pt x="578" y="56" on="1"/>
        <pt x="575" y="54" on="0"/>
        <pt x="568" y="49" on="0"/>
        <pt x="563" y="49" on="1"/>
        <pt x="554" y="49" on="0"/>
        <pt x="550" y="59" on="0"/>
        <pt x="545" y="63" on="1"/>
        <pt x="543" y="67" on="0"/>
        <pt x="544" y="74" on="0"/>
        <pt x="543" y="78" on="1"/>
        <pt x="547" y="83" on="0"/>
        <pt x="551" y="85" on="0"/>
        <pt x="551" y="93" on="1"/>
        <pt x="562" y="91" on="0"/>
        <pt x="575" y="86" on="0"/>
      </contour>
      <contour>
        <pt x="157" y="456" on="1"/>
        <pt x="157" y="447" on="0"/>
        <pt x="144" y="435" on="0"/>
        <pt x="135" y="435" on="1"/>
        <pt x="128" y="435" on="0"/>
        <pt x="117" y="444" on="0"/>
        <pt x="117" y="451" on="1"/>
        <pt x="117" y="455" on="0"/>
        <pt x="118" y="462" on="0"/>
        <pt x="118" y="465" on="1"/>
        <pt x="122" y="468" on="0"/>
        <pt x="130" y="475" on="0"/>
        <pt x="135" y="475" on="1"/>
        <pt x="143" y="475" on="0"/>
        <pt x="157" y="466" on="0"/>
      </contour>
      <contour>
        <pt x="228" y="356" on="1"/>
        <pt x="228" y="351" on="0"/>
        <pt x="226" y="344" on="0"/>
        <pt x="226" y="339" on="1"/>
        <pt x="221" y="337" on="0"/>
        <pt x="212" y="334" on="0"/>
        <pt x="208" y="330" on="1"/>
        <pt x="197" y="333" on="0"/>
        <pt x="188" y="351" on="0"/>
        <pt x="188" y="362" on="1"/>
        <pt x="194" y="362" on="0"/>
        <pt x="194" y="368" on="0"/>
        <pt x="198" y="372" on="1"/>
        <pt x="200" y="372" on="0"/>
        <pt x="205" y="373" on="0"/>
        <pt x="208" y="373" on="1"/>
        <pt x="211" y="373" on="0"/>
        <pt x="217" y="372" on="0"/>
        <pt x="219" y="372" on="1"/>
        <pt x="221" y="367" on="0"/>
        <pt x="224" y="360" on="0"/>
      </contour>
      <contour>
        <pt x="515" y="25" on="1"/>
        <pt x="515" y="17" on="0"/>
        <pt x="512" y="8" on="1"/>
        <pt x="508" y="6" on="0"/>
        <pt x="501" y="3" on="0"/>
        <pt x="496" y="3" on="1"/>
        <pt x="492" y="3" on="0"/>
        <pt x="486" y="5" on="1"/>
        <pt x="482" y="7" on="0"/>
        <pt x="477" y="10" on="0"/>
        <pt x="472" y="12" on="1"/>
        <pt x="472" y="20" on="1"/>
        <pt x="472" y="28" on="0"/>
        <pt x="486" y="44" on="0"/>
        <pt x="494" y="44" on="1"/>
        <pt x="500" y="44" on="0"/>
        <pt x="503" y="42" on="1"/>
        <pt x="513" y="42" on="1"/>
        <pt x="514" y="37" on="0"/>
        <pt x="515" y="30" on="0"/>
      </contour>
      <contour>
        <pt x="66" y="455" on="1"/>
        <pt x="66" y="452" on="0"/>
        <pt x="65" y="446" on="0"/>
        <pt x="65" y="442" on="1"/>
        <pt x="62" y="440" on="0"/>
        <pt x="53" y="434" on="0"/>
        <pt x="50" y="434" on="1"/>
        <pt x="47" y="434" on="0"/>
        <pt x="34" y="437" on="0"/>
        <pt x="32" y="439" on="1"/>
        <pt x="27" y="451" on="0"/>
        <pt x="27" y="460" on="1"/>
        <pt x="27" y="465" on="1"/>
        <pt x="33" y="470" on="0"/>
        <pt x="41" y="477" on="0"/>
        <pt x="49" y="477" on="1"/>
        <pt x="54" y="477" on="0"/>
        <pt x="60" y="472" on="0"/>
        <pt x="64" y="470" on="1"/>
        <pt x="66" y="460" on="0"/>
      </contour>
      <contour>
        <pt x="149" y="350" on="1"/>
        <pt x="149" y="342" on="0"/>
        <pt x="136" y="331" on="0"/>
        <pt x="128" y="331" on="1"/>
        <pt x="123" y="331" on="0"/>
        <pt x="115" y="337" on="0"/>
        <pt x="111" y="340" on="1"/>
        <pt x="108" y="346" on="0"/>
        <pt x="108" y="352" on="1"/>
        <pt x="108" y="358" on="0"/>
        <pt x="112" y="359" on="1"/>
        <pt x="114" y="363" on="0"/>
        <pt x="119" y="368" on="0"/>
        <pt x="121" y="372" on="1"/>
        <pt x="123" y="373" on="0"/>
        <pt x="128" y="373" on="1"/>
        <pt x="138" y="373" on="0"/>
        <pt x="149" y="360" on="0"/>
      </contour>
      <contour>
        <pt x="202" y="257" on="1"/>
        <pt x="202" y="247" on="0"/>
        <pt x="189" y="234" on="0"/>
        <pt x="179" y="234" on="1"/>
        <pt x="176" y="234" on="0"/>
        <pt x="170" y="236" on="1"/>
        <pt x="164" y="244" on="0"/>
        <pt x="159" y="249" on="1"/>
        <pt x="159" y="261" on="0"/>
        <pt x="168" y="278" on="0"/>
        <pt x="182" y="278" on="1"/>
        <pt x="191" y="278" on="1"/>
        <pt x="196" y="272" on="0"/>
        <pt x="202" y="265" on="0"/>
      </contour>
      <contour>
        <pt x="433" y="8" on="1"/>
        <pt x="433" y="0" on="0"/>
        <pt x="428" y="-11" on="0"/>
        <pt x="427" y="-18" on="1"/>
        <pt x="420" y="-25" on="0"/>
        <pt x="413" y="-25" on="1"/>
        <pt x="406" y="-25" on="0"/>
        <pt x="396" y="-17" on="0"/>
        <pt x="391" y="-12" on="1"/>
        <pt x="391" y="-7" on="0"/>
        <pt x="392" y="3" on="0"/>
        <pt x="395" y="7" on="1"/>
        <pt x="398" y="9" on="0"/>
        <pt x="409" y="16" on="0"/>
        <pt x="412" y="16" on="1"/>
        <pt x="413" y="16" on="0"/>
        <pt x="431" y="9" on="0"/>
      </contour>
      <contour>
        <pt x="67" y="358" on="1"/>
        <pt x="67" y="355" on="0"/>
        <pt x="65" y="349" on="0"/>
        <pt x="64" y="345" on="1"/>
        <pt x="64" y="344" on="0"/>
        <pt x="66" y="340" on="1"/>
        <pt x="63" y="336" on="0"/>
        <pt x="54" y="330" on="0"/>
        <pt x="49" y="330" on="1"/>
        <pt x="32" y="330" on="0"/>
        <pt x="27" y="345" on="1"/>
        <pt x="28" y="352" on="0"/>
        <pt x="31" y="365" on="0"/>
        <pt x="36" y="370" on="1"/>
        <pt x="41" y="371" on="0"/>
        <pt x="47" y="371" on="0"/>
        <pt x="51" y="375" on="1"/>
        <pt x="61" y="370" on="0"/>
        <pt x="61" y="362" on="0"/>
      </contour>
      <contour>
        <pt x="224" y="161" on="1"/>
        <pt x="224" y="155" on="0"/>
        <pt x="223" y="148" on="0"/>
        <pt x="220" y="143" on="0"/>
        <pt x="216" y="137" on="0"/>
        <pt x="213" y="132" on="1"/>
        <pt x="207" y="130" on="0"/>
        <pt x="204" y="130" on="1"/>
        <pt x="198" y="130" on="0"/>
        <pt x="191" y="137" on="0"/>
        <pt x="186" y="139" on="1"/>
        <pt x="185" y="143" on="0"/>
        <pt x="183" y="149" on="0"/>
        <pt x="183" y="153" on="1"/>
        <pt x="183" y="162" on="0"/>
        <pt x="196" y="172" on="0"/>
        <pt x="204" y="172" on="1"/>
        <pt x="207" y="172" on="0"/>
        <pt x="212" y="171" on="0"/>
        <pt x="215" y="170" on="1"/>
      </contour>
      <contour>
        <pt x="345" y="7" on="1"/>
        <pt x="345" y="-1" on="0"/>
        <pt x="335" y="-9" on="0"/>
        <pt x="329" y="-12" on="1"/>
        <pt x="314" y="-10" on="0"/>
        <pt x="305" y="0" on="1"/>
        <pt x="305" y="2" on="0"/>
        <pt x="304" y="5" on="0"/>
        <pt x="304" y="7" on="1"/>
        <pt x="304" y="15" on="0"/>
        <pt x="315" y="26" on="0"/>
        <pt x="320" y="31" on="1"/>
        <pt x="331" y="26" on="0"/>
        <pt x="345" y="22" on="0"/>
      </contour>
      <contour>
        <pt x="275" y="67" on="1"/>
        <pt x="275" y="59" on="0"/>
        <pt x="267" y="45" on="0"/>
        <pt x="258" y="45" on="1"/>
        <pt x="253" y="45" on="0"/>
        <pt x="245" y="49" on="0"/>
        <pt x="240" y="51" on="1"/>
        <pt x="238" y="55" on="0"/>
        <pt x="236" y="62" on="0"/>
        <pt x="236" y="67" on="1"/>
        <pt x="236" y="75" on="0"/>
        <pt x="248" y="86" on="0"/>
        <pt x="256" y="86" on="1"/>
        <pt x="259" y="86" on="0"/>
        <pt x="263" y="84" on="1"/>
        <pt x="267" y="81" on="0"/>
        <pt x="275" y="73" on="0"/>
      </contour>
    </TTGlyph>
    <TTGlyph name="F" xMin="85" yMin="-11" xMax="578" yMax="749">
      <contour>
        <pt x="578" y="719" on="1"/>
        <pt x="573" y="714" on="0"/>
        <pt x="562" y="701" on="0"/>
        <pt x="554" y="701" on="1"/>
        <pt x="549" y="701" on="0"/>
        <pt x="539" y="706" on="0"/>
        <pt x="534" y="708" on="1"/>
        <pt x="534" y="713" on="0"/>
        <pt x="532" y="720" on="0"/>
        <pt x="532" y="725" on="1"/>
        <pt x="532" y="736" on="0"/>
        <pt x="544" y="738" on="0"/>
        <pt x="548" y="745" on="1"/>
        <pt x="564" y="744" on="1"/>
        <pt x="572" y="736" on="0"/>
        <pt x="573" y="727" on="0"/>
      </contour>
      <contour>
        <pt x="495" y="730" on="1"/>
        <pt x="495" y="726" on="0"/>
        <pt x="491" y="722" on="1"/>
        <pt x="488" y="716" on="0"/>
        <pt x="479" y="706" on="0"/>
        <pt x="472" y="706" on="1"/>
        <pt x="463" y="706" on="1"/>
        <pt x="461" y="710" on="0"/>
        <pt x="451" y="720" on="0"/>
        <pt x="451" y="725" on="1"/>
        <pt x="457" y="738" on="1"/>
        <pt x="462" y="742" on="0"/>
        <pt x="471" y="745" on="0"/>
        <pt x="475" y="749" on="1"/>
        <pt x="480" y="746" on="0"/>
        <pt x="495" y="737" on="0"/>
      </contour>
      <contour>
        <pt x="414" y="724" on="1"/>
        <pt x="414" y="717" on="0"/>
        <pt x="404" y="710" on="0"/>
        <pt x="399" y="706" on="1"/>
        <pt x="394" y="707" on="0"/>
        <pt x="385" y="707" on="0"/>
        <pt x="380" y="707" on="1"/>
        <pt x="377" y="713" on="0"/>
        <pt x="373" y="718" on="0"/>
        <pt x="373" y="725" on="1"/>
        <pt x="375" y="730" on="0"/>
        <pt x="385" y="746" on="0"/>
        <pt x="393" y="746" on="1"/>
        <pt x="398" y="746" on="0"/>
        <pt x="408" y="740" on="0"/>
        <pt x="413" y="738" on="1"/>
        <pt x="412" y="737" on="0"/>
        <pt x="410" y="733" on="1"/>
        <pt x="412" y="731" on="0"/>
        <pt x="414" y="727" on="0"/>
      </contour>
      <contour>
        <pt x="327" y="727" on="1"/>
        <pt x="326" y="722" on="0"/>
        <pt x="323" y="715" on="0"/>
        <pt x="323" y="710" on="1"/>
        <pt x="312" y="703" on="0"/>
        <pt x="303" y="703" on="1"/>
        <pt x="298" y="705" on="0"/>
        <pt x="289" y="709" on="0"/>
        <pt x="284" y="712" on="1"/>
        <pt x="284" y="721" on="1"/>
        <pt x="284" y="730" on="0"/>
        <pt x="291" y="741" on="1"/>
        <pt x="308" y="747" on="1"/>
        <pt x="312" y="740" on="0"/>
        <pt x="323" y="733" on="0"/>
      </contour>
      <contour>
        <pt x="229" y="730" on="1"/>
        <pt x="228" y="723" on="0"/>
        <pt x="223" y="712" on="0"/>
        <pt x="220" y="706" on="1"/>
        <pt x="212" y="704" on="0"/>
        <pt x="208" y="704" on="1"/>
        <pt x="203" y="704" on="0"/>
        <pt x="185" y="715" on="0"/>
        <pt x="185" y="721" on="1"/>
        <pt x="185" y="726" on="0"/>
        <pt x="188" y="736" on="0"/>
        <pt x="187" y="742" on="1"/>
        <pt x="193" y="742" on="0"/>
        <pt x="203" y="746" on="0"/>
        <pt x="208" y="746" on="1"/>
        <pt x="218" y="746" on="0"/>
        <pt x="224" y="738" on="0"/>
      </contour>
      <contour>
        <pt x="138" y="732" on="1"/>
        <pt x="133" y="722" on="0"/>
        <pt x="133" y="714" on="1"/>
        <pt x="128" y="712" on="0"/>
        <pt x="113" y="706" on="0"/>
        <pt x="109" y="706" on="1"/>
        <pt x="101" y="706" on="0"/>
        <pt x="92" y="720" on="0"/>
        <pt x="92" y="727" on="1"/>
        <pt x="92" y="735" on="0"/>
        <pt x="103" y="746" on="0"/>
        <pt x="111" y="746" on="1"/>
        <pt x="115" y="746" on="0"/>
        <pt x="121" y="744" on="1"/>
        <pt x="124" y="740" on="0"/>
        <pt x="134" y="736" on="0"/>
      </contour>
      <contour>
        <pt x="483" y="376" on="1"/>
        <pt x="483" y="374" on="0"/>
        <pt x="481" y="368" on="1"/>
        <pt x="473" y="358" on="0"/>
        <pt x="465" y="357" on="0"/>
        <pt x="453" y="355" on="1"/>
        <pt x="447" y="360" on="0"/>
        <pt x="446" y="367" on="0"/>
        <pt x="441" y="372" on="1"/>
        <pt x="442" y="377" on="0"/>
        <pt x="447" y="386" on="0"/>
        <pt x="449" y="391" on="1"/>
        <pt x="454" y="391" on="1"/>
        <pt x="456" y="391" on="0"/>
        <pt x="463" y="395" on="0"/>
        <pt x="468" y="395" on="1"/>
        <pt x="474" y="395" on="1"/>
        <pt x="476" y="390" on="0"/>
        <pt x="483" y="381" on="0"/>
      </contour>
      <contour>
        <pt x="129" y="649" on="1"/>
        <pt x="129" y="644" on="0"/>
        <pt x="127" y="633" on="0"/>
        <pt x="127" y="628" on="1"/>
        <pt x="124" y="629" on="0"/>
        <pt x="118" y="629" on="1"/>
        <pt x="114" y="629" on="0"/>
        <pt x="109" y="624" on="1"/>
        <pt x="93" y="631" on="0"/>
        <pt x="85" y="645" on="1"/>
        <pt x="91" y="650" on="0"/>
        <pt x="101" y="658" on="0"/>
        <pt x="106" y="664" on="1"/>
        <pt x="114" y="663" on="0"/>
        <pt x="126" y="657" on="0"/>
      </contour>
      <contour>
        <pt x="396" y="374" on="1"/>
        <pt x="396" y="367" on="0"/>
        <pt x="389" y="358" on="0"/>
        <pt x="384" y="353" on="1"/>
        <pt x="381" y="356" on="0"/>
        <pt x="380" y="356" on="1"/>
        <pt x="378" y="356" on="0"/>
        <pt x="376" y="355" on="0"/>
        <pt x="374" y="355" on="1"/>
        <pt x="368" y="355" on="0"/>
        <pt x="356" y="371" on="0"/>
        <pt x="356" y="377" on="1"/>
        <pt x="356" y="386" on="0"/>
        <pt x="372" y="394" on="0"/>
        <pt x="380" y="394" on="1"/>
        <pt x="386" y="394" on="0"/>
        <pt x="396" y="379" on="0"/>
      </contour>
      <contour>
        <pt x="135" y="562" on="1"/>
        <pt x="133" y="559" on="0"/>
        <pt x="129" y="551" on="0"/>
        <pt x="126" y="548" on="1"/>
        <pt x="121" y="547" on="0"/>
        <pt x="113" y="545" on="0"/>
        <pt x="108" y="545" on="1"/>
        <pt x="101" y="545" on="0"/>
        <pt x="96" y="549" on="1"/>
        <pt x="94" y="553" on="0"/>
        <pt x="89" y="561" on="0"/>
        <pt x="89" y="566" on="1"/>
        <pt x="89" y="568" on="0"/>
        <pt x="91" y="574" on="1"/>
        <pt x="95" y="578" on="0"/>
        <pt x="105" y="582" on="0"/>
        <pt x="109" y="587" on="1"/>
        <pt x="116" y="585" on="0"/>
        <pt x="124" y="580" on="0"/>
        <pt x="130" y="577" on="1"/>
        <pt x="131" y="572" on="0"/>
      </contour>
      <contour>
        <pt x="305" y="379" on="1"/>
        <pt x="302" y="370" on="0"/>
        <pt x="293" y="352" on="0"/>
        <pt x="282" y="352" on="1"/>
        <pt x="279" y="354" on="0"/>
        <pt x="272" y="357" on="0"/>
        <pt x="268" y="357" on="1"/>
        <pt x="262" y="364" on="0"/>
        <pt x="262" y="374" on="1"/>
        <pt x="262" y="377" on="0"/>
        <pt x="264" y="382" on="0"/>
        <pt x="265" y="384" on="1"/>
        <pt x="273" y="389" on="0"/>
        <pt x="277" y="393" on="0"/>
        <pt x="288" y="395" on="1"/>
        <pt x="292" y="391" on="0"/>
        <pt x="301" y="384" on="0"/>
      </contour>
      <contour>
        <pt x="137" y="458" on="1"/>
        <pt x="137" y="457" on="0"/>
        <pt x="134" y="453" on="0"/>
        <pt x="132" y="451" on="1"/>
        <pt x="127" y="446" on="1"/>
        <pt x="114" y="446" on="1"/>
        <pt x="111" y="446" on="0"/>
        <pt x="109" y="444" on="1"/>
        <pt x="104" y="448" on="0"/>
        <pt x="100" y="451" on="0"/>
        <pt x="93" y="453" on="1"/>
        <pt x="96" y="465" on="1"/>
        <pt x="94" y="469" on="1"/>
        <pt x="98" y="475" on="0"/>
        <pt x="110" y="485" on="0"/>
        <pt x="118" y="485" on="1"/>
        <pt x="125" y="485" on="0"/>
        <pt x="130" y="478" on="1"/>
        <pt x="136" y="476" on="0"/>
        <pt x="137" y="471" on="0"/>
      </contour>
      <contour>
        <pt x="212" y="370" on="1"/>
        <pt x="207" y="364" on="0"/>
        <pt x="195" y="354" on="0"/>
        <pt x="187" y="354" on="1"/>
        <pt x="184" y="354" on="0"/>
        <pt x="179" y="355" on="0"/>
        <pt x="176" y="356" on="1"/>
        <pt x="174" y="360" on="0"/>
        <pt x="170" y="367" on="0"/>
        <pt x="170" y="372" on="1"/>
        <pt x="170" y="377" on="1"/>
        <pt x="179" y="395" on="1"/>
        <pt x="187" y="395" on="0"/>
        <pt x="199" y="389" on="0"/>
        <pt x="207" y="387" on="1"/>
        <pt x="209" y="382" on="0"/>
        <pt x="209" y="375" on="0"/>
      </contour>
      <contour>
        <pt x="136" y="380" on="1"/>
        <pt x="131" y="369" on="0"/>
        <pt x="123" y="355" on="0"/>
        <pt x="109" y="355" on="1"/>
        <pt x="99" y="355" on="1"/>
        <pt x="99" y="363" on="0"/>
        <pt x="91" y="366" on="0"/>
        <pt x="91" y="374" on="1"/>
        <pt x="91" y="380" on="0"/>
        <pt x="97" y="389" on="0"/>
        <pt x="99" y="394" on="1"/>
        <pt x="105" y="394" on="1"/>
        <pt x="107" y="394" on="0"/>
        <pt x="111" y="395" on="0"/>
        <pt x="113" y="395" on="1"/>
        <pt x="119" y="395" on="1"/>
      </contour>
      <contour>
        <pt x="132" y="297" on="1"/>
        <pt x="132" y="290" on="0"/>
        <pt x="128" y="277" on="0"/>
        <pt x="128" y="270" on="1"/>
        <pt x="123" y="268" on="0"/>
        <pt x="113" y="264" on="0"/>
        <pt x="108" y="264" on="1"/>
        <pt x="98" y="264" on="1"/>
        <pt x="96" y="270" on="0"/>
        <pt x="91" y="280" on="0"/>
        <pt x="90" y="286" on="1"/>
        <pt x="91" y="288" on="0"/>
        <pt x="93" y="292" on="0"/>
        <pt x="94" y="294" on="1"/>
        <pt x="93" y="297" on="0"/>
        <pt x="93" y="302" on="1"/>
        <pt x="102" y="303" on="0"/>
        <pt x="113" y="307" on="1"/>
        <pt x="118" y="305" on="0"/>
        <pt x="127" y="299" on="0"/>
      </contour>
      <contour>
        <pt x="136" y="197" on="1"/>
        <pt x="135" y="190" on="0"/>
        <pt x="131" y="186" on="0"/>
        <pt x="133" y="178" on="1"/>
        <pt x="128" y="177" on="0"/>
        <pt x="122" y="173" on="0"/>
        <pt x="118" y="171" on="1"/>
        <pt x="113" y="172" on="0"/>
        <pt x="105" y="174" on="0"/>
        <pt x="100" y="174" on="1"/>
        <pt x="98" y="179" on="0"/>
        <pt x="92" y="188" on="0"/>
        <pt x="92" y="193" on="1"/>
        <pt x="92" y="199" on="1"/>
        <pt x="97" y="213" on="0"/>
        <pt x="110" y="213" on="1"/>
        <pt x="115" y="213" on="0"/>
        <pt x="124" y="211" on="0"/>
        <pt x="129" y="211" on="1"/>
        <pt x="131" y="207" on="0"/>
        <pt x="134" y="200" on="0"/>
      </contour>
      <contour>
        <pt x="136" y="111" on="1"/>
        <pt x="134" y="100" on="0"/>
        <pt x="128" y="94" on="1"/>
        <pt x="120" y="91" on="0"/>
        <pt x="114" y="91" on="1"/>
        <pt x="105" y="91" on="0"/>
        <pt x="96" y="103" on="0"/>
        <pt x="94" y="111" on="1"/>
        <pt x="99" y="121" on="0"/>
        <pt x="111" y="133" on="1"/>
        <pt x="116" y="128" on="0"/>
        <pt x="124" y="130" on="0"/>
        <pt x="129" y="125" on="1"/>
        <pt x="130" y="120" on="0"/>
        <pt x="134" y="115" on="0"/>
      </contour>
      <contour>
        <pt x="129" y="19" on="1"/>
        <pt x="128" y="0" on="0"/>
        <pt x="114" y="-11" on="1"/>
        <pt x="108" y="-7" on="0"/>
        <pt x="100" y="-10" on="1"/>
        <pt x="88" y="5" on="1"/>
        <pt x="88" y="11" on="1"/>
        <pt x="88" y="14" on="0"/>
        <pt x="89" y="19" on="0"/>
        <pt x="89" y="22" on="1"/>
        <pt x="94" y="27" on="0"/>
        <pt x="106" y="30" on="0"/>
        <pt x="111" y="35" on="1"/>
        <pt x="121" y="30" on="0"/>
        <pt x="122" y="23" on="0"/>
      </contour>
    </TTGlyph>
    <TTGlyph name="G" xMin="56" yMin="-23" xMax="682" yMax="767">
      <contour>
        <pt x="682" y="630" on="1"/>
        <pt x="682" y="625" on="0"/>
        <pt x="671" y="610" on="0"/>
        <pt x="665" y="610" on="1"/>
        <pt x="654" y="610" on="0"/>
        <pt x="642" y="616" on="0"/>
        <pt x="637" y="626" on="1"/>
        <pt x="638" y="629" on="0"/>
        <pt x="639" y="636" on="0"/>
        <pt x="641" y="638" on="1"/>
        <pt x="643" y="648" on="1"/>
        <pt x="645" y="648" on="0"/>
        <pt x="647" y="649" on="1"/>
        <pt x="651" y="651" on="0"/>
        <pt x="654" y="651" on="1"/>
        <pt x="659" y="651" on="0"/>
        <pt x="667" y="648" on="0"/>
        <pt x="672" y="648" on="1"/>
        <pt x="676" y="644" on="0"/>
        <pt x="682" y="635" on="0"/>
      </contour>
      <contour>
        <pt x="612" y="684" on="1"/>
        <pt x="612" y="680" on="0"/>
        <pt x="608" y="674" on="1"/>
        <pt x="600" y="670" on="0"/>
        <pt x="593" y="670" on="1"/>
        <pt x="590" y="670" on="0"/>
        <pt x="585" y="671" on="0"/>
        <pt x="582" y="672" on="1"/>
        <pt x="578" y="676" on="0"/>
        <pt x="572" y="686" on="0"/>
        <pt x="567" y="690" on="1"/>
        <pt x="572" y="697" on="0"/>
        <pt x="584" y="709" on="0"/>
        <pt x="592" y="709" on="1"/>
        <pt x="593" y="709" on="0"/>
        <pt x="599" y="707" on="1"/>
        <pt x="604" y="702" on="0"/>
        <pt x="612" y="692" on="0"/>
      </contour>
      <contour>
        <pt x="534" y="738" on="1"/>
        <pt x="534" y="718" on="0"/>
        <pt x="516" y="718" on="1"/>
        <pt x="508" y="718" on="0"/>
        <pt x="494" y="728" on="0"/>
        <pt x="494" y="737" on="1"/>
        <pt x="494" y="743" on="1"/>
        <pt x="498" y="748" on="0"/>
        <pt x="509" y="757" on="0"/>
        <pt x="516" y="757" on="1"/>
        <pt x="522" y="757" on="0"/>
        <pt x="529" y="750" on="0"/>
        <pt x="534" y="747" on="1"/>
      </contour>
      <contour>
        <pt x="424" y="749" on="1"/>
        <pt x="424" y="744" on="0"/>
        <pt x="422" y="734" on="0"/>
        <pt x="421" y="729" on="1"/>
        <pt x="413" y="727" on="0"/>
        <pt x="409" y="727" on="1"/>
        <pt x="395" y="727" on="0"/>
        <pt x="383" y="739" on="1"/>
        <pt x="383" y="745" on="1"/>
        <pt x="383" y="749" on="0"/>
        <pt x="384" y="755" on="0"/>
        <pt x="383" y="758" on="1"/>
        <pt x="390" y="760" on="0"/>
        <pt x="397" y="767" on="1"/>
        <pt x="405" y="766" on="0"/>
        <pt x="416" y="761" on="0"/>
        <pt x="424" y="759" on="1"/>
      </contour>
      <contour>
        <pt x="329" y="715" on="1"/>
        <pt x="318" y="706" on="0"/>
        <pt x="310" y="706" on="1"/>
        <pt x="306" y="706" on="0"/>
        <pt x="300" y="709" on="0"/>
        <pt x="297" y="711" on="1"/>
        <pt x="295" y="711" on="0"/>
        <pt x="289" y="709" on="1"/>
        <pt x="289" y="716" on="0"/>
        <pt x="289" y="729" on="0"/>
        <pt x="290" y="736" on="1"/>
        <pt x="300" y="743" on="0"/>
        <pt x="309" y="743" on="1"/>
        <pt x="314" y="743" on="0"/>
        <pt x="322" y="739" on="0"/>
        <pt x="327" y="737" on="1"/>
        <pt x="327" y="732" on="0"/>
        <pt x="329" y="720" on="0"/>
      </contour>
      <contour>
        <pt x="676" y="314" on="1"/>
        <pt x="675" y="309" on="0"/>
        <pt x="673" y="299" on="0"/>
        <pt x="669" y="295" on="1"/>
        <pt x="664" y="293" on="0"/>
        <pt x="657" y="293" on="0"/>
        <pt x="653" y="288" on="1"/>
        <pt x="646" y="293" on="0"/>
        <pt x="634" y="301" on="0"/>
        <pt x="634" y="310" on="1"/>
        <pt x="636" y="315" on="0"/>
        <pt x="639" y="323" on="0"/>
        <pt x="642" y="327" on="1"/>
        <pt x="652" y="329" on="0"/>
        <pt x="657" y="329" on="1"/>
        <pt x="671" y="329" on="0"/>
      </contour>
      <contour>
        <pt x="596" y="321" on="1"/>
        <pt x="596" y="308" on="0"/>
        <pt x="588" y="300" on="1"/>
        <pt x="584" y="300" on="0"/>
        <pt x="577" y="299" on="0"/>
        <pt x="573" y="299" on="1"/>
        <pt x="569" y="299" on="0"/>
        <pt x="558" y="310" on="0"/>
        <pt x="556" y="313" on="1"/>
        <pt x="558" y="329" on="0"/>
        <pt x="570" y="338" on="0"/>
        <pt x="585" y="338" on="1"/>
        <pt x="587" y="335" on="0"/>
        <pt x="589" y="330" on="0"/>
        <pt x="591" y="327" on="1"/>
        <pt x="596" y="325" on="0"/>
      </contour>
      <contour>
        <pt x="232" y="674" on="1"/>
        <pt x="229" y="666" on="0"/>
        <pt x="229" y="659" on="1"/>
        <pt x="225" y="653" on="0"/>
        <pt x="216" y="649" on="0"/>
        <pt x="211" y="646" on="1"/>
        <pt x="206" y="646" on="0"/>
        <pt x="196" y="650" on="0"/>
        <pt x="191" y="650" on="1"/>
        <pt x="191" y="652" on="0"/>
        <pt x="192" y="654" on="0"/>
        <pt x="192" y="656" on="1"/>
        <pt x="191" y="659" on="0"/>
        <pt x="189" y="665" on="0"/>
        <pt x="189" y="668" on="1"/>
        <pt x="189" y="672" on="0"/>
        <pt x="191" y="676" on="0"/>
        <pt x="189" y="681" on="1"/>
        <pt x="194" y="683" on="0"/>
        <pt x="205" y="688" on="0"/>
        <pt x="211" y="688" on="1"/>
        <pt x="219" y="688" on="0"/>
        <pt x="227" y="679" on="0"/>
      </contour>
      <contour>
        <pt x="673" y="208" on="1"/>
        <pt x="673" y="200" on="0"/>
        <pt x="660" y="189" on="0"/>
        <pt x="652" y="189" on="1"/>
        <pt x="648" y="189" on="0"/>
        <pt x="642" y="191" on="1"/>
        <pt x="639" y="196" on="0"/>
        <pt x="630" y="205" on="0"/>
        <pt x="630" y="211" on="1"/>
        <pt x="630" y="215" on="0"/>
        <pt x="632" y="219" on="1"/>
        <pt x="637" y="222" on="0"/>
        <pt x="646" y="228" on="0"/>
        <pt x="651" y="230" on="1"/>
        <pt x="657" y="230" on="0"/>
        <pt x="661" y="225" on="0"/>
        <pt x="670" y="227" on="1"/>
        <pt x="670" y="222" on="0"/>
        <pt x="673" y="213" on="0"/>
      </contour>
      <contour>
        <pt x="499" y="320" on="1"/>
        <pt x="499" y="316" on="0"/>
        <pt x="491" y="300" on="0"/>
        <pt x="490" y="298" on="1"/>
        <pt x="469" y="298" on="1"/>
        <pt x="465" y="301" on="0"/>
        <pt x="460" y="308" on="0"/>
        <pt x="456" y="312" on="1"/>
        <pt x="458" y="317" on="0"/>
        <pt x="458" y="328" on="0"/>
        <pt x="458" y="333" on="1"/>
        <pt x="466" y="333" on="0"/>
        <pt x="469" y="335" on="0"/>
        <pt x="475" y="340" on="1"/>
        <pt x="480" y="337" on="0"/>
        <pt x="485" y="338" on="0"/>
        <pt x="490" y="337" on="1"/>
        <pt x="493" y="333" on="0"/>
        <pt x="499" y="325" on="0"/>
      </contour>
      <contour>
        <pt x="670" y="108" on="1"/>
        <pt x="665" y="103" on="0"/>
        <pt x="660" y="97" on="0"/>
        <pt x="652" y="97" on="1"/>
        <pt x="642" y="97" on="1"/>
        <pt x="638" y="101" on="0"/>
        <pt x="633" y="107" on="0"/>
        <pt x="629" y="109" on="1"/>
        <pt x="629" y="114" on="0"/>
        <pt x="632" y="122" on="0"/>
        <pt x="632" y="127" on="1"/>
        <pt x="637" y="132" on="0"/>
        <pt x="643" y="137" on="0"/>
        <pt x="651" y="137" on="1"/>
        <pt x="656" y="135" on="0"/>
        <pt x="663" y="131" on="0"/>
        <pt x="668" y="130" on="1"/>
        <pt x="668" y="125" on="0"/>
        <pt x="670" y="113" on="0"/>
      </contour>
      <contour>
        <pt x="147" y="565" on="1"/>
        <pt x="142" y="555" on="0"/>
        <pt x="132" y="551" on="0"/>
        <pt x="121" y="551" on="1"/>
        <pt x="116" y="556" on="0"/>
        <pt x="105" y="565" on="0"/>
        <pt x="105" y="573" on="1"/>
        <pt x="110" y="582" on="0"/>
        <pt x="116" y="591" on="0"/>
        <pt x="127" y="591" on="1"/>
        <pt x="134" y="591" on="0"/>
        <pt x="142" y="586" on="1"/>
        <pt x="147" y="577" on="0"/>
      </contour>
      <contour>
        <pt x="399" y="318" on="1"/>
        <pt x="399" y="311" on="1"/>
        <pt x="393" y="309" on="0"/>
        <pt x="392" y="304" on="0"/>
        <pt x="390" y="299" on="1"/>
        <pt x="385" y="299" on="1"/>
        <pt x="383" y="298" on="0"/>
        <pt x="377" y="296" on="0"/>
        <pt x="375" y="296" on="1"/>
        <pt x="371" y="296" on="0"/>
        <pt x="358" y="305" on="0"/>
        <pt x="355" y="308" on="1"/>
        <pt x="355" y="311" on="0"/>
        <pt x="354" y="317" on="0"/>
        <pt x="354" y="320" on="1"/>
        <pt x="354" y="328" on="0"/>
        <pt x="364" y="336" on="0"/>
        <pt x="369" y="340" on="1"/>
        <pt x="370" y="340" on="0"/>
        <pt x="376" y="338" on="1"/>
        <pt x="378" y="337" on="0"/>
        <pt x="381" y="337" on="1"/>
        <pt x="397" y="331" on="1"/>
        <pt x="397" y="329" on="0"/>
        <pt x="398" y="326" on="1"/>
        <pt x="398" y="324" on="0"/>
        <pt x="399" y="320" on="0"/>
      </contour>
      <contour>
        <pt x="676" y="39" on="1"/>
        <pt x="676" y="23" on="0"/>
        <pt x="666" y="12" on="1"/>
        <pt x="662" y="12" on="0"/>
        <pt x="655" y="11" on="0"/>
        <pt x="651" y="11" on="1"/>
        <pt x="645" y="11" on="0"/>
        <pt x="639" y="17" on="1"/>
        <pt x="636" y="24" on="0"/>
        <pt x="636" y="32" on="1"/>
        <pt x="636" y="36" on="0"/>
        <pt x="637" y="43" on="0"/>
        <pt x="637" y="48" on="1"/>
        <pt x="640" y="49" on="0"/>
        <pt x="647" y="51" on="0"/>
        <pt x="650" y="51" on="1"/>
        <pt x="664" y="51" on="1"/>
      </contour>
      <contour>
        <pt x="599" y="16" on="1"/>
        <pt x="597" y="2" on="1"/>
        <pt x="590" y="-9" on="0"/>
        <pt x="578" y="-9" on="1"/>
        <pt x="571" y="-9" on="0"/>
        <pt x="563" y="-2" on="0"/>
        <pt x="557" y="1" on="1"/>
        <pt x="557" y="8" on="1"/>
        <pt x="557" y="17" on="0"/>
        <pt x="567" y="30" on="0"/>
        <pt x="577" y="30" on="1"/>
        <pt x="584" y="30" on="0"/>
        <pt x="585" y="24" on="0"/>
        <pt x="593" y="26" on="1"/>
      </contour>
      <contour>
        <pt x="100" y="452" on="1"/>
        <pt x="100" y="445" on="0"/>
        <pt x="98" y="442" on="1"/>
        <pt x="95" y="439" on="0"/>
        <pt x="89" y="434" on="0"/>
        <pt x="84" y="434" on="1"/>
        <pt x="73" y="434" on="0"/>
        <pt x="64" y="438" on="0"/>
        <pt x="56" y="446" on="1"/>
        <pt x="58" y="450" on="0"/>
        <pt x="58" y="452" on="1"/>
        <pt x="56" y="454" on="0"/>
        <pt x="56" y="457" on="1"/>
        <pt x="56" y="462" on="1"/>
        <pt x="63" y="464" on="0"/>
        <pt x="71" y="472" on="0"/>
        <pt x="79" y="472" on="1"/>
        <pt x="84" y="470" on="0"/>
        <pt x="92" y="469" on="0"/>
        <pt x="97" y="466" on="0"/>
        <pt x="100" y="459" on="0"/>
      </contour>
      <contour>
        <pt x="518" y="-6" on="1"/>
        <pt x="518" y="-10" on="1"/>
        <pt x="514" y="-15" on="0"/>
        <pt x="503" y="-23" on="0"/>
        <pt x="497" y="-23" on="1"/>
        <pt x="491" y="-23" on="1"/>
        <pt x="478" y="-17" on="0"/>
        <pt x="478" y="-3" on="1"/>
        <pt x="478" y="1" on="0"/>
        <pt x="480" y="7" on="1"/>
        <pt x="485" y="9" on="0"/>
        <pt x="495" y="13" on="0"/>
        <pt x="501" y="13" on="1"/>
        <pt x="508" y="13" on="0"/>
        <pt x="513" y="8" on="1"/>
        <pt x="515" y="4" on="0"/>
        <pt x="517" y="-2" on="0"/>
      </contour>
      <contour>
        <pt x="99" y="323" on="1"/>
        <pt x="99" y="311" on="1"/>
        <pt x="92" y="304" on="0"/>
        <pt x="79" y="304" on="1"/>
        <pt x="68" y="304" on="1"/>
        <pt x="65" y="307" on="0"/>
        <pt x="58" y="315" on="0"/>
        <pt x="58" y="320" on="1"/>
        <pt x="58" y="327" on="0"/>
        <pt x="62" y="335" on="0"/>
        <pt x="66" y="340" on="1"/>
        <pt x="70" y="341" on="0"/>
        <pt x="76" y="343" on="0"/>
        <pt x="79" y="343" on="1"/>
        <pt x="84" y="343" on="0"/>
        <pt x="91" y="341" on="0"/>
        <pt x="96" y="339" on="1"/>
        <pt x="99" y="331" on="0"/>
      </contour>
      <contour>
        <pt x="414" y="13" on="1"/>
        <pt x="413" y="11" on="0"/>
        <pt x="411" y="5" on="1"/>
        <pt x="413" y="3" on="0"/>
        <pt x="413" y="0" on="1"/>
        <pt x="407" y="-5" on="0"/>
        <pt x="397" y="-14" on="0"/>
        <pt x="391" y="-14" on="1"/>
        <pt x="384" y="-14" on="0"/>
        <pt x="380" y="-6" on="0"/>
        <pt x="373" y="-5" on="1"/>
        <pt x="372" y="-1" on="0"/>
        <pt x="372" y="6" on="1"/>
        <pt x="372" y="17" on="0"/>
        <pt x="379" y="24" on="1"/>
        <pt x="381" y="24" on="0"/>
        <pt x="387" y="25" on="0"/>
        <pt x="390" y="25" on="1"/>
        <pt x="398" y="25" on="0"/>
        <pt x="409" y="18" on="0"/>
      </contour>
      <contour>
        <pt x="138" y="192" on="1"/>
        <pt x="133" y="187" on="0"/>
        <pt x="129" y="181" on="0"/>
        <pt x="124" y="178" on="1"/>
        <pt x="116" y="178" on="0"/>
        <pt x="109" y="179" on="0"/>
        <pt x="104" y="182" on="0"/>
        <pt x="99" y="187" on="0"/>
        <pt x="94" y="191" on="1"/>
        <pt x="94" y="198" on="1"/>
        <pt x="94" y="208" on="0"/>
        <pt x="108" y="217" on="0"/>
        <pt x="117" y="217" on="1"/>
        <pt x="127" y="217" on="0"/>
        <pt x="136" y="210" on="1"/>
        <pt x="136" y="208" on="0"/>
        <pt x="135" y="204" on="0"/>
        <pt x="135" y="202" on="1"/>
        <pt x="135" y="196" on="0"/>
      </contour>
      <contour>
        <pt x="296" y="39" on="1"/>
        <pt x="295" y="34" on="0"/>
        <pt x="296" y="27" on="0"/>
        <pt x="296" y="23" on="1"/>
        <pt x="284" y="11" on="1"/>
        <pt x="275" y="12" on="0"/>
        <pt x="257" y="20" on="0"/>
        <pt x="257" y="31" on="1"/>
        <pt x="257" y="35" on="0"/>
        <pt x="258" y="41" on="0"/>
        <pt x="257" y="45" on="1"/>
        <pt x="269" y="50" on="0"/>
        <pt x="278" y="50" on="1"/>
        <pt x="292" y="50" on="0"/>
      </contour>
      <contour>
        <pt x="188" y="87" on="1"/>
        <pt x="188" y="82" on="0"/>
        <pt x="186" y="74" on="1"/>
        <pt x="162" y="72" on="1"/>
        <pt x="157" y="77" on="0"/>
        <pt x="148" y="86" on="0"/>
        <pt x="148" y="94" on="1"/>
        <pt x="148" y="102" on="0"/>
        <pt x="161" y="111" on="0"/>
        <pt x="169" y="111" on="1"/>
        <pt x="175" y="111" on="0"/>
        <pt x="183" y="108" on="1"/>
        <pt x="188" y="96" on="0"/>
      </contour>
    </TTGlyph>
</ttFont>
